<svg width="142" height="145" viewBox="0 0 142 145" fill="none" xmlns="http://www.w3.org/2000/svg">
<path fill-rule="evenodd" clip-rule="evenodd" d="M136.372 113.522C133.947 128.276 106.721 132.73 80.5713 132.318C54.859 131.914 25.5904 126.189 12.3845 111.572C-0.982214 96.7774 8.84299 81.843 27.5326 73.6131C43.7297 66.4808 68.2824 69.7779 89.5703 77.5838C113.513 86.363 138.725 99.2106 136.372 113.522Z" fill="#0F96DF"/>
<path fill-rule="evenodd" clip-rule="evenodd" d="M38.6436 20.0458C52.8462 12.122 67.8271 12.8189 77.9364 19.195C89.0351 26.1952 98.1848 38.1319 88.6198 51.5667C79.8625 63.867 62.1726 61.0102 47.3731 62.1237C32.1979 63.2654 11.639 69.2776 9.20426 57.5416C6.48349 44.427 22.2856 29.1721 38.6436 20.0458Z" fill="#0F96DF"/>
</svg>
