<svg width="1030" height="238" viewBox="0 0 1030 238" fill="none" xmlns="http://www.w3.org/2000/svg">
<path fill-rule="evenodd" clip-rule="evenodd" d="M204.372 160.522C201.947 175.276 174.721 179.73 148.571 179.318C122.859 178.914 93.5904 173.189 80.3845 158.572C67.0178 143.777 76.843 128.843 95.5326 120.613C111.73 113.481 136.282 116.778 157.57 124.584C181.513 133.363 206.725 146.211 204.372 160.522Z" fill="#0F96DF"/>
<path fill-rule="evenodd" clip-rule="evenodd" d="M106.644 67.0458C120.846 59.122 135.827 59.8189 145.936 66.195C157.035 73.1952 166.185 85.1319 156.62 98.5667C147.863 110.867 130.173 108.01 115.373 109.124C100.198 110.265 79.639 116.278 77.2043 104.542C74.4835 91.427 90.2856 76.1721 106.644 67.0458Z" fill="#0F96DF"/>
<path d="M324.963 116.592C324.963 121.968 323.667 127.008 321.075 131.712C318.579 136.416 314.595 140.208 309.123 143.088C303.747 145.968 296.931 147.408 288.675 147.408H271.827V186H251.667V85.488H288.675C296.451 85.488 303.075 86.832 308.547 89.52C314.019 92.208 318.099 95.904 320.787 100.608C323.571 105.312 324.963 110.64 324.963 116.592ZM287.811 131.136C293.379 131.136 297.507 129.888 300.195 127.392C302.883 124.8 304.227 121.2 304.227 116.592C304.227 106.8 298.755 101.904 287.811 101.904H271.827V131.136H287.811ZM413.437 144.384C413.437 147.264 413.245 149.856 412.861 152.16H354.541C355.021 157.92 357.037 162.432 360.589 165.696C364.141 168.96 368.509 170.592 373.693 170.592C381.181 170.592 386.509 167.376 389.677 160.944H411.421C409.117 168.624 404.701 174.96 398.173 179.952C391.645 184.848 383.629 187.296 374.125 187.296C366.445 187.296 359.533 185.616 353.389 182.256C347.341 178.8 342.589 173.952 339.133 167.712C335.773 161.472 334.093 154.272 334.093 146.112C334.093 137.856 335.773 130.608 339.133 124.368C342.493 118.128 347.197 113.328 353.245 109.968C359.293 106.608 366.253 104.928 374.125 104.928C381.709 104.928 388.477 106.56 394.429 109.824C400.477 113.088 405.133 117.744 408.397 123.792C411.757 129.744 413.437 136.608 413.437 144.384ZM392.557 138.624C392.461 133.44 390.589 129.312 386.941 126.24C383.293 123.072 378.829 121.488 373.549 121.488C368.557 121.488 364.333 123.024 360.877 126.096C357.517 129.072 355.453 133.248 354.685 138.624H392.557ZM448.312 117.888C450.904 114.048 454.456 110.928 458.968 108.528C463.576 106.128 468.808 104.928 474.664 104.928C481.48 104.928 487.624 106.608 493.096 109.968C498.664 113.328 503.032 118.128 506.2 124.368C509.464 130.512 511.096 137.664 511.096 145.824C511.096 153.984 509.464 161.232 506.2 167.568C503.032 173.808 498.664 178.656 493.096 182.112C487.624 185.568 481.48 187.296 474.664 187.296C468.712 187.296 463.48 186.144 458.968 183.84C454.552 181.44 451 178.368 448.312 174.624V186H428.152V79.44H448.312V117.888ZM490.504 145.824C490.504 141.024 489.496 136.896 487.48 133.44C485.56 129.888 482.968 127.2 479.704 125.376C476.536 123.552 473.08 122.64 469.336 122.64C465.688 122.64 462.232 123.6 458.968 125.52C455.8 127.344 453.208 130.032 451.192 133.584C449.272 137.136 448.312 141.312 448.312 146.112C448.312 150.912 449.272 155.088 451.192 158.64C453.208 162.192 455.8 164.928 458.968 166.848C462.232 168.672 465.688 169.584 469.336 169.584C473.08 169.584 476.536 168.624 479.704 166.704C482.968 164.784 485.56 162.048 487.48 158.496C489.496 154.944 490.504 150.72 490.504 145.824ZM545.905 117.888C548.497 114.048 552.049 110.928 556.561 108.528C561.169 106.128 566.401 104.928 572.257 104.928C579.073 104.928 585.217 106.608 590.689 109.968C596.257 113.328 600.625 118.128 603.793 124.368C607.057 130.512 608.689 137.664 608.689 145.824C608.689 153.984 607.057 161.232 603.793 167.568C600.625 173.808 596.257 178.656 590.689 182.112C585.217 185.568 579.073 187.296 572.257 187.296C566.305 187.296 561.073 186.144 556.561 183.84C552.145 181.44 548.593 178.368 545.905 174.624V186H525.745V79.44H545.905V117.888ZM588.097 145.824C588.097 141.024 587.089 136.896 585.073 133.44C583.153 129.888 580.561 127.2 577.297 125.376C574.129 123.552 570.673 122.64 566.929 122.64C563.281 122.64 559.825 123.6 556.561 125.52C553.393 127.344 550.801 130.032 548.785 133.584C546.865 137.136 545.905 141.312 545.905 146.112C545.905 150.912 546.865 155.088 548.785 158.64C550.801 162.192 553.393 164.928 556.561 166.848C559.825 168.672 563.281 169.584 566.929 169.584C570.673 169.584 574.129 168.624 577.297 166.704C580.561 164.784 583.153 162.048 585.073 158.496C587.089 154.944 588.097 150.72 588.097 145.824ZM643.499 79.44V186H623.339V79.44H643.499ZM737.577 144.384C737.577 147.264 737.385 149.856 737.001 152.16H678.681C679.161 157.92 681.177 162.432 684.729 165.696C688.281 168.96 692.649 170.592 697.833 170.592C705.321 170.592 710.649 167.376 713.817 160.944H735.561C733.257 168.624 728.841 174.96 722.313 179.952C715.785 184.848 707.769 187.296 698.265 187.296C690.585 187.296 683.673 185.616 677.529 182.256C671.481 178.8 666.729 173.952 663.273 167.712C659.913 161.472 658.233 154.272 658.233 146.112C658.233 137.856 659.913 130.608 663.273 124.368C666.633 118.128 671.337 113.328 677.385 109.968C683.433 106.608 690.393 104.928 698.265 104.928C705.849 104.928 712.617 106.56 718.569 109.824C724.617 113.088 729.273 117.744 732.537 123.792C735.897 129.744 737.577 136.608 737.577 144.384ZM716.697 138.624C716.601 133.44 714.729 129.312 711.081 126.24C707.433 123.072 702.969 121.488 697.689 121.488C692.697 121.488 688.473 123.024 685.017 126.096C681.657 129.072 679.593 133.248 678.825 138.624H716.697ZM806.477 85.488V147.696C806.477 154.512 808.253 159.744 811.805 163.392C815.357 166.944 820.349 168.72 826.781 168.72C833.309 168.72 838.349 166.944 841.901 163.392C845.453 159.744 847.229 154.512 847.229 147.696V85.488H867.533V147.552C867.533 156.096 865.661 163.344 861.917 169.296C858.269 175.152 853.325 179.568 847.085 182.544C840.941 185.52 834.077 187.008 826.493 187.008C819.005 187.008 812.189 185.52 806.045 182.544C799.997 179.568 795.197 175.152 791.645 169.296C788.093 163.344 786.317 156.096 786.317 147.552V85.488H806.477ZM907.171 85.488V186H887.011V85.488H907.171Z" fill="#333333"/>
</svg>
