<svg width="1026" height="216" viewBox="0 0 881 216" fill="none" xmlns="http://www.w3.org/2000/svg">
<path fill-rule="evenodd" clip-rule="evenodd" d="M40.0802 53.5118C54.8108 45.2934 70.3486 46.0163 80.8337 52.6294C92.3451 59.8899 101.835 72.2703 91.9143 86.2045C82.8315 98.9621 64.4839 95.9991 49.1343 97.154C33.3949 98.3382 12.0717 104.574 9.54643 92.4016C6.72451 78.7994 23.1141 62.9774 40.0802 53.5118Z" fill="#0F96DF"/>
<path fill-rule="evenodd" clip-rule="evenodd" d="M139.784 150.421C137.268 165.723 109.031 170.343 81.9088 169.916C55.2406 169.496 24.8839 163.559 11.1871 148.398C-2.67655 133.054 7.51391 117.564 26.8983 109.028C43.6976 101.631 69.163 105.05 91.2423 113.146C116.075 122.252 142.225 135.577 139.784 150.421Z" fill="#0F96DF"/>
<path d="M276.232 88.592C276.232 93.968 274.936 99.008 272.344 103.712C269.848 108.416 265.864 112.208 260.392 115.088C255.016 117.968 248.2 119.408 239.944 119.408H223.096V158H202.936V57.488H239.944C247.72 57.488 254.344 58.832 259.816 61.52C265.288 64.208 269.368 67.904 272.056 72.608C274.84 77.312 276.232 82.64 276.232 88.592ZM239.08 103.136C244.648 103.136 248.776 101.888 251.464 99.392C254.152 96.8 255.496 93.2 255.496 88.592C255.496 78.8 250.024 73.904 239.08 73.904H223.096V103.136H239.08ZM364.705 116.384C364.705 119.264 364.513 121.856 364.129 124.16H305.809C306.289 129.92 308.305 134.432 311.857 137.696C315.409 140.96 319.777 142.592 324.961 142.592C332.449 142.592 337.777 139.376 340.945 132.944H362.689C360.385 140.624 355.969 146.96 349.441 151.952C342.913 156.848 334.897 159.296 325.393 159.296C317.713 159.296 310.801 157.616 304.657 154.256C298.609 150.8 293.857 145.952 290.401 139.712C287.041 133.472 285.361 126.272 285.361 118.112C285.361 109.856 287.041 102.608 290.401 96.368C293.761 90.128 298.465 85.328 304.513 81.968C310.561 78.608 317.521 76.928 325.393 76.928C332.977 76.928 339.745 78.56 345.697 81.824C351.745 85.088 356.401 89.744 359.665 95.792C363.025 101.744 364.705 108.608 364.705 116.384ZM343.825 110.624C343.729 105.44 341.857 101.312 338.209 98.24C334.561 95.072 330.097 93.488 324.817 93.488C319.825 93.488 315.601 95.024 312.145 98.096C308.785 101.072 306.721 105.248 305.953 110.624H343.825ZM399.58 89.888C402.172 86.048 405.724 82.928 410.236 80.528C414.844 78.128 420.076 76.928 425.932 76.928C432.748 76.928 438.892 78.608 444.364 81.968C449.932 85.328 454.3 90.128 457.468 96.368C460.732 102.512 462.364 109.664 462.364 117.824C462.364 125.984 460.732 133.232 457.468 139.568C454.3 145.808 449.932 150.656 444.364 154.112C438.892 157.568 432.748 159.296 425.932 159.296C419.98 159.296 414.748 158.144 410.236 155.84C405.82 153.44 402.268 150.368 399.58 146.624V158H379.42V51.44H399.58V89.888ZM441.772 117.824C441.772 113.024 440.764 108.896 438.748 105.44C436.828 101.888 434.236 99.2 430.972 97.376C427.804 95.552 424.348 94.64 420.604 94.64C416.956 94.64 413.5 95.6 410.236 97.52C407.068 99.344 404.476 102.032 402.46 105.584C400.54 109.136 399.58 113.312 399.58 118.112C399.58 122.912 400.54 127.088 402.46 130.64C404.476 134.192 407.068 136.928 410.236 138.848C413.5 140.672 416.956 141.584 420.604 141.584C424.348 141.584 427.804 140.624 430.972 138.704C434.236 136.784 436.828 134.048 438.748 130.496C440.764 126.944 441.772 122.72 441.772 117.824ZM497.174 89.888C499.766 86.048 503.318 82.928 507.83 80.528C512.438 78.128 517.67 76.928 523.526 76.928C530.342 76.928 536.486 78.608 541.958 81.968C547.526 85.328 551.894 90.128 555.062 96.368C558.326 102.512 559.958 109.664 559.958 117.824C559.958 125.984 558.326 133.232 555.062 139.568C551.894 145.808 547.526 150.656 541.958 154.112C536.486 157.568 530.342 159.296 523.526 159.296C517.574 159.296 512.342 158.144 507.83 155.84C503.414 153.44 499.862 150.368 497.174 146.624V158H477.014V51.44H497.174V89.888ZM539.366 117.824C539.366 113.024 538.358 108.896 536.342 105.44C534.422 101.888 531.83 99.2 528.566 97.376C525.398 95.552 521.942 94.64 518.198 94.64C514.55 94.64 511.094 95.6 507.83 97.52C504.662 99.344 502.07 102.032 500.054 105.584C498.134 109.136 497.174 113.312 497.174 118.112C497.174 122.912 498.134 127.088 500.054 130.64C502.07 134.192 504.662 136.928 507.83 138.848C511.094 140.672 514.55 141.584 518.198 141.584C521.942 141.584 525.398 140.624 528.566 138.704C531.83 136.784 534.422 134.048 536.342 130.496C538.358 126.944 539.366 122.72 539.366 117.824ZM594.768 51.44V158H574.608V51.44H594.768ZM688.846 116.384C688.846 119.264 688.654 121.856 688.27 124.16H629.95C630.43 129.92 632.446 134.432 635.998 137.696C639.55 140.96 643.918 142.592 649.102 142.592C656.59 142.592 661.918 139.376 665.086 132.944H686.83C684.526 140.624 680.11 146.96 673.582 151.952C667.054 156.848 659.038 159.296 649.534 159.296C641.854 159.296 634.942 157.616 628.798 154.256C622.75 150.8 617.998 145.952 614.542 139.712C611.182 133.472 609.502 126.272 609.502 118.112C609.502 109.856 611.182 102.608 614.542 96.368C617.902 90.128 622.606 85.328 628.654 81.968C634.702 78.608 641.662 76.928 649.534 76.928C657.118 76.928 663.886 78.56 669.838 81.824C675.886 85.088 680.542 89.744 683.806 95.792C687.166 101.744 688.846 108.608 688.846 116.384ZM667.966 110.624C667.87 105.44 665.998 101.312 662.35 98.24C658.702 95.072 654.238 93.488 648.958 93.488C643.966 93.488 639.742 95.024 636.286 98.096C632.926 101.072 630.862 105.248 630.094 110.624H667.966ZM757.746 57.488V119.696C757.746 126.512 759.522 131.744 763.074 135.392C766.626 138.944 771.618 140.72 778.05 140.72C784.578 140.72 789.618 138.944 793.17 135.392C796.722 131.744 798.498 126.512 798.498 119.696V57.488H818.802V119.552C818.802 128.096 816.93 135.344 813.186 141.296C809.538 147.152 804.594 151.568 798.354 154.544C792.21 157.52 785.346 159.008 777.762 159.008C770.274 159.008 763.458 157.52 757.314 154.544C751.266 151.568 746.466 147.152 742.914 141.296C739.362 135.344 737.586 128.096 737.586 119.552V57.488H757.746ZM858.44 57.488V158H838.28V57.488H858.44Z" fill="#ECECEC"/>
</svg>
