<svg width="150" height="150" viewBox="0 0 150 150" fill="none" xmlns="http://www.w3.org/2000/svg">
<path fill-rule="evenodd" clip-rule="evenodd" d="M40.0802 20.5118C54.8108 12.2934 70.3486 13.0163 80.8337 19.6294C92.3451 26.8899 101.835 39.2703 91.9143 53.2045C82.8315 65.9621 64.4839 62.9991 49.1343 64.154C33.3949 65.3382 12.0717 71.5739 9.54643 59.4016C6.72451 45.7994 23.1141 29.9774 40.0802 20.5118Z" fill="#0F96DF"/>
<path fill-rule="evenodd" clip-rule="evenodd" d="M139.784 117.421C137.268 132.723 109.031 137.343 81.9088 136.916C55.2406 136.496 24.8839 130.559 11.1871 115.398C-2.67655 100.054 7.51391 84.564 26.8983 76.0282C43.6976 68.6307 69.163 72.0504 91.2423 80.1464C116.075 89.2521 142.225 102.577 139.784 117.421Z" fill="#0F96DF"/>
</svg>
