<svg width="447" height="176" viewBox="0 0 447 176" fill="none" xmlns="http://www.w3.org/2000/svg">
<g filter="url(#filter0_d_9_2418)">
<rect x="8" y="4" width="431" height="160" rx="10" fill="white"/>
<rect width="215" height="36" transform="translate(8 33)" fill="#6B9EFF"/>
<path d="M90.1978 51.1499V57.6562C89.978 57.9818 89.6281 58.348 89.1479 58.7549C88.6678 59.1536 88.0046 59.5036 87.1582 59.8047C86.32 60.0977 85.2376 60.2441 83.9111 60.2441C82.8288 60.2441 81.8319 60.057 80.9204 59.6826C80.0171 59.3001 79.2318 58.7467 78.5645 58.0225C77.9053 57.29 77.3926 56.403 77.0264 55.3613C76.6683 54.3115 76.4893 53.1234 76.4893 51.7969V50.4175C76.4893 49.091 76.6439 47.9069 76.9531 46.8652C77.2705 45.8236 77.7344 44.9406 78.3447 44.2163C78.9551 43.4839 79.7038 42.9305 80.5908 42.5562C81.4779 42.1737 82.4951 41.9824 83.6426 41.9824C85.0016 41.9824 86.1369 42.2184 87.0483 42.6904C87.9679 43.1543 88.6841 43.7972 89.1968 44.6191C89.7176 45.4411 90.0513 46.377 90.1978 47.4268H87.8418C87.736 46.7839 87.5244 46.1979 87.207 45.6689C86.8978 45.14 86.4543 44.7168 85.8765 44.3994C85.2987 44.0739 84.554 43.9111 83.6426 43.9111C82.8206 43.9111 82.1086 44.0617 81.5063 44.3628C80.9041 44.6639 80.4077 45.0952 80.0171 45.6567C79.6265 46.2183 79.3335 46.8978 79.1382 47.6953C78.951 48.4928 78.8574 49.3921 78.8574 50.3931V51.7969C78.8574 52.8223 78.9754 53.7378 79.2114 54.5435C79.4556 55.3491 79.8014 56.0368 80.249 56.6064C80.6966 57.168 81.2297 57.5952 81.8481 57.8882C82.4748 58.1812 83.1665 58.3276 83.9233 58.3276C84.7616 58.3276 85.4411 58.2585 85.9619 58.1201C86.4827 57.9736 86.8896 57.8027 87.1826 57.6074C87.4756 57.404 87.6994 57.2127 87.854 57.0337V53.0542H83.7402V51.1499H90.1978ZM96.0205 48.8672V60H93.7622V46.792H95.9595L96.0205 48.8672ZM100.146 46.7188L100.134 48.8184C99.9471 48.7777 99.7681 48.7533 99.5972 48.7451C99.4344 48.7288 99.2472 48.7207 99.0356 48.7207C98.5148 48.7207 98.055 48.8021 97.6562 48.9648C97.2575 49.1276 96.9198 49.3555 96.6431 49.6484C96.3664 49.9414 96.1466 50.2913 95.9839 50.6982C95.8293 51.097 95.7275 51.5365 95.6787 52.0166L95.0439 52.3828C95.0439 51.5853 95.1213 50.8366 95.2759 50.1367C95.4386 49.4368 95.6868 48.8184 96.0205 48.2812C96.3542 47.736 96.7773 47.3128 97.29 47.0117C97.8109 46.7025 98.4294 46.5479 99.1455 46.5479C99.3083 46.5479 99.4954 46.5682 99.707 46.6089C99.9186 46.6414 100.065 46.6781 100.146 46.7188ZM104.688 46.792V60H102.417V46.792H104.688ZM102.246 43.2886C102.246 42.9224 102.356 42.6131 102.576 42.3608C102.804 42.1086 103.137 41.9824 103.577 41.9824C104.008 41.9824 104.338 42.1086 104.565 42.3608C104.801 42.6131 104.919 42.9224 104.919 43.2886C104.919 43.6385 104.801 43.9396 104.565 44.1919C104.338 44.436 104.008 44.5581 103.577 44.5581C103.137 44.5581 102.804 44.436 102.576 44.1919C102.356 43.9396 102.246 43.6385 102.246 43.2886ZM116.638 57.4365V41.25H118.909V60H116.833L116.638 57.4365ZM107.751 53.5425V53.2861C107.751 52.277 107.874 51.3615 108.118 50.5396C108.37 49.7095 108.724 48.9974 109.18 48.4033C109.644 47.8092 110.193 47.3535 110.828 47.0361C111.471 46.7106 112.187 46.5479 112.976 46.5479C113.806 46.5479 114.53 46.6943 115.149 46.9873C115.776 47.2721 116.305 47.6912 116.736 48.2446C117.175 48.7899 117.521 49.4491 117.773 50.2222C118.026 50.9953 118.201 51.8701 118.298 52.8467V53.9697C118.209 54.9382 118.034 55.8089 117.773 56.582C117.521 57.3551 117.175 58.0143 116.736 58.5596C116.305 59.1048 115.776 59.5239 115.149 59.8169C114.522 60.1017 113.79 60.2441 112.952 60.2441C112.179 60.2441 111.471 60.0773 110.828 59.7437C110.193 59.41 109.644 58.9421 109.18 58.3398C108.724 57.7376 108.37 57.0296 108.118 56.2158C107.874 55.3939 107.751 54.5028 107.751 53.5425ZM110.022 53.2861V53.5425C110.022 54.2017 110.087 54.8201 110.217 55.3979C110.356 55.9757 110.567 56.4844 110.852 56.9238C111.137 57.3633 111.499 57.7091 111.938 57.9614C112.378 58.2056 112.903 58.3276 113.513 58.3276C114.262 58.3276 114.876 58.1689 115.356 57.8516C115.845 57.5342 116.235 57.1151 116.528 56.5942C116.821 56.0734 117.049 55.5078 117.212 54.8975V51.9556C117.114 51.508 116.972 51.0767 116.785 50.6616C116.606 50.2384 116.37 49.8641 116.077 49.5386C115.792 49.2049 115.438 48.9404 115.015 48.7451C114.6 48.5498 114.107 48.4521 113.538 48.4521C112.919 48.4521 112.386 48.5824 111.938 48.8428C111.499 49.0951 111.137 49.445 110.852 49.8926C110.567 50.332 110.356 50.8447 110.217 51.4307C110.087 52.0085 110.022 52.627 110.022 53.2861ZM127.124 51.5161V53.3716H121.167V51.5161H127.124ZM131.946 51.5405L130.139 51.0767L131.03 42.2266H140.149V44.314H132.947L132.41 49.1479C132.735 48.9608 133.146 48.7858 133.643 48.623C134.147 48.4603 134.725 48.3789 135.376 48.3789C136.198 48.3789 136.934 48.5213 137.585 48.8062C138.236 49.0828 138.79 49.4816 139.246 50.0024C139.709 50.5233 140.063 51.1499 140.308 51.8823C140.552 52.6147 140.674 53.4326 140.674 54.3359C140.674 55.1904 140.556 55.9757 140.32 56.6919C140.092 57.408 139.746 58.0347 139.282 58.5718C138.818 59.1007 138.232 59.5117 137.524 59.8047C136.825 60.0977 135.999 60.2441 135.046 60.2441C134.33 60.2441 133.651 60.1465 133.008 59.9512C132.373 59.7477 131.803 59.4425 131.299 59.0356C130.802 58.6206 130.396 58.1079 130.078 57.4976C129.769 56.8791 129.574 56.1548 129.492 55.3247H131.641C131.738 55.992 131.934 56.5535 132.227 57.0093C132.52 57.465 132.902 57.8109 133.374 58.0469C133.854 58.2747 134.412 58.3887 135.046 58.3887C135.583 58.3887 136.06 58.2951 136.475 58.1079C136.89 57.9207 137.24 57.6522 137.524 57.3022C137.809 56.9523 138.025 56.5291 138.171 56.0327C138.326 55.5363 138.403 54.9788 138.403 54.3604C138.403 53.7988 138.326 53.278 138.171 52.7979C138.017 52.3177 137.785 51.8986 137.476 51.5405C137.174 51.1825 136.804 50.9058 136.365 50.7104C135.925 50.507 135.421 50.4053 134.851 50.4053C134.094 50.4053 133.521 50.507 133.13 50.7104C132.747 50.9139 132.353 51.1906 131.946 51.5405ZM154.309 49.6973V52.4072C154.309 53.8639 154.179 55.0928 153.918 56.0938C153.658 57.0947 153.284 57.9004 152.795 58.5107C152.307 59.1211 151.717 59.5646 151.025 59.8413C150.342 60.1099 149.569 60.2441 148.706 60.2441C148.022 60.2441 147.392 60.1587 146.814 59.9878C146.236 59.8169 145.715 59.5443 145.251 59.1699C144.796 58.7874 144.405 58.291 144.08 57.6807C143.754 57.0703 143.506 56.3298 143.335 55.459C143.164 54.5882 143.079 53.571 143.079 52.4072V49.6973C143.079 48.2406 143.209 47.0199 143.469 46.0352C143.738 45.0505 144.116 44.2611 144.604 43.667C145.093 43.0648 145.679 42.6335 146.362 42.373C147.054 42.1126 147.827 41.9824 148.682 41.9824C149.373 41.9824 150.008 42.0679 150.586 42.2388C151.172 42.4015 151.693 42.666 152.148 43.0322C152.604 43.3903 152.991 43.8704 153.308 44.4727C153.634 45.0667 153.882 45.7951 154.053 46.6577C154.224 47.5203 154.309 48.5335 154.309 49.6973ZM152.039 52.7734V49.3188C152.039 48.5213 151.99 47.8215 151.892 47.2192C151.803 46.6089 151.668 46.0881 151.489 45.6567C151.31 45.2254 151.082 44.8755 150.806 44.6069C150.537 44.3384 150.224 44.1431 149.866 44.021C149.516 43.8908 149.121 43.8257 148.682 43.8257C148.145 43.8257 147.668 43.9274 147.253 44.1309C146.838 44.3262 146.488 44.6395 146.204 45.0708C145.927 45.5021 145.715 46.0677 145.569 46.7676C145.422 47.4674 145.349 48.3179 145.349 49.3188V52.7734C145.349 53.571 145.394 54.2749 145.483 54.8853C145.581 55.4956 145.723 56.0246 145.911 56.4722C146.098 56.9116 146.326 57.2738 146.594 57.5586C146.863 57.8434 147.172 58.055 147.522 58.1934C147.88 58.3236 148.275 58.3887 148.706 58.3887C149.259 58.3887 149.744 58.2829 150.159 58.0713C150.574 57.8597 150.92 57.5301 151.196 57.0825C151.481 56.6268 151.693 56.0449 151.831 55.3369C151.969 54.6208 152.039 53.7663 152.039 52.7734Z" fill="black"/>
<rect width="117" height="35" transform="translate(8 95)" fill="#6B9EFF"/>
<path d="M41.1978 112.15V118.656C40.978 118.982 40.6281 119.348 40.1479 119.755C39.6678 120.154 39.0046 120.504 38.1582 120.805C37.32 121.098 36.2376 121.244 34.9111 121.244C33.8288 121.244 32.8319 121.057 31.9204 120.683C31.0171 120.3 30.2318 119.747 29.5645 119.022C28.9053 118.29 28.3926 117.403 28.0264 116.361C27.6683 115.312 27.4893 114.123 27.4893 112.797V111.417C27.4893 110.091 27.6439 108.907 27.9531 107.865C28.2705 106.824 28.7344 105.941 29.3447 105.216C29.9551 104.484 30.7038 103.931 31.5908 103.556C32.4779 103.174 33.4951 102.982 34.6426 102.982C36.0016 102.982 37.1369 103.218 38.0483 103.69C38.9679 104.154 39.6841 104.797 40.1968 105.619C40.7176 106.441 41.0513 107.377 41.1978 108.427H38.8418C38.736 107.784 38.5244 107.198 38.207 106.669C37.8978 106.14 37.4543 105.717 36.8765 105.399C36.2987 105.074 35.554 104.911 34.6426 104.911C33.8206 104.911 33.1086 105.062 32.5063 105.363C31.9041 105.664 31.4077 106.095 31.0171 106.657C30.6265 107.218 30.3335 107.898 30.1382 108.695C29.951 109.493 29.8574 110.392 29.8574 111.393V112.797C29.8574 113.822 29.9754 114.738 30.2114 115.543C30.4556 116.349 30.8014 117.037 31.249 117.606C31.6966 118.168 32.2297 118.595 32.8481 118.888C33.4748 119.181 34.1665 119.328 34.9233 119.328C35.7616 119.328 36.4411 119.258 36.9619 119.12C37.4827 118.974 37.8896 118.803 38.1826 118.607C38.4756 118.404 38.6994 118.213 38.854 118.034V114.054H34.7402V112.15H41.1978ZM47.0205 109.867V121H44.7622V107.792H46.9595L47.0205 109.867ZM51.1465 107.719L51.1343 109.818C50.9471 109.778 50.7681 109.753 50.5972 109.745C50.4344 109.729 50.2472 109.721 50.0356 109.721C49.5148 109.721 49.055 109.802 48.6562 109.965C48.2575 110.128 47.9198 110.355 47.6431 110.648C47.3664 110.941 47.1466 111.291 46.9839 111.698C46.8293 112.097 46.7275 112.536 46.6787 113.017L46.0439 113.383C46.0439 112.585 46.1213 111.837 46.2759 111.137C46.4386 110.437 46.6868 109.818 47.0205 109.281C47.3542 108.736 47.7773 108.313 48.29 108.012C48.8109 107.702 49.4294 107.548 50.1455 107.548C50.3083 107.548 50.4954 107.568 50.707 107.609C50.9186 107.641 51.0651 107.678 51.1465 107.719ZM55.6875 107.792V121H53.417V107.792H55.6875ZM53.2461 104.289C53.2461 103.922 53.356 103.613 53.5757 103.361C53.8035 103.109 54.1372 102.982 54.5767 102.982C55.008 102.982 55.3376 103.109 55.5654 103.361C55.8014 103.613 55.9194 103.922 55.9194 104.289C55.9194 104.639 55.8014 104.94 55.5654 105.192C55.3376 105.436 55.008 105.558 54.5767 105.558C54.1372 105.558 53.8035 105.436 53.5757 105.192C53.356 104.94 53.2461 104.639 53.2461 104.289ZM67.6382 118.437V102.25H69.9087V121H67.8335L67.6382 118.437ZM58.7515 114.542V114.286C58.7515 113.277 58.8735 112.361 59.1177 111.54C59.37 110.709 59.724 109.997 60.1797 109.403C60.6436 108.809 61.1929 108.354 61.8276 108.036C62.4705 107.711 63.1867 107.548 63.9761 107.548C64.8062 107.548 65.5304 107.694 66.1489 107.987C66.7756 108.272 67.3045 108.691 67.7358 109.245C68.1753 109.79 68.5212 110.449 68.7734 111.222C69.0257 111.995 69.2007 112.87 69.2983 113.847V114.97C69.2088 115.938 69.0339 116.809 68.7734 117.582C68.5212 118.355 68.1753 119.014 67.7358 119.56C67.3045 120.105 66.7756 120.524 66.1489 120.817C65.5223 121.102 64.7899 121.244 63.9517 121.244C63.1785 121.244 62.4705 121.077 61.8276 120.744C61.1929 120.41 60.6436 119.942 60.1797 119.34C59.724 118.738 59.37 118.03 59.1177 117.216C58.8735 116.394 58.7515 115.503 58.7515 114.542ZM61.022 114.286V114.542C61.022 115.202 61.0871 115.82 61.2173 116.398C61.3556 116.976 61.5672 117.484 61.8521 117.924C62.1369 118.363 62.499 118.709 62.9385 118.961C63.3779 119.206 63.9028 119.328 64.5132 119.328C65.2619 119.328 65.8763 119.169 66.3564 118.852C66.8447 118.534 67.2354 118.115 67.5283 117.594C67.8213 117.073 68.0492 116.508 68.2119 115.897V112.956C68.1143 112.508 67.9718 112.077 67.7847 111.662C67.6056 111.238 67.3696 110.864 67.0767 110.539C66.7918 110.205 66.4378 109.94 66.0146 109.745C65.5996 109.55 65.1073 109.452 64.5376 109.452C63.9191 109.452 63.3861 109.582 62.9385 109.843C62.499 110.095 62.1369 110.445 61.8521 110.893C61.5672 111.332 61.3556 111.845 61.2173 112.431C61.0871 113.008 61.022 113.627 61.022 114.286ZM78.124 112.516V114.372H72.167V112.516H78.124ZM91.7349 119.145V121H80.1016V119.376L85.9243 112.895C86.6405 112.097 87.1938 111.422 87.5845 110.868C87.9832 110.307 88.2599 109.806 88.4146 109.367C88.5773 108.919 88.6587 108.463 88.6587 108C88.6587 107.414 88.5366 106.885 88.2925 106.413C88.0565 105.932 87.7065 105.55 87.2427 105.265C86.7788 104.98 86.2173 104.838 85.5581 104.838C84.7687 104.838 84.1095 104.993 83.5806 105.302C83.0597 105.603 82.6691 106.026 82.4087 106.571C82.1483 107.117 82.0181 107.743 82.0181 108.451H79.7598C79.7598 107.45 79.9795 106.535 80.4189 105.705C80.8584 104.875 81.5094 104.215 82.3721 103.727C83.2347 103.231 84.2967 102.982 85.5581 102.982C86.6812 102.982 87.6414 103.182 88.439 103.581C89.2365 103.971 89.8468 104.525 90.27 105.241C90.7013 105.949 90.917 106.779 90.917 107.731C90.917 108.252 90.8275 108.781 90.6484 109.318C90.4775 109.847 90.2375 110.376 89.9282 110.905C89.6271 111.434 89.2731 111.955 88.8662 112.467C88.4674 112.98 88.0402 113.485 87.5845 113.981L82.8237 119.145H91.7349ZM105.309 110.697V113.407C105.309 114.864 105.179 116.093 104.918 117.094C104.658 118.095 104.284 118.9 103.795 119.511C103.307 120.121 102.717 120.565 102.025 120.841C101.342 121.11 100.569 121.244 99.7061 121.244C99.0225 121.244 98.3918 121.159 97.814 120.988C97.2362 120.817 96.7153 120.544 96.2515 120.17C95.7957 119.787 95.4051 119.291 95.0796 118.681C94.7541 118.07 94.5059 117.33 94.335 116.459C94.1641 115.588 94.0786 114.571 94.0786 113.407V110.697C94.0786 109.241 94.2088 108.02 94.4692 107.035C94.7378 106.05 95.1162 105.261 95.6045 104.667C96.0928 104.065 96.6787 103.633 97.3623 103.373C98.054 103.113 98.8271 102.982 99.6816 102.982C100.373 102.982 101.008 103.068 101.586 103.239C102.172 103.402 102.693 103.666 103.148 104.032C103.604 104.39 103.991 104.87 104.308 105.473C104.634 106.067 104.882 106.795 105.053 107.658C105.224 108.52 105.309 109.534 105.309 110.697ZM103.039 113.773V110.319C103.039 109.521 102.99 108.821 102.892 108.219C102.803 107.609 102.668 107.088 102.489 106.657C102.31 106.225 102.082 105.875 101.806 105.607C101.537 105.338 101.224 105.143 100.866 105.021C100.516 104.891 100.121 104.826 99.6816 104.826C99.1445 104.826 98.6685 104.927 98.2534 105.131C97.8384 105.326 97.4884 105.639 97.2036 106.071C96.9269 106.502 96.7153 107.068 96.5688 107.768C96.4224 108.467 96.3491 109.318 96.3491 110.319V113.773C96.3491 114.571 96.3939 115.275 96.4834 115.885C96.5811 116.496 96.7235 117.025 96.9106 117.472C97.0978 117.912 97.3257 118.274 97.5942 118.559C97.8628 118.843 98.172 119.055 98.522 119.193C98.88 119.324 99.2747 119.389 99.7061 119.389C100.259 119.389 100.744 119.283 101.159 119.071C101.574 118.86 101.92 118.53 102.196 118.083C102.481 117.627 102.693 117.045 102.831 116.337C102.969 115.621 103.039 114.766 103.039 113.773Z" fill="black"/>
<rect width="314" height="35" transform="translate(125 95)" fill="#0AD3FF"/>
<path d="M257.198 112.15V118.656C256.978 118.982 256.628 119.348 256.148 119.755C255.668 120.154 255.005 120.504 254.158 120.805C253.32 121.098 252.238 121.244 250.911 121.244C249.829 121.244 248.832 121.057 247.92 120.683C247.017 120.3 246.232 119.747 245.564 119.022C244.905 118.29 244.393 117.403 244.026 116.361C243.668 115.312 243.489 114.123 243.489 112.797V111.417C243.489 110.091 243.644 108.907 243.953 107.865C244.271 106.824 244.734 105.941 245.345 105.216C245.955 104.484 246.704 103.931 247.591 103.556C248.478 103.174 249.495 102.982 250.643 102.982C252.002 102.982 253.137 103.218 254.048 103.69C254.968 104.154 255.684 104.797 256.197 105.619C256.718 106.441 257.051 107.377 257.198 108.427H254.842C254.736 107.784 254.524 107.198 254.207 106.669C253.898 106.14 253.454 105.717 252.876 105.399C252.299 105.074 251.554 104.911 250.643 104.911C249.821 104.911 249.109 105.062 248.506 105.363C247.904 105.664 247.408 106.095 247.017 106.657C246.626 107.218 246.333 107.898 246.138 108.695C245.951 109.493 245.857 110.392 245.857 111.393V112.797C245.857 113.822 245.975 114.738 246.211 115.543C246.456 116.349 246.801 117.037 247.249 117.606C247.697 118.168 248.23 118.595 248.848 118.888C249.475 119.181 250.167 119.328 250.923 119.328C251.762 119.328 252.441 119.258 252.962 119.12C253.483 118.974 253.89 118.803 254.183 118.607C254.476 118.404 254.699 118.213 254.854 118.034V114.054H250.74V112.15H257.198ZM263.021 109.867V121H260.762V107.792H262.959L263.021 109.867ZM267.146 107.719L267.134 109.818C266.947 109.778 266.768 109.753 266.597 109.745C266.434 109.729 266.247 109.721 266.036 109.721C265.515 109.721 265.055 109.802 264.656 109.965C264.257 110.128 263.92 110.355 263.643 110.648C263.366 110.941 263.147 111.291 262.984 111.698C262.829 112.097 262.728 112.536 262.679 113.017L262.044 113.383C262.044 112.585 262.121 111.837 262.276 111.137C262.439 110.437 262.687 109.818 263.021 109.281C263.354 108.736 263.777 108.313 264.29 108.012C264.811 107.702 265.429 107.548 266.146 107.548C266.308 107.548 266.495 107.568 266.707 107.609C266.919 107.641 267.065 107.678 267.146 107.719ZM271.688 107.792V121H269.417V107.792H271.688ZM269.246 104.289C269.246 103.922 269.356 103.613 269.576 103.361C269.804 103.109 270.137 102.982 270.577 102.982C271.008 102.982 271.338 103.109 271.565 103.361C271.801 103.613 271.919 103.922 271.919 104.289C271.919 104.639 271.801 104.94 271.565 105.192C271.338 105.436 271.008 105.558 270.577 105.558C270.137 105.558 269.804 105.436 269.576 105.192C269.356 104.94 269.246 104.639 269.246 104.289ZM283.638 118.437V102.25H285.909V121H283.833L283.638 118.437ZM274.751 114.542V114.286C274.751 113.277 274.874 112.361 275.118 111.54C275.37 110.709 275.724 109.997 276.18 109.403C276.644 108.809 277.193 108.354 277.828 108.036C278.471 107.711 279.187 107.548 279.976 107.548C280.806 107.548 281.53 107.694 282.149 107.987C282.776 108.272 283.305 108.691 283.736 109.245C284.175 109.79 284.521 110.449 284.773 111.222C285.026 111.995 285.201 112.87 285.298 113.847V114.97C285.209 115.938 285.034 116.809 284.773 117.582C284.521 118.355 284.175 119.014 283.736 119.56C283.305 120.105 282.776 120.524 282.149 120.817C281.522 121.102 280.79 121.244 279.952 121.244C279.179 121.244 278.471 121.077 277.828 120.744C277.193 120.41 276.644 119.942 276.18 119.34C275.724 118.738 275.37 118.03 275.118 117.216C274.874 116.394 274.751 115.503 274.751 114.542ZM277.022 114.286V114.542C277.022 115.202 277.087 115.82 277.217 116.398C277.356 116.976 277.567 117.484 277.852 117.924C278.137 118.363 278.499 118.709 278.938 118.961C279.378 119.206 279.903 119.328 280.513 119.328C281.262 119.328 281.876 119.169 282.356 118.852C282.845 118.534 283.235 118.115 283.528 117.594C283.821 117.073 284.049 116.508 284.212 115.897V112.956C284.114 112.508 283.972 112.077 283.785 111.662C283.606 111.238 283.37 110.864 283.077 110.539C282.792 110.205 282.438 109.94 282.015 109.745C281.6 109.55 281.107 109.452 280.538 109.452C279.919 109.452 279.386 109.582 278.938 109.843C278.499 110.095 278.137 110.445 277.852 110.893C277.567 111.332 277.356 111.845 277.217 112.431C277.087 113.008 277.022 113.627 277.022 114.286ZM294.124 112.516V114.372H288.167V112.516H294.124ZM307.295 116.19C307.295 117.273 307.043 118.192 306.539 118.949C306.042 119.698 305.367 120.268 304.512 120.658C303.666 121.049 302.71 121.244 301.644 121.244C300.577 121.244 299.617 121.049 298.763 120.658C297.908 120.268 297.233 119.698 296.736 118.949C296.24 118.192 295.992 117.273 295.992 116.19C295.992 115.482 296.126 114.835 296.395 114.25C296.671 113.655 297.058 113.139 297.554 112.699C298.059 112.26 298.653 111.922 299.336 111.686C300.028 111.442 300.789 111.32 301.619 111.32C302.71 111.32 303.682 111.531 304.537 111.955C305.391 112.37 306.062 112.943 306.551 113.676C307.047 114.408 307.295 115.246 307.295 116.19ZM305.025 116.142C305.025 115.482 304.882 114.901 304.598 114.396C304.313 113.883 303.914 113.485 303.401 113.2C302.889 112.915 302.295 112.772 301.619 112.772C300.927 112.772 300.329 112.915 299.825 113.2C299.328 113.485 298.942 113.883 298.665 114.396C298.388 114.901 298.25 115.482 298.25 116.142C298.25 116.825 298.384 117.411 298.653 117.899C298.93 118.38 299.32 118.75 299.825 119.01C300.337 119.263 300.944 119.389 301.644 119.389C302.343 119.389 302.946 119.263 303.45 119.01C303.955 118.75 304.341 118.38 304.61 117.899C304.887 117.411 305.025 116.825 305.025 116.142ZM306.88 107.853C306.88 108.716 306.653 109.493 306.197 110.185C305.741 110.876 305.118 111.422 304.329 111.82C303.54 112.219 302.645 112.418 301.644 112.418C300.626 112.418 299.719 112.219 298.921 111.82C298.132 111.422 297.514 110.876 297.066 110.185C296.618 109.493 296.395 108.716 296.395 107.853C296.395 106.819 296.618 105.941 297.066 105.216C297.522 104.492 298.144 103.939 298.934 103.556C299.723 103.174 300.622 102.982 301.631 102.982C302.649 102.982 303.552 103.174 304.341 103.556C305.131 103.939 305.749 104.492 306.197 105.216C306.653 105.941 306.88 106.819 306.88 107.853ZM304.622 107.89C304.622 107.296 304.496 106.771 304.244 106.315C303.991 105.859 303.641 105.501 303.194 105.241C302.746 104.972 302.225 104.838 301.631 104.838C301.037 104.838 300.516 104.964 300.069 105.216C299.629 105.46 299.284 105.81 299.031 106.266C298.787 106.722 298.665 107.263 298.665 107.89C298.665 108.5 298.787 109.033 299.031 109.489C299.284 109.944 299.633 110.299 300.081 110.551C300.529 110.803 301.049 110.929 301.644 110.929C302.238 110.929 302.754 110.803 303.194 110.551C303.641 110.299 303.991 109.944 304.244 109.489C304.496 109.033 304.622 108.5 304.622 107.89ZM321.309 110.697V113.407C321.309 114.864 321.179 116.093 320.918 117.094C320.658 118.095 320.284 118.9 319.795 119.511C319.307 120.121 318.717 120.565 318.025 120.841C317.342 121.11 316.569 121.244 315.706 121.244C315.022 121.244 314.392 121.159 313.814 120.988C313.236 120.817 312.715 120.544 312.251 120.17C311.796 119.787 311.405 119.291 311.08 118.681C310.754 118.07 310.506 117.33 310.335 116.459C310.164 115.588 310.079 114.571 310.079 113.407V110.697C310.079 109.241 310.209 108.02 310.469 107.035C310.738 106.05 311.116 105.261 311.604 104.667C312.093 104.065 312.679 103.633 313.362 103.373C314.054 103.113 314.827 102.982 315.682 102.982C316.373 102.982 317.008 103.068 317.586 103.239C318.172 103.402 318.693 103.666 319.148 104.032C319.604 104.39 319.991 104.87 320.308 105.473C320.634 106.067 320.882 106.795 321.053 107.658C321.224 108.52 321.309 109.534 321.309 110.697ZM319.039 113.773V110.319C319.039 109.521 318.99 108.821 318.892 108.219C318.803 107.609 318.668 107.088 318.489 106.657C318.31 106.225 318.082 105.875 317.806 105.607C317.537 105.338 317.224 105.143 316.866 105.021C316.516 104.891 316.121 104.826 315.682 104.826C315.145 104.826 314.668 104.927 314.253 105.131C313.838 105.326 313.488 105.639 313.204 106.071C312.927 106.502 312.715 107.068 312.569 107.768C312.422 108.467 312.349 109.318 312.349 110.319V113.773C312.349 114.571 312.394 115.275 312.483 115.885C312.581 116.496 312.723 117.025 312.911 117.472C313.098 117.912 313.326 118.274 313.594 118.559C313.863 118.843 314.172 119.055 314.522 119.193C314.88 119.324 315.275 119.389 315.706 119.389C316.259 119.389 316.744 119.283 317.159 119.071C317.574 118.86 317.92 118.53 318.196 118.083C318.481 117.627 318.693 117.045 318.831 116.337C318.969 115.621 319.039 114.766 319.039 113.773Z" fill="black"/>
<rect width="216" height="36" transform="translate(223 33)" fill="#0AD3FF"/>
<path d="M305.198 51.1499V57.6562C304.978 57.9818 304.628 58.348 304.148 58.7549C303.668 59.1536 303.005 59.5036 302.158 59.8047C301.32 60.0977 300.238 60.2441 298.911 60.2441C297.829 60.2441 296.832 60.057 295.92 59.6826C295.017 59.3001 294.232 58.7467 293.564 58.0225C292.905 57.29 292.393 56.403 292.026 55.3613C291.668 54.3115 291.489 53.1234 291.489 51.7969V50.4175C291.489 49.091 291.644 47.9069 291.953 46.8652C292.271 45.8236 292.734 44.9406 293.345 44.2163C293.955 43.4839 294.704 42.9305 295.591 42.5562C296.478 42.1737 297.495 41.9824 298.643 41.9824C300.002 41.9824 301.137 42.2184 302.048 42.6904C302.968 43.1543 303.684 43.7972 304.197 44.6191C304.718 45.4411 305.051 46.377 305.198 47.4268H302.842C302.736 46.7839 302.524 46.1979 302.207 45.6689C301.898 45.14 301.454 44.7168 300.876 44.3994C300.299 44.0739 299.554 43.9111 298.643 43.9111C297.821 43.9111 297.109 44.0617 296.506 44.3628C295.904 44.6639 295.408 45.0952 295.017 45.6567C294.626 46.2183 294.333 46.8978 294.138 47.6953C293.951 48.4928 293.857 49.3921 293.857 50.3931V51.7969C293.857 52.8223 293.975 53.7378 294.211 54.5435C294.456 55.3491 294.801 56.0368 295.249 56.6064C295.697 57.168 296.23 57.5952 296.848 57.8882C297.475 58.1812 298.167 58.3276 298.923 58.3276C299.762 58.3276 300.441 58.2585 300.962 58.1201C301.483 57.9736 301.89 57.8027 302.183 57.6074C302.476 57.404 302.699 57.2127 302.854 57.0337V53.0542H298.74V51.1499H305.198ZM311.021 48.8672V60H308.762V46.792H310.959L311.021 48.8672ZM315.146 46.7188L315.134 48.8184C314.947 48.7777 314.768 48.7533 314.597 48.7451C314.434 48.7288 314.247 48.7207 314.036 48.7207C313.515 48.7207 313.055 48.8021 312.656 48.9648C312.257 49.1276 311.92 49.3555 311.643 49.6484C311.366 49.9414 311.147 50.2913 310.984 50.6982C310.829 51.097 310.728 51.5365 310.679 52.0166L310.044 52.3828C310.044 51.5853 310.121 50.8366 310.276 50.1367C310.439 49.4368 310.687 48.8184 311.021 48.2812C311.354 47.736 311.777 47.3128 312.29 47.0117C312.811 46.7025 313.429 46.5479 314.146 46.5479C314.308 46.5479 314.495 46.5682 314.707 46.6089C314.919 46.6414 315.065 46.6781 315.146 46.7188ZM319.688 46.792V60H317.417V46.792H319.688ZM317.246 43.2886C317.246 42.9224 317.356 42.6131 317.576 42.3608C317.804 42.1086 318.137 41.9824 318.577 41.9824C319.008 41.9824 319.338 42.1086 319.565 42.3608C319.801 42.6131 319.919 42.9224 319.919 43.2886C319.919 43.6385 319.801 43.9396 319.565 44.1919C319.338 44.436 319.008 44.5581 318.577 44.5581C318.137 44.5581 317.804 44.436 317.576 44.1919C317.356 43.9396 317.246 43.6385 317.246 43.2886ZM331.638 57.4365V41.25H333.909V60H331.833L331.638 57.4365ZM322.751 53.5425V53.2861C322.751 52.277 322.874 51.3615 323.118 50.5396C323.37 49.7095 323.724 48.9974 324.18 48.4033C324.644 47.8092 325.193 47.3535 325.828 47.0361C326.471 46.7106 327.187 46.5479 327.976 46.5479C328.806 46.5479 329.53 46.6943 330.149 46.9873C330.776 47.2721 331.305 47.6912 331.736 48.2446C332.175 48.7899 332.521 49.4491 332.773 50.2222C333.026 50.9953 333.201 51.8701 333.298 52.8467V53.9697C333.209 54.9382 333.034 55.8089 332.773 56.582C332.521 57.3551 332.175 58.0143 331.736 58.5596C331.305 59.1048 330.776 59.5239 330.149 59.8169C329.522 60.1017 328.79 60.2441 327.952 60.2441C327.179 60.2441 326.471 60.0773 325.828 59.7437C325.193 59.41 324.644 58.9421 324.18 58.3398C323.724 57.7376 323.37 57.0296 323.118 56.2158C322.874 55.3939 322.751 54.5028 322.751 53.5425ZM325.022 53.2861V53.5425C325.022 54.2017 325.087 54.8201 325.217 55.3979C325.356 55.9757 325.567 56.4844 325.852 56.9238C326.137 57.3633 326.499 57.7091 326.938 57.9614C327.378 58.2056 327.903 58.3276 328.513 58.3276C329.262 58.3276 329.876 58.1689 330.356 57.8516C330.845 57.5342 331.235 57.1151 331.528 56.5942C331.821 56.0734 332.049 55.5078 332.212 54.8975V51.9556C332.114 51.508 331.972 51.0767 331.785 50.6616C331.606 50.2384 331.37 49.8641 331.077 49.5386C330.792 49.2049 330.438 48.9404 330.015 48.7451C329.6 48.5498 329.107 48.4521 328.538 48.4521C327.919 48.4521 327.386 48.5824 326.938 48.8428C326.499 49.0951 326.137 49.445 325.852 49.8926C325.567 50.332 325.356 50.8447 325.217 51.4307C325.087 52.0085 325.022 52.627 325.022 53.2861ZM342.124 51.5161V53.3716H336.167V51.5161H342.124ZM346.946 51.5405L345.139 51.0767L346.03 42.2266H355.149V44.314H347.947L347.41 49.1479C347.735 48.9608 348.146 48.7858 348.643 48.623C349.147 48.4603 349.725 48.3789 350.376 48.3789C351.198 48.3789 351.934 48.5213 352.585 48.8062C353.236 49.0828 353.79 49.4816 354.246 50.0024C354.709 50.5233 355.063 51.1499 355.308 51.8823C355.552 52.6147 355.674 53.4326 355.674 54.3359C355.674 55.1904 355.556 55.9757 355.32 56.6919C355.092 57.408 354.746 58.0347 354.282 58.5718C353.818 59.1007 353.232 59.5117 352.524 59.8047C351.825 60.0977 350.999 60.2441 350.046 60.2441C349.33 60.2441 348.651 60.1465 348.008 59.9512C347.373 59.7477 346.803 59.4425 346.299 59.0356C345.802 58.6206 345.396 58.1079 345.078 57.4976C344.769 56.8791 344.574 56.1548 344.492 55.3247H346.641C346.738 55.992 346.934 56.5535 347.227 57.0093C347.52 57.465 347.902 57.8109 348.374 58.0469C348.854 58.2747 349.412 58.3887 350.046 58.3887C350.583 58.3887 351.06 58.2951 351.475 58.1079C351.89 57.9207 352.24 57.6522 352.524 57.3022C352.809 56.9523 353.025 56.5291 353.171 56.0327C353.326 55.5363 353.403 54.9788 353.403 54.3604C353.403 53.7988 353.326 53.278 353.171 52.7979C353.017 52.3177 352.785 51.8986 352.476 51.5405C352.174 51.1825 351.804 50.9058 351.365 50.7104C350.925 50.507 350.421 50.4053 349.851 50.4053C349.094 50.4053 348.521 50.507 348.13 50.7104C347.747 50.9139 347.353 51.1906 346.946 51.5405ZM369.309 49.6973V52.4072C369.309 53.8639 369.179 55.0928 368.918 56.0938C368.658 57.0947 368.284 57.9004 367.795 58.5107C367.307 59.1211 366.717 59.5646 366.025 59.8413C365.342 60.1099 364.569 60.2441 363.706 60.2441C363.022 60.2441 362.392 60.1587 361.814 59.9878C361.236 59.8169 360.715 59.5443 360.251 59.1699C359.796 58.7874 359.405 58.291 359.08 57.6807C358.754 57.0703 358.506 56.3298 358.335 55.459C358.164 54.5882 358.079 53.571 358.079 52.4072V49.6973C358.079 48.2406 358.209 47.0199 358.469 46.0352C358.738 45.0505 359.116 44.2611 359.604 43.667C360.093 43.0648 360.679 42.6335 361.362 42.373C362.054 42.1126 362.827 41.9824 363.682 41.9824C364.373 41.9824 365.008 42.0679 365.586 42.2388C366.172 42.4015 366.693 42.666 367.148 43.0322C367.604 43.3903 367.991 43.8704 368.308 44.4727C368.634 45.0667 368.882 45.7951 369.053 46.6577C369.224 47.5203 369.309 48.5335 369.309 49.6973ZM367.039 52.7734V49.3188C367.039 48.5213 366.99 47.8215 366.892 47.2192C366.803 46.6089 366.668 46.0881 366.489 45.6567C366.31 45.2254 366.082 44.8755 365.806 44.6069C365.537 44.3384 365.224 44.1431 364.866 44.021C364.516 43.8908 364.121 43.8257 363.682 43.8257C363.145 43.8257 362.668 43.9274 362.253 44.1309C361.838 44.3262 361.488 44.6395 361.204 45.0708C360.927 45.5021 360.715 46.0677 360.569 46.7676C360.422 47.4674 360.349 48.3179 360.349 49.3188V52.7734C360.349 53.571 360.394 54.2749 360.483 54.8853C360.581 55.4956 360.723 56.0246 360.911 56.4722C361.098 56.9116 361.326 57.2738 361.594 57.5586C361.863 57.8434 362.172 58.055 362.522 58.1934C362.88 58.3236 363.275 58.3887 363.706 58.3887C364.259 58.3887 364.744 58.2829 365.159 58.0713C365.574 57.8597 365.92 57.5301 366.196 57.0825C366.481 56.6268 366.693 56.0449 366.831 55.3369C366.969 54.6208 367.039 53.7663 367.039 52.7734Z" fill="black"/>
</g>
<defs>
<filter id="filter0_d_9_2418" x="0" y="0" width="447" height="176" filterUnits="userSpaceOnUse" color-interpolation-filters="sRGB">
<feFlood flood-opacity="0" result="BackgroundImageFix"/>
<feColorMatrix in="SourceAlpha" type="matrix" values="0 0 0 0 0 0 0 0 0 0 0 0 0 0 0 0 0 0 127 0" result="hardAlpha"/>
<feOffset dy="4"/>
<feGaussianBlur stdDeviation="4"/>
<feComposite in2="hardAlpha" operator="out"/>
<feColorMatrix type="matrix" values="0 0 0 0 0 0 0 0 0 0 0 0 0 0 0 0 0 0 0.2 0"/>
<feBlend mode="normal" in2="BackgroundImageFix" result="effect1_dropShadow_9_2418"/>
<feBlend mode="normal" in="SourceGraphic" in2="effect1_dropShadow_9_2418" result="shape"/>
</filter>
</defs>
</svg>
