<svg width="313" height="123" viewBox="0 0 313 123" fill="none" xmlns="http://www.w3.org/2000/svg">
<g filter="url(#filter0_d_9_2498)">
<rect x="8" y="4" width="297" height="45" rx="4" fill="white"/>
<path d="M68.1367 20.6543H65.8574V19.7344H68.1367C68.5781 19.7344 68.9355 19.6641 69.209 19.5234C69.4824 19.3828 69.6816 19.1875 69.8066 18.9375C69.9355 18.6875 70 18.4023 70 18.082C70 17.7891 69.9355 17.5137 69.8066 17.2559C69.6816 16.998 69.4824 16.791 69.209 16.6348C68.9355 16.4746 68.5781 16.3945 68.1367 16.3945H66.1211V24H64.9902V15.4688H68.1367C68.7812 15.4688 69.3262 15.5801 69.7715 15.8027C70.2168 16.0254 70.5547 16.334 70.7852 16.7285C71.0156 17.1191 71.1309 17.5664 71.1309 18.0703C71.1309 18.6172 71.0156 19.084 70.7852 19.4707C70.5547 19.8574 70.2168 20.1523 69.7715 20.3555C69.3262 20.5547 68.7812 20.6543 68.1367 20.6543ZM74.9453 24.1172C74.5039 24.1172 74.1035 24.043 73.7441 23.8945C73.3887 23.7422 73.082 23.5293 72.8242 23.2559C72.5703 22.9824 72.375 22.6582 72.2383 22.2832C72.1016 21.9082 72.0332 21.498 72.0332 21.0527V20.8066C72.0332 20.291 72.1094 19.832 72.2617 19.4297C72.4141 19.0234 72.6211 18.6797 72.8828 18.3984C73.1445 18.1172 73.4414 17.9043 73.7734 17.7598C74.1055 17.6152 74.4492 17.543 74.8047 17.543C75.2578 17.543 75.6484 17.6211 75.9766 17.7773C76.3086 17.9336 76.5801 18.1523 76.791 18.4336C77.002 18.7109 77.1582 19.0391 77.2598 19.418C77.3613 19.793 77.4121 20.2031 77.4121 20.6484V21.1348H72.6777V20.25H76.3281V20.168C76.3125 19.8867 76.2539 19.6133 76.1523 19.3477C76.0547 19.082 75.8984 18.8633 75.6836 18.6914C75.4688 18.5195 75.1758 18.4336 74.8047 18.4336C74.5586 18.4336 74.332 18.4863 74.125 18.5918C73.918 18.6934 73.7402 18.8457 73.5918 19.0488C73.4434 19.252 73.3281 19.5 73.2461 19.793C73.1641 20.0859 73.123 20.4238 73.123 20.8066V21.0527C73.123 21.3535 73.1641 21.6367 73.2461 21.9023C73.332 22.1641 73.4551 22.3945 73.6152 22.5938C73.7793 22.793 73.9766 22.9492 74.207 23.0625C74.4414 23.1758 74.707 23.2324 75.0039 23.2324C75.3867 23.2324 75.7109 23.1543 75.9766 22.998C76.2422 22.8418 76.4746 22.6328 76.6738 22.3711L77.3301 22.8926C77.1934 23.0996 77.0195 23.2969 76.8086 23.4844C76.5977 23.6719 76.3379 23.8242 76.0293 23.9414C75.7246 24.0586 75.3633 24.1172 74.9453 24.1172ZM78.6719 15H79.7617V22.7695L79.668 24H78.6719V15ZM84.0449 20.7773V20.9004C84.0449 21.3613 83.9902 21.7891 83.8809 22.1836C83.7715 22.5742 83.6113 22.9141 83.4004 23.2031C83.1895 23.4922 82.9316 23.7168 82.627 23.877C82.3223 24.0371 81.9727 24.1172 81.5781 24.1172C81.1758 24.1172 80.8223 24.0488 80.5176 23.9121C80.2168 23.7715 79.9629 23.5703 79.7559 23.3086C79.5488 23.0469 79.3828 22.7305 79.2578 22.3594C79.1367 21.9883 79.0527 21.5703 79.0059 21.1055V20.5664C79.0527 20.0977 79.1367 19.6777 79.2578 19.3066C79.3828 18.9355 79.5488 18.6191 79.7559 18.3574C79.9629 18.0918 80.2168 17.8906 80.5176 17.7539C80.8184 17.6133 81.168 17.543 81.5664 17.543C81.9648 17.543 82.3184 17.6211 82.627 17.7773C82.9355 17.9297 83.1934 18.1484 83.4004 18.4336C83.6113 18.7188 83.7715 19.0605 83.8809 19.459C83.9902 19.8535 84.0449 20.293 84.0449 20.7773ZM82.9551 20.9004V20.7773C82.9551 20.4609 82.9258 20.1641 82.8672 19.8867C82.8086 19.6055 82.7148 19.3594 82.5859 19.1484C82.457 18.9336 82.2871 18.7656 82.0762 18.6445C81.8652 18.5195 81.6055 18.457 81.2969 18.457C81.0234 18.457 80.7852 18.5039 80.582 18.5977C80.3828 18.6914 80.2129 18.8184 80.0723 18.9785C79.9316 19.1348 79.8164 19.3145 79.7266 19.5176C79.6406 19.7168 79.5762 19.9238 79.5332 20.1387V21.5508C79.5957 21.8242 79.6973 22.0879 79.8379 22.3418C79.9824 22.5918 80.1738 22.7969 80.4121 22.957C80.6543 23.1172 80.9531 23.1973 81.3086 23.1973C81.6016 23.1973 81.8516 23.1387 82.0586 23.0215C82.2695 22.9004 82.4395 22.7344 82.5684 22.5234C82.7012 22.3125 82.7988 22.0684 82.8613 21.791C82.9238 21.5137 82.9551 21.2168 82.9551 20.9004ZM85.4102 15H86.5V22.7695L86.4062 24H85.4102V15ZM90.7832 20.7773V20.9004C90.7832 21.3613 90.7285 21.7891 90.6191 22.1836C90.5098 22.5742 90.3496 22.9141 90.1387 23.2031C89.9277 23.4922 89.6699 23.7168 89.3652 23.877C89.0605 24.0371 88.7109 24.1172 88.3164 24.1172C87.9141 24.1172 87.5605 24.0488 87.2559 23.9121C86.9551 23.7715 86.7012 23.5703 86.4941 23.3086C86.2871 23.0469 86.1211 22.7305 85.9961 22.3594C85.875 21.9883 85.791 21.5703 85.7441 21.1055V20.5664C85.791 20.0977 85.875 19.6777 85.9961 19.3066C86.1211 18.9355 86.2871 18.6191 86.4941 18.3574C86.7012 18.0918 86.9551 17.8906 87.2559 17.7539C87.5566 17.6133 87.9062 17.543 88.3047 17.543C88.7031 17.543 89.0566 17.6211 89.3652 17.7773C89.6738 17.9297 89.9316 18.1484 90.1387 18.4336C90.3496 18.7188 90.5098 19.0605 90.6191 19.459C90.7285 19.8535 90.7832 20.293 90.7832 20.7773ZM89.6934 20.9004V20.7773C89.6934 20.4609 89.6641 20.1641 89.6055 19.8867C89.5469 19.6055 89.4531 19.3594 89.3242 19.1484C89.1953 18.9336 89.0254 18.7656 88.8145 18.6445C88.6035 18.5195 88.3438 18.457 88.0352 18.457C87.7617 18.457 87.5234 18.5039 87.3203 18.5977C87.1211 18.6914 86.9512 18.8184 86.8105 18.9785C86.6699 19.1348 86.5547 19.3145 86.4648 19.5176C86.3789 19.7168 86.3145 19.9238 86.2715 20.1387V21.5508C86.334 21.8242 86.4355 22.0879 86.5762 22.3418C86.7207 22.5918 86.9121 22.7969 87.1504 22.957C87.3926 23.1172 87.6914 23.1973 88.0469 23.1973C88.3398 23.1973 88.5898 23.1387 88.7969 23.0215C89.0078 22.9004 89.1777 22.7344 89.3066 22.5234C89.4395 22.3125 89.5371 22.0684 89.5996 21.791C89.6621 21.5137 89.6934 21.2168 89.6934 20.9004ZM93.332 15V24H92.2422V15H93.332ZM97.7031 24.1172C97.2617 24.1172 96.8613 24.043 96.502 23.8945C96.1465 23.7422 95.8398 23.5293 95.582 23.2559C95.3281 22.9824 95.1328 22.6582 94.9961 22.2832C94.8594 21.9082 94.791 21.498 94.791 21.0527V20.8066C94.791 20.291 94.8672 19.832 95.0195 19.4297C95.1719 19.0234 95.3789 18.6797 95.6406 18.3984C95.9023 18.1172 96.1992 17.9043 96.5312 17.7598C96.8633 17.6152 97.207 17.543 97.5625 17.543C98.0156 17.543 98.4062 17.6211 98.7344 17.7773C99.0664 17.9336 99.3379 18.1523 99.5488 18.4336C99.7598 18.7109 99.916 19.0391 100.018 19.418C100.119 19.793 100.17 20.2031 100.17 20.6484V21.1348H95.4355V20.25H99.0859V20.168C99.0703 19.8867 99.0117 19.6133 98.9102 19.3477C98.8125 19.082 98.6562 18.8633 98.4414 18.6914C98.2266 18.5195 97.9336 18.4336 97.5625 18.4336C97.3164 18.4336 97.0898 18.4863 96.8828 18.5918C96.6758 18.6934 96.498 18.8457 96.3496 19.0488C96.2012 19.252 96.0859 19.5 96.0039 19.793C95.9219 20.0859 95.8809 20.4238 95.8809 20.8066V21.0527C95.8809 21.3535 95.9219 21.6367 96.0039 21.9023C96.0898 22.1641 96.2129 22.3945 96.373 22.5938C96.5371 22.793 96.7344 22.9492 96.9648 23.0625C97.1992 23.1758 97.4648 23.2324 97.7617 23.2324C98.1445 23.2324 98.4688 23.1543 98.7344 22.998C99 22.8418 99.2324 22.6328 99.4316 22.3711L100.088 22.8926C99.9512 23.0996 99.7773 23.2969 99.5664 23.4844C99.3555 23.6719 99.0957 23.8242 98.7871 23.9414C98.4824 24.0586 98.1211 24.1172 97.7031 24.1172ZM109.457 15.4688H110.582V21.2402C110.582 21.8809 110.439 22.4141 110.154 22.8398C109.869 23.2656 109.49 23.5859 109.018 23.8008C108.549 24.0117 108.039 24.1172 107.488 24.1172C106.91 24.1172 106.387 24.0117 105.918 23.8008C105.453 23.5859 105.084 23.2656 104.811 22.8398C104.541 22.4141 104.406 21.8809 104.406 21.2402V15.4688H105.525V21.2402C105.525 21.6855 105.607 22.0527 105.771 22.3418C105.936 22.6309 106.164 22.8457 106.457 22.9863C106.754 23.127 107.098 23.1973 107.488 23.1973C107.883 23.1973 108.227 23.127 108.52 22.9863C108.816 22.8457 109.047 22.6309 109.211 22.3418C109.375 22.0527 109.457 21.6855 109.457 21.2402V15.4688ZM113.57 15.4688V24H112.439V15.4688H113.57Z" fill="black"/>
<path d="M70.2939 31.8906V39H69.3467L65.7676 33.5166V39H64.8252V31.8906H65.7676L69.3613 37.3887V31.8906H70.2939ZM71.5879 36.417V36.3047C71.5879 35.9238 71.6432 35.5706 71.7539 35.2451C71.8646 34.9163 72.0241 34.6315 72.2324 34.3906C72.4408 34.1465 72.693 33.9577 72.9893 33.8242C73.2855 33.6875 73.6175 33.6191 73.9854 33.6191C74.3564 33.6191 74.6901 33.6875 74.9863 33.8242C75.2858 33.9577 75.5397 34.1465 75.748 34.3906C75.9596 34.6315 76.1208 34.9163 76.2314 35.2451C76.3421 35.5706 76.3975 35.9238 76.3975 36.3047V36.417C76.3975 36.7979 76.3421 37.151 76.2314 37.4766C76.1208 37.8021 75.9596 38.0869 75.748 38.3311C75.5397 38.5719 75.2874 38.7607 74.9912 38.8975C74.6982 39.0309 74.3662 39.0977 73.9951 39.0977C73.624 39.0977 73.2904 39.0309 72.9941 38.8975C72.6979 38.7607 72.444 38.5719 72.2324 38.3311C72.0241 38.0869 71.8646 37.8021 71.7539 37.4766C71.6432 37.151 71.5879 36.7979 71.5879 36.417ZM72.4912 36.3047V36.417C72.4912 36.6807 72.5221 36.9297 72.584 37.1641C72.6458 37.3952 72.7386 37.6003 72.8623 37.7793C72.9893 37.9583 73.1471 38.0999 73.3359 38.2041C73.5247 38.305 73.7445 38.3555 73.9951 38.3555C74.2425 38.3555 74.459 38.305 74.6445 38.2041C74.8333 38.0999 74.9896 37.9583 75.1133 37.7793C75.237 37.6003 75.3298 37.3952 75.3916 37.1641C75.4567 36.9297 75.4893 36.6807 75.4893 36.417V36.3047C75.4893 36.0443 75.4567 35.7985 75.3916 35.5674C75.3298 35.333 75.2354 35.1263 75.1084 34.9473C74.9847 34.765 74.8285 34.6217 74.6396 34.5176C74.4541 34.4134 74.236 34.3613 73.9854 34.3613C73.738 34.3613 73.5199 34.4134 73.3311 34.5176C73.1455 34.6217 72.9893 34.765 72.8623 34.9473C72.7386 35.1263 72.6458 35.333 72.584 35.5674C72.5221 35.7985 72.4912 36.0443 72.4912 36.3047ZM79.7422 33.7168V34.4102H76.8857V33.7168H79.7422ZM77.8525 32.4326H78.7559V37.6914C78.7559 37.8704 78.7835 38.0055 78.8389 38.0967C78.8942 38.1878 78.9658 38.248 79.0537 38.2773C79.1416 38.3066 79.236 38.3213 79.3369 38.3213C79.4118 38.3213 79.4899 38.3148 79.5713 38.3018C79.6559 38.2855 79.7194 38.2725 79.7617 38.2627L79.7666 39C79.695 39.0228 79.6006 39.0439 79.4834 39.0635C79.3695 39.0863 79.2311 39.0977 79.0684 39.0977C78.847 39.0977 78.6436 39.0537 78.458 38.9658C78.2725 38.8779 78.1243 38.7314 78.0137 38.5264C77.9062 38.318 77.8525 38.0381 77.8525 37.6865V32.4326ZM81.7832 33.7168V39H80.875V33.7168H81.7832ZM80.8066 32.3154C80.8066 32.1689 80.8506 32.0452 80.9385 31.9443C81.0296 31.8434 81.1631 31.793 81.3389 31.793C81.5114 31.793 81.6432 31.8434 81.7344 31.9443C81.8288 32.0452 81.876 32.1689 81.876 32.3154C81.876 32.4554 81.8288 32.5758 81.7344 32.6768C81.6432 32.7744 81.5114 32.8232 81.3389 32.8232C81.1631 32.8232 81.0296 32.7744 80.9385 32.6768C80.8506 32.5758 80.8066 32.4554 80.8066 32.3154ZM84.4395 39H83.5361V33.2578C83.5361 32.8574 83.6143 32.5189 83.7705 32.2422C83.9268 31.9655 84.1497 31.7555 84.4395 31.6123C84.7292 31.4691 85.0726 31.3975 85.4697 31.3975C85.7041 31.3975 85.9336 31.4268 86.1582 31.4854C86.3828 31.5407 86.6139 31.6107 86.8516 31.6953L86.7002 32.457C86.5505 32.3984 86.3763 32.3431 86.1777 32.291C85.9824 32.2357 85.7676 32.208 85.5332 32.208C85.1458 32.208 84.8659 32.2959 84.6934 32.4717C84.5241 32.6442 84.4395 32.9062 84.4395 33.2578V39ZM85.5186 33.7168V34.4102H82.7012V33.7168H85.5186ZM87.2959 33.7168V39H86.3926V33.7168H87.2959ZM90.8945 38.3555C91.1094 38.3555 91.3079 38.3115 91.4902 38.2236C91.6725 38.1357 91.8223 38.0153 91.9395 37.8623C92.0566 37.7061 92.1234 37.5286 92.1396 37.3301H92.999C92.9827 37.6426 92.877 37.9339 92.6816 38.2041C92.4896 38.471 92.2373 38.6875 91.9248 38.8535C91.6123 39.0163 91.2689 39.0977 90.8945 39.0977C90.4974 39.0977 90.1507 39.0277 89.8545 38.8877C89.5615 38.7477 89.3174 38.5557 89.1221 38.3115C88.93 38.0674 88.7852 37.7874 88.6875 37.4717C88.5931 37.1527 88.5459 36.8158 88.5459 36.4609V36.2559C88.5459 35.901 88.5931 35.5658 88.6875 35.25C88.7852 34.931 88.93 34.6494 89.1221 34.4053C89.3174 34.1611 89.5615 33.9691 89.8545 33.8291C90.1507 33.6891 90.4974 33.6191 90.8945 33.6191C91.3079 33.6191 91.6693 33.7038 91.9785 33.873C92.2878 34.0391 92.5303 34.2669 92.7061 34.5566C92.8851 34.8431 92.9827 35.1686 92.999 35.5332H92.1396C92.1234 35.3151 92.0615 35.1182 91.9541 34.9424C91.8499 34.7666 91.7067 34.6266 91.5244 34.5225C91.3454 34.415 91.1354 34.3613 90.8945 34.3613C90.6178 34.3613 90.3851 34.4167 90.1963 34.5273C90.0107 34.6348 89.8626 34.7812 89.752 34.9668C89.6445 35.1491 89.5664 35.3525 89.5176 35.5771C89.472 35.7985 89.4492 36.0247 89.4492 36.2559V36.4609C89.4492 36.6921 89.472 36.9199 89.5176 37.1445C89.5632 37.3691 89.6396 37.5726 89.7471 37.7549C89.8577 37.9372 90.0059 38.0837 90.1914 38.1943C90.3802 38.3018 90.6146 38.3555 90.8945 38.3555ZM97.1299 38.0967V35.377C97.1299 35.1686 97.0876 34.988 97.0029 34.835C96.9215 34.6787 96.7979 34.5583 96.6318 34.4736C96.4658 34.389 96.2607 34.3467 96.0166 34.3467C95.7887 34.3467 95.5885 34.3857 95.416 34.4639C95.2467 34.542 95.1133 34.6445 95.0156 34.7715C94.9212 34.8984 94.874 35.0352 94.874 35.1816H93.9707C93.9707 34.9928 94.0195 34.8057 94.1172 34.6201C94.2148 34.4346 94.3548 34.2669 94.5371 34.1172C94.7227 33.9642 94.944 33.8438 95.2012 33.7559C95.4616 33.6647 95.7513 33.6191 96.0703 33.6191C96.4544 33.6191 96.793 33.6842 97.0859 33.8145C97.3822 33.9447 97.6133 34.1416 97.7793 34.4053C97.9486 34.6657 98.0332 34.9928 98.0332 35.3867V37.8477C98.0332 38.0234 98.0479 38.2106 98.0771 38.4092C98.1097 38.6077 98.1569 38.7786 98.2188 38.9219V39H97.2764C97.2308 38.8958 97.195 38.7575 97.1689 38.585C97.1429 38.4092 97.1299 38.2464 97.1299 38.0967ZM97.2861 35.7969L97.2959 36.4316H96.3828C96.1257 36.4316 95.8962 36.4528 95.6943 36.4951C95.4925 36.5342 95.3232 36.5944 95.1865 36.6758C95.0498 36.7572 94.9456 36.8597 94.874 36.9834C94.8024 37.1038 94.7666 37.2454 94.7666 37.4082C94.7666 37.5742 94.804 37.7256 94.8789 37.8623C94.9538 37.999 95.0661 38.1081 95.2158 38.1895C95.3688 38.2676 95.556 38.3066 95.7773 38.3066C96.054 38.3066 96.2982 38.248 96.5098 38.1309C96.7214 38.0137 96.889 37.8704 97.0127 37.7012C97.1396 37.5319 97.208 37.3675 97.2178 37.208L97.6035 37.6426C97.5807 37.7793 97.5189 37.9307 97.418 38.0967C97.3171 38.2627 97.182 38.4222 97.0127 38.5752C96.8467 38.7249 96.6481 38.8503 96.417 38.9512C96.1891 39.0488 95.932 39.0977 95.6455 39.0977C95.2874 39.0977 94.9733 39.0277 94.7031 38.8877C94.4362 38.7477 94.2279 38.5605 94.0781 38.3262C93.9316 38.0885 93.8584 37.8232 93.8584 37.5303C93.8584 37.2471 93.9137 36.998 94.0244 36.7832C94.1351 36.5651 94.2946 36.3844 94.5029 36.2412C94.7113 36.0947 94.9619 35.984 95.2549 35.9092C95.5479 35.8343 95.875 35.7969 96.2363 35.7969H97.2861ZM101.666 33.7168V34.4102H98.8096V33.7168H101.666ZM99.7764 32.4326H100.68V37.6914C100.68 37.8704 100.707 38.0055 100.763 38.0967C100.818 38.1878 100.89 38.248 100.978 38.2773C101.065 38.3066 101.16 38.3213 101.261 38.3213C101.336 38.3213 101.414 38.3148 101.495 38.3018C101.58 38.2855 101.643 38.2725 101.686 38.2627L101.69 39C101.619 39.0228 101.524 39.0439 101.407 39.0635C101.293 39.0863 101.155 39.0977 100.992 39.0977C100.771 39.0977 100.567 39.0537 100.382 38.9658C100.196 38.8779 100.048 38.7314 99.9375 38.5264C99.8301 38.318 99.7764 38.0381 99.7764 37.6865V32.4326ZM103.707 33.7168V39H102.799V33.7168H103.707ZM102.73 32.3154C102.73 32.1689 102.774 32.0452 102.862 31.9443C102.953 31.8434 103.087 31.793 103.263 31.793C103.435 31.793 103.567 31.8434 103.658 31.9443C103.753 32.0452 103.8 32.1689 103.8 32.3154C103.8 32.4554 103.753 32.5758 103.658 32.6768C103.567 32.7744 103.435 32.8232 103.263 32.8232C103.087 32.8232 102.953 32.7744 102.862 32.6768C102.774 32.5758 102.73 32.4554 102.73 32.3154ZM104.918 36.417V36.3047C104.918 35.9238 104.973 35.5706 105.084 35.2451C105.195 34.9163 105.354 34.6315 105.562 34.3906C105.771 34.1465 106.023 33.9577 106.319 33.8242C106.616 33.6875 106.948 33.6191 107.315 33.6191C107.687 33.6191 108.02 33.6875 108.316 33.8242C108.616 33.9577 108.87 34.1465 109.078 34.3906C109.29 34.6315 109.451 34.9163 109.562 35.2451C109.672 35.5706 109.728 35.9238 109.728 36.3047V36.417C109.728 36.7979 109.672 37.151 109.562 37.4766C109.451 37.8021 109.29 38.0869 109.078 38.3311C108.87 38.5719 108.618 38.7607 108.321 38.8975C108.028 39.0309 107.696 39.0977 107.325 39.0977C106.954 39.0977 106.62 39.0309 106.324 38.8975C106.028 38.7607 105.774 38.5719 105.562 38.3311C105.354 38.0869 105.195 37.8021 105.084 37.4766C104.973 37.151 104.918 36.7979 104.918 36.417ZM105.821 36.3047V36.417C105.821 36.6807 105.852 36.9297 105.914 37.1641C105.976 37.3952 106.069 37.6003 106.192 37.7793C106.319 37.9583 106.477 38.0999 106.666 38.2041C106.855 38.305 107.075 38.3555 107.325 38.3555C107.573 38.3555 107.789 38.305 107.975 38.2041C108.163 38.0999 108.32 37.9583 108.443 37.7793C108.567 37.6003 108.66 37.3952 108.722 37.1641C108.787 36.9297 108.819 36.6807 108.819 36.417V36.3047C108.819 36.0443 108.787 35.7985 108.722 35.5674C108.66 35.333 108.565 35.1263 108.438 34.9473C108.315 34.765 108.159 34.6217 107.97 34.5176C107.784 34.4134 107.566 34.3613 107.315 34.3613C107.068 34.3613 106.85 34.4134 106.661 34.5176C106.476 34.6217 106.319 34.765 106.192 34.9473C106.069 35.1263 105.976 35.333 105.914 35.5674C105.852 35.7985 105.821 36.0443 105.821 36.3047ZM111.764 34.8447V39H110.86V33.7168H111.715L111.764 34.8447ZM111.549 36.1582L111.173 36.1436C111.176 35.7822 111.23 35.4486 111.334 35.1426C111.438 34.8333 111.585 34.5648 111.773 34.3369C111.962 34.109 112.187 33.9333 112.447 33.8096C112.711 33.6826 113.002 33.6191 113.321 33.6191C113.582 33.6191 113.816 33.6549 114.024 33.7266C114.233 33.7949 114.41 33.9056 114.557 34.0586C114.706 34.2116 114.82 34.4102 114.898 34.6543C114.977 34.8952 115.016 35.1898 115.016 35.5381V39H114.107V35.5283C114.107 35.2516 114.067 35.0303 113.985 34.8643C113.904 34.695 113.785 34.5729 113.629 34.498C113.473 34.4199 113.281 34.3809 113.053 34.3809C112.828 34.3809 112.623 34.4281 112.438 34.5225C112.255 34.6169 112.097 34.7471 111.964 34.9131C111.834 35.0791 111.731 35.2695 111.656 35.4844C111.585 35.696 111.549 35.9206 111.549 36.1582ZM119.767 34.7666V39H118.858V33.7168H119.718L119.767 34.7666ZM119.581 36.1582L119.161 36.1436C119.164 35.7822 119.212 35.4486 119.303 35.1426C119.394 34.8333 119.529 34.5648 119.708 34.3369C119.887 34.109 120.11 33.9333 120.377 33.8096C120.644 33.6826 120.953 33.6191 121.305 33.6191C121.552 33.6191 121.78 33.6549 121.988 33.7266C122.197 33.7949 122.377 33.904 122.53 34.0537C122.683 34.2035 122.802 34.3955 122.887 34.6299C122.971 34.8643 123.014 35.1475 123.014 35.4795V39H122.11V35.5234C122.11 35.2467 122.063 35.0254 121.969 34.8594C121.878 34.6934 121.747 34.5729 121.578 34.498C121.409 34.4199 121.21 34.3809 120.982 34.3809C120.715 34.3809 120.493 34.4281 120.313 34.5225C120.134 34.6169 119.991 34.7471 119.884 34.9131C119.776 35.0791 119.698 35.2695 119.649 35.4844C119.604 35.696 119.581 35.9206 119.581 36.1582ZM123.004 35.6602L122.398 35.8457C122.402 35.556 122.449 35.2777 122.54 35.0107C122.634 34.7438 122.77 34.5062 122.945 34.2979C123.124 34.0895 123.344 33.9251 123.604 33.8047C123.865 33.681 124.163 33.6191 124.498 33.6191C124.781 33.6191 125.032 33.6566 125.25 33.7314C125.471 33.8063 125.657 33.9219 125.807 34.0781C125.96 34.2311 126.075 34.4281 126.153 34.6689C126.231 34.9098 126.271 35.1963 126.271 35.5283V39H125.362V35.5186C125.362 35.2223 125.315 34.9928 125.221 34.8301C125.13 34.6641 124.999 34.5485 124.83 34.4834C124.664 34.415 124.465 34.3809 124.234 34.3809C124.036 34.3809 123.86 34.415 123.707 34.4834C123.554 34.5518 123.425 34.6462 123.321 34.7666C123.217 34.8838 123.137 35.0189 123.082 35.1719C123.03 35.3249 123.004 35.4876 123.004 35.6602ZM129.83 39.0977C129.462 39.0977 129.129 39.0358 128.829 38.9121C128.533 38.7852 128.277 38.6077 128.062 38.3799C127.851 38.152 127.688 37.8818 127.574 37.5693C127.46 37.2568 127.403 36.915 127.403 36.5439V36.3389C127.403 35.9092 127.467 35.5267 127.594 35.1914C127.721 34.8529 127.893 34.5664 128.111 34.332C128.329 34.0977 128.577 33.9202 128.854 33.7998C129.13 33.6794 129.417 33.6191 129.713 33.6191C130.09 33.6191 130.416 33.6842 130.689 33.8145C130.966 33.9447 131.192 34.127 131.368 34.3613C131.544 34.5924 131.674 34.8659 131.759 35.1816C131.843 35.4941 131.886 35.8359 131.886 36.207V36.6123H127.94V35.875H130.982V35.8066C130.969 35.5723 130.921 35.3444 130.836 35.123C130.755 34.9017 130.624 34.7194 130.445 34.5762C130.266 34.4329 130.022 34.3613 129.713 34.3613C129.508 34.3613 129.319 34.4053 129.146 34.4932C128.974 34.5778 128.826 34.7048 128.702 34.874C128.578 35.0433 128.482 35.25 128.414 35.4941C128.346 35.7383 128.312 36.0199 128.312 36.3389V36.5439C128.312 36.7946 128.346 37.0306 128.414 37.252C128.486 37.4701 128.588 37.6621 128.722 37.8281C128.858 37.9941 129.023 38.1243 129.215 38.2188C129.41 38.3132 129.632 38.3604 129.879 38.3604C130.198 38.3604 130.468 38.2952 130.689 38.165C130.911 38.0348 131.104 37.8607 131.271 37.6426L131.817 38.0771C131.703 38.2497 131.559 38.4141 131.383 38.5703C131.207 38.7266 130.991 38.8535 130.733 38.9512C130.479 39.0488 130.178 39.0977 129.83 39.0977ZM136.017 37.5986C136.017 37.4684 135.987 37.348 135.929 37.2373C135.873 37.1234 135.758 37.0208 135.582 36.9297C135.41 36.8353 135.149 36.7539 134.801 36.6855C134.508 36.6237 134.243 36.5505 134.005 36.4658C133.771 36.3812 133.57 36.2786 133.404 36.1582C133.242 36.0378 133.116 35.8962 133.028 35.7334C132.94 35.5706 132.896 35.3802 132.896 35.1621C132.896 34.9538 132.942 34.7568 133.033 34.5713C133.128 34.3857 133.259 34.2214 133.429 34.0781C133.601 33.9349 133.808 33.8226 134.049 33.7412C134.29 33.6598 134.558 33.6191 134.854 33.6191C135.278 33.6191 135.639 33.694 135.938 33.8438C136.238 33.9935 136.467 34.1937 136.627 34.4443C136.786 34.6917 136.866 34.9668 136.866 35.2695H135.963C135.963 35.123 135.919 34.9814 135.831 34.8447C135.746 34.7048 135.621 34.5892 135.455 34.498C135.292 34.4069 135.092 34.3613 134.854 34.3613C134.604 34.3613 134.4 34.4004 134.244 34.4785C134.091 34.5534 133.979 34.6494 133.907 34.7666C133.839 34.8838 133.805 35.0075 133.805 35.1377C133.805 35.2354 133.821 35.3232 133.854 35.4014C133.889 35.4762 133.951 35.5462 134.039 35.6113C134.127 35.6732 134.251 35.7318 134.41 35.7871C134.57 35.8424 134.773 35.8978 135.021 35.9531C135.453 36.0508 135.81 36.168 136.09 36.3047C136.37 36.4414 136.578 36.609 136.715 36.8076C136.852 37.0062 136.92 37.2471 136.92 37.5303C136.92 37.7614 136.871 37.973 136.773 38.165C136.679 38.3571 136.541 38.5231 136.358 38.6631C136.179 38.7998 135.965 38.9072 135.714 38.9854C135.466 39.0602 135.188 39.0977 134.879 39.0977C134.413 39.0977 134.02 39.0146 133.697 38.8486C133.375 38.6826 133.131 38.4678 132.965 38.2041C132.799 37.9404 132.716 37.6621 132.716 37.3691H133.624C133.637 37.6165 133.709 37.8135 133.839 37.96C133.969 38.1032 134.129 38.2057 134.317 38.2676C134.506 38.3262 134.693 38.3555 134.879 38.3555C135.126 38.3555 135.333 38.3229 135.499 38.2578C135.668 38.1927 135.797 38.1032 135.885 37.9893C135.973 37.8753 136.017 37.7451 136.017 37.5986ZM141.183 37.5986C141.183 37.4684 141.153 37.348 141.095 37.2373C141.039 37.1234 140.924 37.0208 140.748 36.9297C140.576 36.8353 140.315 36.7539 139.967 36.6855C139.674 36.6237 139.409 36.5505 139.171 36.4658C138.937 36.3812 138.736 36.2786 138.57 36.1582C138.408 36.0378 138.282 35.8962 138.194 35.7334C138.106 35.5706 138.062 35.3802 138.062 35.1621C138.062 34.9538 138.108 34.7568 138.199 34.5713C138.294 34.3857 138.425 34.2214 138.595 34.0781C138.767 33.9349 138.974 33.8226 139.215 33.7412C139.456 33.6598 139.724 33.6191 140.021 33.6191C140.444 33.6191 140.805 33.694 141.104 33.8438C141.404 33.9935 141.633 34.1937 141.793 34.4443C141.952 34.6917 142.032 34.9668 142.032 35.2695H141.129C141.129 35.123 141.085 34.9814 140.997 34.8447C140.912 34.7048 140.787 34.5892 140.621 34.498C140.458 34.4069 140.258 34.3613 140.021 34.3613C139.77 34.3613 139.566 34.4004 139.41 34.4785C139.257 34.5534 139.145 34.6494 139.073 34.7666C139.005 34.8838 138.971 35.0075 138.971 35.1377C138.971 35.2354 138.987 35.3232 139.02 35.4014C139.055 35.4762 139.117 35.5462 139.205 35.6113C139.293 35.6732 139.417 35.7318 139.576 35.7871C139.736 35.8424 139.939 35.8978 140.187 35.9531C140.619 36.0508 140.976 36.168 141.256 36.3047C141.536 36.4414 141.744 36.609 141.881 36.8076C142.018 37.0062 142.086 37.2471 142.086 37.5303C142.086 37.7614 142.037 37.973 141.939 38.165C141.845 38.3571 141.707 38.5231 141.524 38.6631C141.345 38.7998 141.131 38.9072 140.88 38.9854C140.632 39.0602 140.354 39.0977 140.045 39.0977C139.579 39.0977 139.186 39.0146 138.863 38.8486C138.541 38.6826 138.297 38.4678 138.131 38.2041C137.965 37.9404 137.882 37.6621 137.882 37.3691H138.79C138.803 37.6165 138.875 37.8135 139.005 37.96C139.135 38.1032 139.295 38.2057 139.483 38.2676C139.672 38.3262 139.859 38.3555 140.045 38.3555C140.292 38.3555 140.499 38.3229 140.665 38.2578C140.834 38.1927 140.963 38.1032 141.051 37.9893C141.139 37.8753 141.183 37.7451 141.183 37.5986ZM146.388 38.0967V35.377C146.388 35.1686 146.345 34.988 146.261 34.835C146.179 34.6787 146.056 34.5583 145.89 34.4736C145.724 34.389 145.519 34.3467 145.274 34.3467C145.047 34.3467 144.846 34.3857 144.674 34.4639C144.505 34.542 144.371 34.6445 144.273 34.7715C144.179 34.8984 144.132 35.0352 144.132 35.1816H143.229C143.229 34.9928 143.277 34.8057 143.375 34.6201C143.473 34.4346 143.613 34.2669 143.795 34.1172C143.98 33.9642 144.202 33.8438 144.459 33.7559C144.719 33.6647 145.009 33.6191 145.328 33.6191C145.712 33.6191 146.051 33.6842 146.344 33.8145C146.64 33.9447 146.871 34.1416 147.037 34.4053C147.206 34.6657 147.291 34.9928 147.291 35.3867V37.8477C147.291 38.0234 147.306 38.2106 147.335 38.4092C147.368 38.6077 147.415 38.7786 147.477 38.9219V39H146.534C146.489 38.8958 146.453 38.7575 146.427 38.585C146.401 38.4092 146.388 38.2464 146.388 38.0967ZM146.544 35.7969L146.554 36.4316H145.641C145.383 36.4316 145.154 36.4528 144.952 36.4951C144.75 36.5342 144.581 36.5944 144.444 36.6758C144.308 36.7572 144.203 36.8597 144.132 36.9834C144.06 37.1038 144.024 37.2454 144.024 37.4082C144.024 37.5742 144.062 37.7256 144.137 37.8623C144.212 37.999 144.324 38.1081 144.474 38.1895C144.627 38.2676 144.814 38.3066 145.035 38.3066C145.312 38.3066 145.556 38.248 145.768 38.1309C145.979 38.0137 146.147 37.8704 146.271 37.7012C146.397 37.5319 146.466 37.3675 146.476 37.208L146.861 37.6426C146.839 37.7793 146.777 37.9307 146.676 38.0967C146.575 38.2627 146.44 38.4222 146.271 38.5752C146.104 38.7249 145.906 38.8503 145.675 38.9512C145.447 39.0488 145.19 39.0977 144.903 39.0977C144.545 39.0977 144.231 39.0277 143.961 38.8877C143.694 38.7477 143.486 38.5605 143.336 38.3262C143.189 38.0885 143.116 37.8232 143.116 37.5303C143.116 37.2471 143.172 36.998 143.282 36.7832C143.393 36.5651 143.552 36.3844 143.761 36.2412C143.969 36.0947 144.22 35.984 144.513 35.9092C144.806 35.8343 145.133 35.7969 145.494 35.7969H146.544ZM152.135 33.7168H152.955V38.8877C152.955 39.3532 152.861 39.7503 152.672 40.0791C152.483 40.4079 152.219 40.6569 151.881 40.8262C151.546 40.9987 151.158 41.085 150.719 41.085C150.536 41.085 150.322 41.0557 150.074 40.9971C149.83 40.9417 149.589 40.8457 149.352 40.709C149.117 40.5755 148.92 40.3949 148.761 40.167L149.234 39.6299C149.456 39.8968 149.687 40.0824 149.928 40.1865C150.172 40.2907 150.413 40.3428 150.65 40.3428C150.937 40.3428 151.184 40.2891 151.393 40.1816C151.601 40.0742 151.762 39.9147 151.876 39.7031C151.993 39.4948 152.052 39.2376 152.052 38.9316V34.8789L152.135 33.7168ZM148.497 36.417V36.3145C148.497 35.9108 148.544 35.5446 148.639 35.2158C148.736 34.8838 148.875 34.599 149.054 34.3613C149.236 34.1237 149.456 33.9414 149.713 33.8145C149.97 33.6842 150.26 33.6191 150.582 33.6191C150.914 33.6191 151.204 33.6777 151.451 33.7949C151.702 33.9089 151.913 34.0765 152.086 34.2979C152.262 34.516 152.4 34.7796 152.501 35.0889C152.602 35.3981 152.672 35.748 152.711 36.1387V36.5879C152.675 36.9753 152.605 37.3236 152.501 37.6328C152.4 37.9421 152.262 38.2057 152.086 38.4238C151.913 38.6419 151.702 38.8096 151.451 38.9268C151.201 39.0407 150.908 39.0977 150.572 39.0977C150.257 39.0977 149.97 39.0309 149.713 38.8975C149.459 38.764 149.241 38.5768 149.059 38.3359C148.876 38.0951 148.736 37.8118 148.639 37.4863C148.544 37.1576 148.497 36.8011 148.497 36.417ZM149.4 36.3145V36.417C149.4 36.6807 149.426 36.9281 149.479 37.1592C149.534 37.3903 149.617 37.5938 149.728 37.7695C149.841 37.9453 149.986 38.0837 150.162 38.1846C150.338 38.2822 150.548 38.3311 150.792 38.3311C151.091 38.3311 151.339 38.2676 151.534 38.1406C151.729 38.0137 151.884 37.846 151.998 37.6377C152.115 37.4294 152.206 37.2031 152.271 36.959V35.7822C152.236 35.6032 152.18 35.4307 152.105 35.2646C152.034 35.0954 151.939 34.9456 151.822 34.8154C151.708 34.682 151.567 34.5762 151.397 34.498C151.228 34.4199 151.03 34.3809 150.802 34.3809C150.554 34.3809 150.341 34.4329 150.162 34.5371C149.986 34.638 149.841 34.778 149.728 34.957C149.617 35.1328 149.534 35.3379 149.479 35.5723C149.426 35.8034 149.4 36.0508 149.4 36.3145ZM156.52 39.0977C156.152 39.0977 155.818 39.0358 155.519 38.9121C155.222 38.7852 154.967 38.6077 154.752 38.3799C154.54 38.152 154.378 37.8818 154.264 37.5693C154.15 37.2568 154.093 36.915 154.093 36.5439V36.3389C154.093 35.9092 154.156 35.5267 154.283 35.1914C154.41 34.8529 154.583 34.5664 154.801 34.332C155.019 34.0977 155.266 33.9202 155.543 33.7998C155.82 33.6794 156.106 33.6191 156.402 33.6191C156.78 33.6191 157.105 33.6842 157.379 33.8145C157.656 33.9447 157.882 34.127 158.058 34.3613C158.233 34.5924 158.364 34.8659 158.448 35.1816C158.533 35.4941 158.575 35.8359 158.575 36.207V36.6123H154.63V35.875H157.672V35.8066C157.659 35.5723 157.61 35.3444 157.525 35.123C157.444 34.9017 157.314 34.7194 157.135 34.5762C156.956 34.4329 156.712 34.3613 156.402 34.3613C156.197 34.3613 156.008 34.4053 155.836 34.4932C155.663 34.5778 155.515 34.7048 155.392 34.874C155.268 35.0433 155.172 35.25 155.104 35.4941C155.035 35.7383 155.001 36.0199 155.001 36.3389V36.5439C155.001 36.7946 155.035 37.0306 155.104 37.252C155.175 37.4701 155.278 37.6621 155.411 37.8281C155.548 37.9941 155.712 38.1243 155.904 38.2188C156.1 38.3132 156.321 38.3604 156.568 38.3604C156.887 38.3604 157.158 38.2952 157.379 38.165C157.6 38.0348 157.794 37.8607 157.96 37.6426L158.507 38.0771C158.393 38.2497 158.248 38.4141 158.072 38.5703C157.896 38.7266 157.68 38.8535 157.423 38.9512C157.169 39.0488 156.868 39.0977 156.52 39.0977ZM163.092 33.7168V39H162.184V33.7168H163.092ZM162.115 32.3154C162.115 32.1689 162.159 32.0452 162.247 31.9443C162.338 31.8434 162.472 31.793 162.647 31.793C162.82 31.793 162.952 31.8434 163.043 31.9443C163.137 32.0452 163.185 32.1689 163.185 32.3154C163.185 32.4554 163.137 32.5758 163.043 32.6768C162.952 32.7744 162.82 32.8232 162.647 32.8232C162.472 32.8232 162.338 32.7744 162.247 32.6768C162.159 32.5758 162.115 32.4554 162.115 32.3154ZM165.445 34.8447V39H164.542V33.7168H165.396L165.445 34.8447ZM165.23 36.1582L164.854 36.1436C164.858 35.7822 164.911 35.4486 165.016 35.1426C165.12 34.8333 165.266 34.5648 165.455 34.3369C165.644 34.109 165.868 33.9333 166.129 33.8096C166.393 33.6826 166.684 33.6191 167.003 33.6191C167.263 33.6191 167.498 33.6549 167.706 33.7266C167.914 33.7949 168.092 33.9056 168.238 34.0586C168.388 34.2116 168.502 34.4102 168.58 34.6543C168.658 34.8952 168.697 35.1898 168.697 35.5381V39H167.789V35.5283C167.789 35.2516 167.748 35.0303 167.667 34.8643C167.586 34.695 167.467 34.5729 167.311 34.498C167.154 34.4199 166.962 34.3809 166.734 34.3809C166.51 34.3809 166.305 34.4281 166.119 34.5225C165.937 34.6169 165.779 34.7471 165.646 34.9131C165.515 35.0791 165.413 35.2695 165.338 35.4844C165.266 35.696 165.23 35.9206 165.23 36.1582ZM175.626 37.5986C175.626 37.4684 175.597 37.348 175.538 37.2373C175.483 37.1234 175.367 37.0208 175.191 36.9297C175.019 36.8353 174.758 36.7539 174.41 36.6855C174.117 36.6237 173.852 36.5505 173.614 36.4658C173.38 36.3812 173.18 36.2786 173.014 36.1582C172.851 36.0378 172.726 35.8962 172.638 35.7334C172.55 35.5706 172.506 35.3802 172.506 35.1621C172.506 34.9538 172.551 34.7568 172.643 34.5713C172.737 34.3857 172.869 34.2214 173.038 34.0781C173.211 33.9349 173.417 33.8226 173.658 33.7412C173.899 33.6598 174.168 33.6191 174.464 33.6191C174.887 33.6191 175.248 33.694 175.548 33.8438C175.847 33.9935 176.077 34.1937 176.236 34.4443C176.396 34.6917 176.476 34.9668 176.476 35.2695H175.572C175.572 35.123 175.528 34.9814 175.44 34.8447C175.356 34.7048 175.23 34.5892 175.064 34.498C174.902 34.4069 174.701 34.3613 174.464 34.3613C174.213 34.3613 174.01 34.4004 173.854 34.4785C173.701 34.5534 173.588 34.6494 173.517 34.7666C173.448 34.8838 173.414 35.0075 173.414 35.1377C173.414 35.2354 173.43 35.3232 173.463 35.4014C173.499 35.4762 173.561 35.5462 173.648 35.6113C173.736 35.6732 173.86 35.7318 174.02 35.7871C174.179 35.8424 174.382 35.8978 174.63 35.9531C175.063 36.0508 175.419 36.168 175.699 36.3047C175.979 36.4414 176.188 36.609 176.324 36.8076C176.461 37.0062 176.529 37.2471 176.529 37.5303C176.529 37.7614 176.48 37.973 176.383 38.165C176.288 38.3571 176.15 38.5231 175.968 38.6631C175.789 38.7998 175.574 38.9072 175.323 38.9854C175.076 39.0602 174.798 39.0977 174.488 39.0977C174.023 39.0977 173.629 39.0146 173.307 38.8486C172.984 38.6826 172.74 38.4678 172.574 38.2041C172.408 37.9404 172.325 37.6621 172.325 37.3691H173.233C173.246 37.6165 173.318 37.8135 173.448 37.96C173.578 38.1032 173.738 38.2057 173.927 38.2676C174.116 38.3262 174.303 38.3555 174.488 38.3555C174.736 38.3555 174.942 38.3229 175.108 38.2578C175.278 38.1927 175.406 38.1032 175.494 37.9893C175.582 37.8753 175.626 37.7451 175.626 37.5986ZM178.619 31.5V39H177.716V31.5H178.619ZM178.404 36.1582L178.028 36.1436C178.032 35.7822 178.085 35.4486 178.189 35.1426C178.294 34.8333 178.44 34.5648 178.629 34.3369C178.818 34.109 179.042 33.9333 179.303 33.8096C179.566 33.6826 179.858 33.6191 180.177 33.6191C180.437 33.6191 180.672 33.6549 180.88 33.7266C181.088 33.7949 181.266 33.9056 181.412 34.0586C181.562 34.2116 181.676 34.4102 181.754 34.6543C181.832 34.8952 181.871 35.1898 181.871 35.5381V39H180.963V35.5283C180.963 35.2516 180.922 35.0303 180.841 34.8643C180.759 34.695 180.641 34.5729 180.484 34.498C180.328 34.4199 180.136 34.3809 179.908 34.3809C179.684 34.3809 179.479 34.4281 179.293 34.5225C179.111 34.6169 178.953 34.7471 178.819 34.9131C178.689 35.0791 178.587 35.2695 178.512 35.4844C178.44 35.696 178.404 35.9206 178.404 36.1582ZM182.984 36.417V36.3047C182.984 35.9238 183.04 35.5706 183.15 35.2451C183.261 34.9163 183.421 34.6315 183.629 34.3906C183.837 34.1465 184.09 33.9577 184.386 33.8242C184.682 33.6875 185.014 33.6191 185.382 33.6191C185.753 33.6191 186.087 33.6875 186.383 33.8242C186.682 33.9577 186.936 34.1465 187.145 34.3906C187.356 34.6315 187.517 34.9163 187.628 35.2451C187.739 35.5706 187.794 35.9238 187.794 36.3047V36.417C187.794 36.7979 187.739 37.151 187.628 37.4766C187.517 37.8021 187.356 38.0869 187.145 38.3311C186.936 38.5719 186.684 38.7607 186.388 38.8975C186.095 39.0309 185.763 39.0977 185.392 39.0977C185.021 39.0977 184.687 39.0309 184.391 38.8975C184.094 38.7607 183.84 38.5719 183.629 38.3311C183.421 38.0869 183.261 37.8021 183.15 37.4766C183.04 37.151 182.984 36.7979 182.984 36.417ZM183.888 36.3047V36.417C183.888 36.6807 183.919 36.9297 183.98 37.1641C184.042 37.3952 184.135 37.6003 184.259 37.7793C184.386 37.9583 184.544 38.0999 184.732 38.2041C184.921 38.305 185.141 38.3555 185.392 38.3555C185.639 38.3555 185.855 38.305 186.041 38.2041C186.23 38.0999 186.386 37.9583 186.51 37.7793C186.633 37.6003 186.726 37.3952 186.788 37.1641C186.853 36.9297 186.886 36.6807 186.886 36.417V36.3047C186.886 36.0443 186.853 35.7985 186.788 35.5674C186.726 35.333 186.632 35.1263 186.505 34.9473C186.381 34.765 186.225 34.6217 186.036 34.5176C185.851 34.4134 185.632 34.3613 185.382 34.3613C185.134 34.3613 184.916 34.4134 184.728 34.5176C184.542 34.6217 184.386 34.765 184.259 34.9473C184.135 35.1263 184.042 35.333 183.98 35.5674C183.919 35.7985 183.888 36.0443 183.888 36.3047ZM189.83 34.5469V39H188.927V33.7168H189.806L189.83 34.5469ZM191.48 33.6875L191.476 34.5273C191.401 34.5111 191.329 34.5013 191.261 34.498C191.196 34.4915 191.121 34.4883 191.036 34.4883C190.828 34.4883 190.644 34.5208 190.484 34.5859C190.325 34.651 190.19 34.7422 190.079 34.8594C189.968 34.9766 189.881 35.1165 189.815 35.2793C189.754 35.4388 189.713 35.6146 189.693 35.8066L189.439 35.9531C189.439 35.6341 189.47 35.3346 189.532 35.0547C189.597 34.7747 189.697 34.5273 189.83 34.3125C189.964 34.0944 190.133 33.9251 190.338 33.8047C190.546 33.681 190.794 33.6191 191.08 33.6191C191.145 33.6191 191.22 33.6273 191.305 33.6436C191.389 33.6566 191.448 33.6712 191.48 33.6875ZM194.771 33.7168V34.4102H191.915V33.7168H194.771ZM192.882 32.4326H193.785V37.6914C193.785 37.8704 193.813 38.0055 193.868 38.0967C193.924 38.1878 193.995 38.248 194.083 38.2773C194.171 38.3066 194.265 38.3213 194.366 38.3213C194.441 38.3213 194.519 38.3148 194.601 38.3018C194.685 38.2855 194.749 38.2725 194.791 38.2627L194.796 39C194.724 39.0228 194.63 39.0439 194.513 39.0635C194.399 39.0863 194.26 39.0977 194.098 39.0977C193.876 39.0977 193.673 39.0537 193.487 38.9658C193.302 38.8779 193.154 38.7314 193.043 38.5264C192.936 38.318 192.882 38.0381 192.882 37.6865V32.4326ZM201.642 37.9746V31.5H202.55V39H201.72L201.642 37.9746ZM198.087 36.417V36.3145C198.087 35.9108 198.136 35.5446 198.233 35.2158C198.334 34.8838 198.476 34.599 198.658 34.3613C198.844 34.1237 199.063 33.9414 199.317 33.8145C199.575 33.6842 199.861 33.6191 200.177 33.6191C200.509 33.6191 200.799 33.6777 201.046 33.7949C201.297 33.9089 201.508 34.0765 201.681 34.2979C201.856 34.516 201.995 34.7796 202.096 35.0889C202.197 35.3981 202.267 35.748 202.306 36.1387V36.5879C202.27 36.9753 202.2 37.3236 202.096 37.6328C201.995 37.9421 201.856 38.2057 201.681 38.4238C201.508 38.6419 201.297 38.8096 201.046 38.9268C200.795 39.0407 200.502 39.0977 200.167 39.0977C199.858 39.0977 199.575 39.0309 199.317 38.8975C199.063 38.764 198.844 38.5768 198.658 38.3359C198.476 38.0951 198.334 37.8118 198.233 37.4863C198.136 37.1576 198.087 36.8011 198.087 36.417ZM198.995 36.3145V36.417C198.995 36.6807 199.021 36.9281 199.073 37.1592C199.129 37.3903 199.213 37.5938 199.327 37.7695C199.441 37.9453 199.586 38.0837 199.762 38.1846C199.938 38.2822 200.147 38.3311 200.392 38.3311C200.691 38.3311 200.937 38.2676 201.129 38.1406C201.324 38.0137 201.48 37.846 201.598 37.6377C201.715 37.4294 201.806 37.2031 201.871 36.959V35.7822C201.832 35.6032 201.775 35.4307 201.7 35.2646C201.629 35.0954 201.534 34.9456 201.417 34.8154C201.303 34.682 201.161 34.5762 200.992 34.498C200.826 34.4199 200.629 34.3809 200.401 34.3809C200.154 34.3809 199.941 34.4329 199.762 34.5371C199.586 34.638 199.441 34.778 199.327 34.957C199.213 35.1328 199.129 35.3379 199.073 35.5723C199.021 35.8034 198.995 36.0508 198.995 36.3145ZM206.148 39.0977C205.781 39.0977 205.447 39.0358 205.147 38.9121C204.851 38.7852 204.596 38.6077 204.381 38.3799C204.169 38.152 204.007 37.8818 203.893 37.5693C203.779 37.2568 203.722 36.915 203.722 36.5439V36.3389C203.722 35.9092 203.785 35.5267 203.912 35.1914C204.039 34.8529 204.212 34.5664 204.43 34.332C204.648 34.0977 204.895 33.9202 205.172 33.7998C205.449 33.6794 205.735 33.6191 206.031 33.6191C206.409 33.6191 206.734 33.6842 207.008 33.8145C207.285 33.9447 207.511 34.127 207.687 34.3613C207.862 34.5924 207.993 34.8659 208.077 35.1816C208.162 35.4941 208.204 35.8359 208.204 36.207V36.6123H204.259V35.875H207.301V35.8066C207.288 35.5723 207.239 35.3444 207.154 35.123C207.073 34.9017 206.943 34.7194 206.764 34.5762C206.585 34.4329 206.34 34.3613 206.031 34.3613C205.826 34.3613 205.637 34.4053 205.465 34.4932C205.292 34.5778 205.144 34.7048 205.021 34.874C204.897 35.0433 204.801 35.25 204.732 35.4941C204.664 35.7383 204.63 36.0199 204.63 36.3389V36.5439C204.63 36.7946 204.664 37.0306 204.732 37.252C204.804 37.4701 204.907 37.6621 205.04 37.8281C205.177 37.9941 205.341 38.1243 205.533 38.2188C205.729 38.3132 205.95 38.3604 206.197 38.3604C206.516 38.3604 206.786 38.2952 207.008 38.165C207.229 38.0348 207.423 37.8607 207.589 37.6426L208.136 38.0771C208.022 38.2497 207.877 38.4141 207.701 38.5703C207.525 38.7266 207.309 38.8535 207.052 38.9512C206.798 39.0488 206.497 39.0977 206.148 39.0977ZM211.471 33.7168V34.4102H208.614V33.7168H211.471ZM209.581 32.4326H210.484V37.6914C210.484 37.8704 210.512 38.0055 210.567 38.0967C210.623 38.1878 210.694 38.248 210.782 38.2773C210.87 38.3066 210.965 38.3213 211.065 38.3213C211.14 38.3213 211.218 38.3148 211.3 38.3018C211.384 38.2855 211.448 38.2725 211.49 38.2627L211.495 39C211.424 39.0228 211.329 39.0439 211.212 39.0635C211.098 39.0863 210.96 39.0977 210.797 39.0977C210.576 39.0977 210.372 39.0537 210.187 38.9658C210.001 38.8779 209.853 38.7314 209.742 38.5264C209.635 38.318 209.581 38.0381 209.581 37.6865V32.4326ZM215.646 38.0967V35.377C215.646 35.1686 215.603 34.988 215.519 34.835C215.437 34.6787 215.313 34.5583 215.147 34.4736C214.981 34.389 214.776 34.3467 214.532 34.3467C214.304 34.3467 214.104 34.3857 213.932 34.4639C213.762 34.542 213.629 34.6445 213.531 34.7715C213.437 34.8984 213.39 35.0352 213.39 35.1816H212.486C212.486 34.9928 212.535 34.8057 212.633 34.6201C212.73 34.4346 212.87 34.2669 213.053 34.1172C213.238 33.9642 213.46 33.8438 213.717 33.7559C213.977 33.6647 214.267 33.6191 214.586 33.6191C214.97 33.6191 215.309 33.6842 215.602 33.8145C215.898 33.9447 216.129 34.1416 216.295 34.4053C216.464 34.6657 216.549 34.9928 216.549 35.3867V37.8477C216.549 38.0234 216.563 38.2106 216.593 38.4092C216.625 38.6077 216.673 38.7786 216.734 38.9219V39H215.792C215.746 38.8958 215.711 38.7575 215.685 38.585C215.659 38.4092 215.646 38.2464 215.646 38.0967ZM215.802 35.7969L215.812 36.4316H214.898C214.641 36.4316 214.412 36.4528 214.21 36.4951C214.008 36.5342 213.839 36.5944 213.702 36.6758C213.565 36.7572 213.461 36.8597 213.39 36.9834C213.318 37.1038 213.282 37.2454 213.282 37.4082C213.282 37.5742 213.32 37.7256 213.395 37.8623C213.469 37.999 213.582 38.1081 213.731 38.1895C213.884 38.2676 214.072 38.3066 214.293 38.3066C214.57 38.3066 214.814 38.248 215.025 38.1309C215.237 38.0137 215.405 37.8704 215.528 37.7012C215.655 37.5319 215.724 37.3675 215.733 37.208L216.119 37.6426C216.096 37.7793 216.035 37.9307 215.934 38.0967C215.833 38.2627 215.698 38.4222 215.528 38.5752C215.362 38.7249 215.164 38.8503 214.933 38.9512C214.705 39.0488 214.448 39.0977 214.161 39.0977C213.803 39.0977 213.489 39.0277 213.219 38.8877C212.952 38.7477 212.743 38.5605 212.594 38.3262C212.447 38.0885 212.374 37.8232 212.374 37.5303C212.374 37.2471 212.429 36.998 212.54 36.7832C212.651 36.5651 212.81 36.3844 213.019 36.2412C213.227 36.0947 213.478 35.984 213.771 35.9092C214.063 35.8343 214.391 35.7969 214.752 35.7969H215.802ZM218.951 33.7168V39H218.043V33.7168H218.951ZM217.975 32.3154C217.975 32.1689 218.019 32.0452 218.106 31.9443C218.198 31.8434 218.331 31.793 218.507 31.793C218.679 31.793 218.811 31.8434 218.902 31.9443C218.997 32.0452 219.044 32.1689 219.044 32.3154C219.044 32.4554 218.997 32.5758 218.902 32.6768C218.811 32.7744 218.679 32.8232 218.507 32.8232C218.331 32.8232 218.198 32.7744 218.106 32.6768C218.019 32.5758 217.975 32.4554 217.975 32.3154ZM221.383 31.5V39H220.475V31.5H221.383Z" fill="#474747"/>
<path fill-rule="evenodd" clip-rule="evenodd" d="M28.0293 37.7488C28.4122 32.8532 32.5061 29 37.5 29C42.2113 29 46.1216 32.4295 46.8706 36.9283C49.4211 34.3926 51 30.8807 51 27C51 19.268 44.732 13 37 13C29.268 13 23 19.268 23 27C23 31.3187 24.9555 35.1806 28.0293 37.7488ZM43 22.5C43 25.5376 40.5376 28 37.5 28C34.4624 28 32 25.5376 32 22.5C32 19.4624 34.4624 17 37.5 17C40.5376 17 43 19.4624 43 22.5Z" fill="#414141"/>
<path d="M264.99 22.4688H267.814C268.455 22.4688 268.996 22.5664 269.438 22.7617C269.883 22.957 270.221 23.2461 270.451 23.6289C270.686 24.0078 270.803 24.4746 270.803 25.0293C270.803 25.4199 270.723 25.7773 270.562 26.1016C270.406 26.4219 270.18 26.6953 269.883 26.9219C269.59 27.1445 269.238 27.3105 268.828 27.4199L268.512 27.543H265.857L265.846 26.623H267.85C268.256 26.623 268.594 26.5527 268.863 26.4121C269.133 26.2676 269.336 26.0742 269.473 25.832C269.609 25.5898 269.678 25.3223 269.678 25.0293C269.678 24.7012 269.613 24.4141 269.484 24.168C269.355 23.9219 269.152 23.7324 268.875 23.5996C268.602 23.4629 268.248 23.3945 267.814 23.3945H266.121V31H264.99V22.4688ZM269.977 31L267.902 27.1328L269.08 27.127L271.184 30.9297V31H269.977ZM274.852 31.1172C274.41 31.1172 274.01 31.043 273.65 30.8945C273.295 30.7422 272.988 30.5293 272.73 30.2559C272.477 29.9824 272.281 29.6582 272.145 29.2832C272.008 28.9082 271.939 28.498 271.939 28.0527V27.8066C271.939 27.291 272.016 26.832 272.168 26.4297C272.32 26.0234 272.527 25.6797 272.789 25.3984C273.051 25.1172 273.348 24.9043 273.68 24.7598C274.012 24.6152 274.355 24.543 274.711 24.543C275.164 24.543 275.555 24.6211 275.883 24.7773C276.215 24.9336 276.486 25.1523 276.697 25.4336C276.908 25.7109 277.064 26.0391 277.166 26.418C277.268 26.793 277.318 27.2031 277.318 27.6484V28.1348H272.584V27.25H276.234V27.168C276.219 26.8867 276.16 26.6133 276.059 26.3477C275.961 26.082 275.805 25.8633 275.59 25.6914C275.375 25.5195 275.082 25.4336 274.711 25.4336C274.465 25.4336 274.238 25.4863 274.031 25.5918C273.824 25.6934 273.646 25.8457 273.498 26.0488C273.35 26.252 273.234 26.5 273.152 26.793C273.07 27.0859 273.029 27.4238 273.029 27.8066V28.0527C273.029 28.3535 273.07 28.6367 273.152 28.9023C273.238 29.1641 273.361 29.3945 273.521 29.5938C273.686 29.793 273.883 29.9492 274.113 30.0625C274.348 30.1758 274.613 30.2324 274.91 30.2324C275.293 30.2324 275.617 30.1543 275.883 29.998C276.148 29.8418 276.381 29.6328 276.58 29.3711L277.236 29.8926C277.1 30.0996 276.926 30.2969 276.715 30.4844C276.504 30.6719 276.244 30.8242 275.936 30.9414C275.631 31.0586 275.27 31.1172 274.852 31.1172ZM282.322 29.916V26.6523C282.322 26.4023 282.271 26.1855 282.17 26.002C282.072 25.8145 281.924 25.6699 281.725 25.5684C281.525 25.4668 281.279 25.416 280.986 25.416C280.713 25.416 280.473 25.4629 280.266 25.5566C280.062 25.6504 279.902 25.7734 279.785 25.9258C279.672 26.0781 279.615 26.2422 279.615 26.418H278.531C278.531 26.1914 278.59 25.9668 278.707 25.7441C278.824 25.5215 278.992 25.3203 279.211 25.1406C279.434 24.957 279.699 24.8125 280.008 24.707C280.32 24.5977 280.668 24.543 281.051 24.543C281.512 24.543 281.918 24.6211 282.27 24.7773C282.625 24.9336 282.902 25.1699 283.102 25.4863C283.305 25.7988 283.406 26.1914 283.406 26.6641V29.6172C283.406 29.8281 283.424 30.0527 283.459 30.291C283.498 30.5293 283.555 30.7344 283.629 30.9062V31H282.498C282.443 30.875 282.4 30.709 282.369 30.502C282.338 30.291 282.322 30.0957 282.322 29.916ZM282.51 27.1562L282.521 27.918H281.426C281.117 27.918 280.842 27.9434 280.6 27.9941C280.357 28.041 280.154 28.1133 279.99 28.2109C279.826 28.3086 279.701 28.4316 279.615 28.5801C279.529 28.7246 279.486 28.8945 279.486 29.0898C279.486 29.2891 279.531 29.4707 279.621 29.6348C279.711 29.7988 279.846 29.9297 280.025 30.0273C280.209 30.1211 280.434 30.168 280.699 30.168C281.031 30.168 281.324 30.0977 281.578 29.957C281.832 29.8164 282.033 29.6445 282.182 29.4414C282.334 29.2383 282.416 29.041 282.428 28.8496L282.891 29.3711C282.863 29.5352 282.789 29.7168 282.668 29.916C282.547 30.1152 282.385 30.3066 282.182 30.4902C281.982 30.6699 281.744 30.8203 281.467 30.9414C281.193 31.0586 280.885 31.1172 280.541 31.1172C280.111 31.1172 279.734 31.0332 279.41 30.8652C279.09 30.6973 278.84 30.4727 278.66 30.1914C278.484 29.9062 278.396 29.5879 278.396 29.2363C278.396 28.8965 278.463 28.5977 278.596 28.3398C278.729 28.0781 278.92 27.8613 279.17 27.6895C279.42 27.5137 279.721 27.3809 280.072 27.291C280.424 27.2012 280.816 27.1562 281.25 27.1562H282.51ZM289.107 29.7695V22H290.197V31H289.201L289.107 29.7695ZM284.842 27.9004V27.7773C284.842 27.293 284.9 26.8535 285.018 26.459C285.139 26.0605 285.309 25.7188 285.527 25.4336C285.75 25.1484 286.014 24.9297 286.318 24.7773C286.627 24.6211 286.971 24.543 287.35 24.543C287.748 24.543 288.096 24.6133 288.393 24.7539C288.693 24.8906 288.947 25.0918 289.154 25.3574C289.365 25.6191 289.531 25.9355 289.652 26.3066C289.773 26.6777 289.857 27.0977 289.904 27.5664V28.1055C289.861 28.5703 289.777 28.9883 289.652 29.3594C289.531 29.7305 289.365 30.0469 289.154 30.3086C288.947 30.5703 288.693 30.7715 288.393 30.9121C288.092 31.0488 287.74 31.1172 287.338 31.1172C286.967 31.1172 286.627 31.0371 286.318 30.877C286.014 30.7168 285.75 30.4922 285.527 30.2031C285.309 29.9141 285.139 29.5742 285.018 29.1836C284.9 28.7891 284.842 28.3613 284.842 27.9004ZM285.932 27.7773V27.9004C285.932 28.2168 285.963 28.5137 286.025 28.791C286.092 29.0684 286.193 29.3125 286.33 29.5234C286.467 29.7344 286.641 29.9004 286.852 30.0215C287.062 30.1387 287.314 30.1973 287.607 30.1973C287.967 30.1973 288.262 30.1211 288.492 29.9688C288.727 29.8164 288.914 29.6152 289.055 29.3652C289.195 29.1152 289.305 28.8438 289.383 28.5508V27.1387C289.336 26.9238 289.268 26.7168 289.178 26.5176C289.092 26.3145 288.979 26.1348 288.838 25.9785C288.701 25.8184 288.531 25.6914 288.328 25.5977C288.129 25.5039 287.893 25.457 287.619 25.457C287.322 25.457 287.066 25.5195 286.852 25.6445C286.641 25.7656 286.467 25.9336 286.33 26.1484C286.193 26.3594 286.092 26.6055 286.025 26.8867C285.963 27.1641 285.932 27.4609 285.932 27.7773Z" fill="#0075B5"/>
</g>
<g filter="url(#filter1_d_9_2498)">
<g clip-path="url(#clip0_9_2498)">
<rect x="8" y="66" width="297" height="45" rx="4" fill="white"/>
<g filter="url(#filter2_d_9_2498)">
<rect x="8" y="66" width="297" height="45" rx="4" fill="white"/>
<path d="M68.1367 90.6543H65.8574V89.7344H68.1367C68.5781 89.7344 68.9355 89.6641 69.209 89.5234C69.4824 89.3828 69.6816 89.1875 69.8066 88.9375C69.9355 88.6875 70 88.4023 70 88.082C70 87.7891 69.9355 87.5137 69.8066 87.2559C69.6816 86.998 69.4824 86.791 69.209 86.6348C68.9355 86.4746 68.5781 86.3945 68.1367 86.3945H66.1211V94H64.9902V85.4688H68.1367C68.7812 85.4688 69.3262 85.5801 69.7715 85.8027C70.2168 86.0254 70.5547 86.334 70.7852 86.7285C71.0156 87.1191 71.1309 87.5664 71.1309 88.0703C71.1309 88.6172 71.0156 89.084 70.7852 89.4707C70.5547 89.8574 70.2168 90.1523 69.7715 90.3555C69.3262 90.5547 68.7812 90.6543 68.1367 90.6543ZM74.9453 94.1172C74.5039 94.1172 74.1035 94.043 73.7441 93.8945C73.3887 93.7422 73.082 93.5293 72.8242 93.2559C72.5703 92.9824 72.375 92.6582 72.2383 92.2832C72.1016 91.9082 72.0332 91.498 72.0332 91.0527V90.8066C72.0332 90.291 72.1094 89.832 72.2617 89.4297C72.4141 89.0234 72.6211 88.6797 72.8828 88.3984C73.1445 88.1172 73.4414 87.9043 73.7734 87.7598C74.1055 87.6152 74.4492 87.543 74.8047 87.543C75.2578 87.543 75.6484 87.6211 75.9766 87.7773C76.3086 87.9336 76.5801 88.1523 76.791 88.4336C77.002 88.7109 77.1582 89.0391 77.2598 89.418C77.3613 89.793 77.4121 90.2031 77.4121 90.6484V91.1348H72.6777V90.25H76.3281V90.168C76.3125 89.8867 76.2539 89.6133 76.1523 89.3477C76.0547 89.082 75.8984 88.8633 75.6836 88.6914C75.4688 88.5195 75.1758 88.4336 74.8047 88.4336C74.5586 88.4336 74.332 88.4863 74.125 88.5918C73.918 88.6934 73.7402 88.8457 73.5918 89.0488C73.4434 89.252 73.3281 89.5 73.2461 89.793C73.1641 90.0859 73.123 90.4238 73.123 90.8066V91.0527C73.123 91.3535 73.1641 91.6367 73.2461 91.9023C73.332 92.1641 73.4551 92.3945 73.6152 92.5938C73.7793 92.793 73.9766 92.9492 74.207 93.0625C74.4414 93.1758 74.707 93.2324 75.0039 93.2324C75.3867 93.2324 75.7109 93.1543 75.9766 92.998C76.2422 92.8418 76.4746 92.6328 76.6738 92.3711L77.3301 92.8926C77.1934 93.0996 77.0195 93.2969 76.8086 93.4844C76.5977 93.6719 76.3379 93.8242 76.0293 93.9414C75.7246 94.0586 75.3633 94.1172 74.9453 94.1172ZM78.6719 85H79.7617V92.7695L79.668 94H78.6719V85ZM84.0449 90.7773V90.9004C84.0449 91.3613 83.9902 91.7891 83.8809 92.1836C83.7715 92.5742 83.6113 92.9141 83.4004 93.2031C83.1895 93.4922 82.9316 93.7168 82.627 93.877C82.3223 94.0371 81.9727 94.1172 81.5781 94.1172C81.1758 94.1172 80.8223 94.0488 80.5176 93.9121C80.2168 93.7715 79.9629 93.5703 79.7559 93.3086C79.5488 93.0469 79.3828 92.7305 79.2578 92.3594C79.1367 91.9883 79.0527 91.5703 79.0059 91.1055V90.5664C79.0527 90.0977 79.1367 89.6777 79.2578 89.3066C79.3828 88.9355 79.5488 88.6191 79.7559 88.3574C79.9629 88.0918 80.2168 87.8906 80.5176 87.7539C80.8184 87.6133 81.168 87.543 81.5664 87.543C81.9648 87.543 82.3184 87.6211 82.627 87.7773C82.9355 87.9297 83.1934 88.1484 83.4004 88.4336C83.6113 88.7188 83.7715 89.0605 83.8809 89.459C83.9902 89.8535 84.0449 90.293 84.0449 90.7773ZM82.9551 90.9004V90.7773C82.9551 90.4609 82.9258 90.1641 82.8672 89.8867C82.8086 89.6055 82.7148 89.3594 82.5859 89.1484C82.457 88.9336 82.2871 88.7656 82.0762 88.6445C81.8652 88.5195 81.6055 88.457 81.2969 88.457C81.0234 88.457 80.7852 88.5039 80.582 88.5977C80.3828 88.6914 80.2129 88.8184 80.0723 88.9785C79.9316 89.1348 79.8164 89.3145 79.7266 89.5176C79.6406 89.7168 79.5762 89.9238 79.5332 90.1387V91.5508C79.5957 91.8242 79.6973 92.0879 79.8379 92.3418C79.9824 92.5918 80.1738 92.7969 80.4121 92.957C80.6543 93.1172 80.9531 93.1973 81.3086 93.1973C81.6016 93.1973 81.8516 93.1387 82.0586 93.0215C82.2695 92.9004 82.4395 92.7344 82.5684 92.5234C82.7012 92.3125 82.7988 92.0684 82.8613 91.791C82.9238 91.5137 82.9551 91.2168 82.9551 90.9004ZM85.4102 85H86.5V92.7695L86.4062 94H85.4102V85ZM90.7832 90.7773V90.9004C90.7832 91.3613 90.7285 91.7891 90.6191 92.1836C90.5098 92.5742 90.3496 92.9141 90.1387 93.2031C89.9277 93.4922 89.6699 93.7168 89.3652 93.877C89.0605 94.0371 88.7109 94.1172 88.3164 94.1172C87.9141 94.1172 87.5605 94.0488 87.2559 93.9121C86.9551 93.7715 86.7012 93.5703 86.4941 93.3086C86.2871 93.0469 86.1211 92.7305 85.9961 92.3594C85.875 91.9883 85.791 91.5703 85.7441 91.1055V90.5664C85.791 90.0977 85.875 89.6777 85.9961 89.3066C86.1211 88.9355 86.2871 88.6191 86.4941 88.3574C86.7012 88.0918 86.9551 87.8906 87.2559 87.7539C87.5566 87.6133 87.9062 87.543 88.3047 87.543C88.7031 87.543 89.0566 87.6211 89.3652 87.7773C89.6738 87.9297 89.9316 88.1484 90.1387 88.4336C90.3496 88.7188 90.5098 89.0605 90.6191 89.459C90.7285 89.8535 90.7832 90.293 90.7832 90.7773ZM89.6934 90.9004V90.7773C89.6934 90.4609 89.6641 90.1641 89.6055 89.8867C89.5469 89.6055 89.4531 89.3594 89.3242 89.1484C89.1953 88.9336 89.0254 88.7656 88.8145 88.6445C88.6035 88.5195 88.3438 88.457 88.0352 88.457C87.7617 88.457 87.5234 88.5039 87.3203 88.5977C87.1211 88.6914 86.9512 88.8184 86.8105 88.9785C86.6699 89.1348 86.5547 89.3145 86.4648 89.5176C86.3789 89.7168 86.3145 89.9238 86.2715 90.1387V91.5508C86.334 91.8242 86.4355 92.0879 86.5762 92.3418C86.7207 92.5918 86.9121 92.7969 87.1504 92.957C87.3926 93.1172 87.6914 93.1973 88.0469 93.1973C88.3398 93.1973 88.5898 93.1387 88.7969 93.0215C89.0078 92.9004 89.1777 92.7344 89.3066 92.5234C89.4395 92.3125 89.5371 92.0684 89.5996 91.791C89.6621 91.5137 89.6934 91.2168 89.6934 90.9004ZM93.332 85V94H92.2422V85H93.332ZM97.7031 94.1172C97.2617 94.1172 96.8613 94.043 96.502 93.8945C96.1465 93.7422 95.8398 93.5293 95.582 93.2559C95.3281 92.9824 95.1328 92.6582 94.9961 92.2832C94.8594 91.9082 94.791 91.498 94.791 91.0527V90.8066C94.791 90.291 94.8672 89.832 95.0195 89.4297C95.1719 89.0234 95.3789 88.6797 95.6406 88.3984C95.9023 88.1172 96.1992 87.9043 96.5312 87.7598C96.8633 87.6152 97.207 87.543 97.5625 87.543C98.0156 87.543 98.4062 87.6211 98.7344 87.7773C99.0664 87.9336 99.3379 88.1523 99.5488 88.4336C99.7598 88.7109 99.916 89.0391 100.018 89.418C100.119 89.793 100.17 90.2031 100.17 90.6484V91.1348H95.4355V90.25H99.0859V90.168C99.0703 89.8867 99.0117 89.6133 98.9102 89.3477C98.8125 89.082 98.6562 88.8633 98.4414 88.6914C98.2266 88.5195 97.9336 88.4336 97.5625 88.4336C97.3164 88.4336 97.0898 88.4863 96.8828 88.5918C96.6758 88.6934 96.498 88.8457 96.3496 89.0488C96.2012 89.252 96.0859 89.5 96.0039 89.793C95.9219 90.0859 95.8809 90.4238 95.8809 90.8066V91.0527C95.8809 91.3535 95.9219 91.6367 96.0039 91.9023C96.0898 92.1641 96.2129 92.3945 96.373 92.5938C96.5371 92.793 96.7344 92.9492 96.9648 93.0625C97.1992 93.1758 97.4648 93.2324 97.7617 93.2324C98.1445 93.2324 98.4688 93.1543 98.7344 92.998C99 92.8418 99.2324 92.6328 99.4316 92.3711L100.088 92.8926C99.9512 93.0996 99.7773 93.2969 99.5664 93.4844C99.3555 93.6719 99.0957 93.8242 98.7871 93.9414C98.4824 94.0586 98.1211 94.1172 97.7031 94.1172ZM109.457 85.4688H110.582V91.2402C110.582 91.8809 110.439 92.4141 110.154 92.8398C109.869 93.2656 109.49 93.5859 109.018 93.8008C108.549 94.0117 108.039 94.1172 107.488 94.1172C106.91 94.1172 106.387 94.0117 105.918 93.8008C105.453 93.5859 105.084 93.2656 104.811 92.8398C104.541 92.4141 104.406 91.8809 104.406 91.2402V85.4688H105.525V91.2402C105.525 91.6855 105.607 92.0527 105.771 92.3418C105.936 92.6309 106.164 92.8457 106.457 92.9863C106.754 93.127 107.098 93.1973 107.488 93.1973C107.883 93.1973 108.227 93.127 108.52 92.9863C108.816 92.8457 109.047 92.6309 109.211 92.3418C109.375 92.0527 109.457 91.6855 109.457 91.2402V85.4688ZM113.57 85.4688V94H112.439V85.4688H113.57ZM122.131 92.3184C122.131 92.1621 122.096 92.0176 122.025 91.8848C121.959 91.748 121.82 91.625 121.609 91.5156C121.402 91.4023 121.09 91.3047 120.672 91.2227C120.32 91.1484 120.002 91.0605 119.717 90.959C119.436 90.8574 119.195 90.7344 118.996 90.5898C118.801 90.4453 118.65 90.2754 118.545 90.0801C118.439 89.8848 118.387 89.6562 118.387 89.3945C118.387 89.1445 118.441 88.9082 118.551 88.6855C118.664 88.4629 118.822 88.2656 119.025 88.0938C119.232 87.9219 119.48 87.7871 119.77 87.6895C120.059 87.5918 120.381 87.543 120.736 87.543C121.244 87.543 121.678 87.6328 122.037 87.8125C122.396 87.9922 122.672 88.2324 122.863 88.5332C123.055 88.8301 123.15 89.1602 123.15 89.5234H122.066C122.066 89.3477 122.014 89.1777 121.908 89.0137C121.807 88.8457 121.656 88.707 121.457 88.5977C121.262 88.4883 121.021 88.4336 120.736 88.4336C120.436 88.4336 120.191 88.4805 120.004 88.5742C119.82 88.6641 119.686 88.7793 119.6 88.9199C119.518 89.0605 119.477 89.209 119.477 89.3652C119.477 89.4824 119.496 89.5879 119.535 89.6816C119.578 89.7715 119.652 89.8555 119.758 89.9336C119.863 90.0078 120.012 90.0781 120.203 90.1445C120.395 90.2109 120.639 90.2773 120.936 90.3438C121.455 90.4609 121.883 90.6016 122.219 90.7656C122.555 90.9297 122.805 91.1309 122.969 91.3691C123.133 91.6074 123.215 91.8965 123.215 92.2363C123.215 92.5137 123.156 92.7676 123.039 92.998C122.926 93.2285 122.76 93.4277 122.541 93.5957C122.326 93.7598 122.068 93.8887 121.768 93.9824C121.471 94.0723 121.137 94.1172 120.766 94.1172C120.207 94.1172 119.734 94.0176 119.348 93.8184C118.961 93.6191 118.668 93.3613 118.469 93.0449C118.27 92.7285 118.17 92.3945 118.17 92.043H119.26C119.275 92.3398 119.361 92.5762 119.518 92.752C119.674 92.9238 119.865 93.0469 120.092 93.1211C120.318 93.1914 120.543 93.2266 120.766 93.2266C121.062 93.2266 121.311 93.1875 121.51 93.1094C121.713 93.0312 121.867 92.9238 121.973 92.7871C122.078 92.6504 122.131 92.4941 122.131 92.3184ZM127.27 94.1172C126.828 94.1172 126.428 94.043 126.068 93.8945C125.713 93.7422 125.406 93.5293 125.148 93.2559C124.895 92.9824 124.699 92.6582 124.562 92.2832C124.426 91.9082 124.357 91.498 124.357 91.0527V90.8066C124.357 90.291 124.434 89.832 124.586 89.4297C124.738 89.0234 124.945 88.6797 125.207 88.3984C125.469 88.1172 125.766 87.9043 126.098 87.7598C126.43 87.6152 126.773 87.543 127.129 87.543C127.582 87.543 127.973 87.6211 128.301 87.7773C128.633 87.9336 128.904 88.1523 129.115 88.4336C129.326 88.7109 129.482 89.0391 129.584 89.418C129.686 89.793 129.736 90.2031 129.736 90.6484V91.1348H125.002V90.25H128.652V90.168C128.637 89.8867 128.578 89.6133 128.477 89.3477C128.379 89.082 128.223 88.8633 128.008 88.6914C127.793 88.5195 127.5 88.4336 127.129 88.4336C126.883 88.4336 126.656 88.4863 126.449 88.5918C126.242 88.6934 126.064 88.8457 125.916 89.0488C125.768 89.252 125.652 89.5 125.57 89.793C125.488 90.0859 125.447 90.4238 125.447 90.8066V91.0527C125.447 91.3535 125.488 91.6367 125.57 91.9023C125.656 92.1641 125.779 92.3945 125.939 92.5938C126.104 92.793 126.301 92.9492 126.531 93.0625C126.766 93.1758 127.031 93.2324 127.328 93.2324C127.711 93.2324 128.035 93.1543 128.301 92.998C128.566 92.8418 128.799 92.6328 128.998 92.3711L129.654 92.8926C129.518 93.0996 129.344 93.2969 129.133 93.4844C128.922 93.6719 128.662 93.8242 128.354 93.9414C128.049 94.0586 127.688 94.1172 127.27 94.1172ZM132.086 89.0137V94H131.002V87.6602H132.027L132.086 89.0137ZM131.828 90.5898L131.377 90.5723C131.381 90.1387 131.445 89.7383 131.57 89.3711C131.695 89 131.871 88.6777 132.098 88.4043C132.324 88.1309 132.594 87.9199 132.906 87.7715C133.223 87.6191 133.572 87.543 133.955 87.543C134.268 87.543 134.549 87.5859 134.799 87.6719C135.049 87.7539 135.262 87.8867 135.438 88.0703C135.617 88.2539 135.754 88.4922 135.848 88.7852C135.941 89.0742 135.988 89.4277 135.988 89.8457V94H134.898V89.834C134.898 89.502 134.85 89.2363 134.752 89.0371C134.654 88.834 134.512 88.6875 134.324 88.5977C134.137 88.5039 133.906 88.457 133.633 88.457C133.363 88.457 133.117 88.5137 132.895 88.627C132.676 88.7402 132.486 88.8965 132.326 89.0957C132.17 89.2949 132.047 89.5234 131.957 89.7812C131.871 90.0352 131.828 90.3047 131.828 90.5898ZM140.289 87.6602V88.4922H136.861V87.6602H140.289ZM138.021 86.1191H139.105V92.4297C139.105 92.6445 139.139 92.8066 139.205 92.916C139.271 93.0254 139.357 93.0977 139.463 93.1328C139.568 93.168 139.682 93.1855 139.803 93.1855C139.893 93.1855 139.986 93.1777 140.084 93.1621C140.186 93.1426 140.262 93.127 140.312 93.1152L140.318 94C140.232 94.0273 140.119 94.0527 139.979 94.0762C139.842 94.1035 139.676 94.1172 139.48 94.1172C139.215 94.1172 138.971 94.0645 138.748 93.959C138.525 93.8535 138.348 93.6777 138.215 93.4316C138.086 93.1816 138.021 92.8457 138.021 92.4238V86.1191ZM146.318 93.3438L148.082 87.6602H149.242L146.699 94.9785C146.641 95.1348 146.562 95.3027 146.465 95.4824C146.371 95.666 146.25 95.8398 146.102 96.0039C145.953 96.168 145.773 96.3008 145.562 96.4023C145.355 96.5078 145.107 96.5605 144.818 96.5605C144.732 96.5605 144.623 96.5488 144.49 96.5254C144.357 96.502 144.264 96.4824 144.209 96.4668L144.203 95.5879C144.234 95.5918 144.283 95.5957 144.35 95.5996C144.42 95.6074 144.469 95.6113 144.496 95.6113C144.742 95.6113 144.951 95.5781 145.123 95.5117C145.295 95.4492 145.439 95.3418 145.557 95.1895C145.678 95.041 145.781 94.8359 145.867 94.5742L146.318 93.3438ZM145.023 87.6602L146.67 92.582L146.951 93.7246L146.172 94.123L143.84 87.6602H145.023ZM149.84 90.9004V90.7656C149.84 90.3086 149.906 89.8848 150.039 89.4941C150.172 89.0996 150.363 88.7578 150.613 88.4688C150.863 88.1758 151.166 87.9492 151.521 87.7891C151.877 87.625 152.275 87.543 152.717 87.543C153.162 87.543 153.562 87.625 153.918 87.7891C154.277 87.9492 154.582 88.1758 154.832 88.4688C155.086 88.7578 155.279 89.0996 155.412 89.4941C155.545 89.8848 155.611 90.3086 155.611 90.7656V90.9004C155.611 91.3574 155.545 91.7812 155.412 92.1719C155.279 92.5625 155.086 92.9043 154.832 93.1973C154.582 93.4863 154.279 93.7129 153.924 93.877C153.572 94.0371 153.174 94.1172 152.729 94.1172C152.283 94.1172 151.883 94.0371 151.527 93.877C151.172 93.7129 150.867 93.4863 150.613 93.1973C150.363 92.9043 150.172 92.5625 150.039 92.1719C149.906 91.7812 149.84 91.3574 149.84 90.9004ZM150.924 90.7656V90.9004C150.924 91.2168 150.961 91.5156 151.035 91.7969C151.109 92.0742 151.221 92.3203 151.369 92.5352C151.521 92.75 151.711 92.9199 151.938 93.0449C152.164 93.166 152.428 93.2266 152.729 93.2266C153.025 93.2266 153.285 93.166 153.508 93.0449C153.734 92.9199 153.922 92.75 154.07 92.5352C154.219 92.3203 154.33 92.0742 154.404 91.7969C154.482 91.5156 154.521 91.2168 154.521 90.9004V90.7656C154.521 90.4531 154.482 90.1582 154.404 89.8809C154.33 89.5996 154.217 89.3516 154.064 89.1367C153.916 88.918 153.729 88.7461 153.502 88.6211C153.279 88.4961 153.018 88.4336 152.717 88.4336C152.42 88.4336 152.158 88.4961 151.932 88.6211C151.709 88.7461 151.521 88.918 151.369 89.1367C151.221 89.3516 151.109 89.5996 151.035 89.8809C150.961 90.1582 150.924 90.4531 150.924 90.7656ZM160.85 92.5352V87.6602H161.939V94H160.902L160.85 92.5352ZM161.055 91.1992L161.506 91.1875C161.506 91.6094 161.461 92 161.371 92.3594C161.285 92.7148 161.145 93.0234 160.949 93.2852C160.754 93.5469 160.498 93.752 160.182 93.9004C159.865 94.0449 159.48 94.1172 159.027 94.1172C158.719 94.1172 158.436 94.0723 158.178 93.9824C157.924 93.8926 157.705 93.7539 157.521 93.5664C157.338 93.3789 157.195 93.1348 157.094 92.834C156.996 92.5332 156.947 92.1719 156.947 91.75V87.6602H158.031V91.7617C158.031 92.0469 158.062 92.2832 158.125 92.4707C158.191 92.6543 158.279 92.8008 158.389 92.9102C158.502 93.0156 158.627 93.0898 158.764 93.1328C158.904 93.1758 159.049 93.1973 159.197 93.1973C159.658 93.1973 160.023 93.1094 160.293 92.9336C160.562 92.7539 160.756 92.5137 160.873 92.2129C160.994 91.9082 161.055 91.5703 161.055 91.1992ZM170.307 92.916V89.6523C170.307 89.4023 170.256 89.1855 170.154 89.002C170.057 88.8145 169.908 88.6699 169.709 88.5684C169.51 88.4668 169.264 88.416 168.971 88.416C168.697 88.416 168.457 88.4629 168.25 88.5566C168.047 88.6504 167.887 88.7734 167.77 88.9258C167.656 89.0781 167.6 89.2422 167.6 89.418H166.516C166.516 89.1914 166.574 88.9668 166.691 88.7441C166.809 88.5215 166.977 88.3203 167.195 88.1406C167.418 87.957 167.684 87.8125 167.992 87.707C168.305 87.5977 168.652 87.543 169.035 87.543C169.496 87.543 169.902 87.6211 170.254 87.7773C170.609 87.9336 170.887 88.1699 171.086 88.4863C171.289 88.7988 171.391 89.1914 171.391 89.6641V92.6172C171.391 92.8281 171.408 93.0527 171.443 93.291C171.482 93.5293 171.539 93.7344 171.613 93.9062V94H170.482C170.428 93.875 170.385 93.709 170.354 93.502C170.322 93.291 170.307 93.0957 170.307 92.916ZM170.494 90.1562L170.506 90.918H169.41C169.102 90.918 168.826 90.9434 168.584 90.9941C168.342 91.041 168.139 91.1133 167.975 91.2109C167.811 91.3086 167.686 91.4316 167.6 91.5801C167.514 91.7246 167.471 91.8945 167.471 92.0898C167.471 92.2891 167.516 92.4707 167.605 92.6348C167.695 92.7988 167.83 92.9297 168.01 93.0273C168.193 93.1211 168.418 93.168 168.684 93.168C169.016 93.168 169.309 93.0977 169.562 92.957C169.816 92.8164 170.018 92.6445 170.166 92.4414C170.318 92.2383 170.4 92.041 170.412 91.8496L170.875 92.3711C170.848 92.5352 170.773 92.7168 170.652 92.916C170.531 93.1152 170.369 93.3066 170.166 93.4902C169.967 93.6699 169.729 93.8203 169.451 93.9414C169.178 94.0586 168.869 94.1172 168.525 94.1172C168.096 94.1172 167.719 94.0332 167.395 93.8652C167.074 93.6973 166.824 93.4727 166.645 93.1914C166.469 92.9062 166.381 92.5879 166.381 92.2363C166.381 91.8965 166.447 91.5977 166.58 91.3398C166.713 91.0781 166.904 90.8613 167.154 90.6895C167.404 90.5137 167.705 90.3809 168.057 90.291C168.408 90.2012 168.801 90.1562 169.234 90.1562H170.494ZM177.689 94H176.605V86.9922C176.605 86.5352 176.688 86.1504 176.852 85.8379C177.02 85.5215 177.26 85.2832 177.572 85.123C177.885 84.959 178.256 84.877 178.686 84.877C178.811 84.877 178.936 84.8848 179.061 84.9004C179.189 84.916 179.314 84.9395 179.436 84.9707L179.377 85.8555C179.295 85.8359 179.201 85.8223 179.096 85.8145C178.994 85.8066 178.893 85.8027 178.791 85.8027C178.561 85.8027 178.361 85.8496 178.193 85.9434C178.029 86.0332 177.904 86.166 177.818 86.3418C177.732 86.5176 177.689 86.7344 177.689 86.9922V94ZM179.037 87.6602V88.4922H175.604V87.6602H179.037ZM181.328 88.6562V94H180.244V87.6602H181.299L181.328 88.6562ZM183.309 87.625L183.303 88.6328C183.213 88.6133 183.127 88.6016 183.045 88.5977C182.967 88.5898 182.877 88.5859 182.775 88.5859C182.525 88.5859 182.305 88.625 182.113 88.7031C181.922 88.7812 181.76 88.8906 181.627 89.0312C181.494 89.1719 181.389 89.3398 181.311 89.5352C181.236 89.7266 181.188 89.9375 181.164 90.168L180.859 90.3438C180.859 89.9609 180.896 89.6016 180.971 89.2656C181.049 88.9297 181.168 88.6328 181.328 88.375C181.488 88.1133 181.691 87.9102 181.938 87.7656C182.188 87.6172 182.484 87.543 182.828 87.543C182.906 87.543 182.996 87.5527 183.098 87.5723C183.199 87.5879 183.27 87.6055 183.309 87.625ZM185.488 87.6602V94H184.398V87.6602H185.488ZM184.316 85.9785C184.316 85.8027 184.369 85.6543 184.475 85.5332C184.584 85.4121 184.744 85.3516 184.955 85.3516C185.162 85.3516 185.32 85.4121 185.43 85.5332C185.543 85.6543 185.6 85.8027 185.6 85.9785C185.6 86.1465 185.543 86.291 185.43 86.4121C185.32 86.5293 185.162 86.5879 184.955 86.5879C184.744 86.5879 184.584 86.5293 184.475 86.4121C184.369 86.291 184.316 86.1465 184.316 85.9785ZM189.859 94.1172C189.418 94.1172 189.018 94.043 188.658 93.8945C188.303 93.7422 187.996 93.5293 187.738 93.2559C187.484 92.9824 187.289 92.6582 187.152 92.2832C187.016 91.9082 186.947 91.498 186.947 91.0527V90.8066C186.947 90.291 187.023 89.832 187.176 89.4297C187.328 89.0234 187.535 88.6797 187.797 88.3984C188.059 88.1172 188.355 87.9043 188.688 87.7598C189.02 87.6152 189.363 87.543 189.719 87.543C190.172 87.543 190.562 87.6211 190.891 87.7773C191.223 87.9336 191.494 88.1523 191.705 88.4336C191.916 88.7109 192.072 89.0391 192.174 89.418C192.275 89.793 192.326 90.2031 192.326 90.6484V91.1348H187.592V90.25H191.242V90.168C191.227 89.8867 191.168 89.6133 191.066 89.3477C190.969 89.082 190.812 88.8633 190.598 88.6914C190.383 88.5195 190.09 88.4336 189.719 88.4336C189.473 88.4336 189.246 88.4863 189.039 88.5918C188.832 88.6934 188.654 88.8457 188.506 89.0488C188.357 89.252 188.242 89.5 188.16 89.793C188.078 90.0859 188.037 90.4238 188.037 90.8066V91.0527C188.037 91.3535 188.078 91.6367 188.16 91.9023C188.246 92.1641 188.369 92.3945 188.529 92.5938C188.693 92.793 188.891 92.9492 189.121 93.0625C189.355 93.1758 189.621 93.2324 189.918 93.2324C190.301 93.2324 190.625 93.1543 190.891 92.998C191.156 92.8418 191.389 92.6328 191.588 92.3711L192.244 92.8926C192.107 93.0996 191.934 93.2969 191.723 93.4844C191.512 93.6719 191.252 93.8242 190.943 93.9414C190.639 94.0586 190.277 94.1172 189.859 94.1172ZM194.676 89.0137V94H193.592V87.6602H194.617L194.676 89.0137ZM194.418 90.5898L193.967 90.5723C193.971 90.1387 194.035 89.7383 194.16 89.3711C194.285 89 194.461 88.6777 194.688 88.4043C194.914 88.1309 195.184 87.9199 195.496 87.7715C195.812 87.6191 196.162 87.543 196.545 87.543C196.857 87.543 197.139 87.5859 197.389 87.6719C197.639 87.7539 197.852 87.8867 198.027 88.0703C198.207 88.2539 198.344 88.4922 198.438 88.7852C198.531 89.0742 198.578 89.4277 198.578 89.8457V94H197.488V89.834C197.488 89.502 197.439 89.2363 197.342 89.0371C197.244 88.834 197.102 88.6875 196.914 88.5977C196.727 88.5039 196.496 88.457 196.223 88.457C195.953 88.457 195.707 88.5137 195.484 88.627C195.266 88.7402 195.076 88.8965 194.916 89.0957C194.76 89.2949 194.637 89.5234 194.547 89.7812C194.461 90.0352 194.418 90.3047 194.418 90.5898ZM204.221 92.7695V85H205.311V94H204.314L204.221 92.7695ZM199.955 90.9004V90.7773C199.955 90.293 200.014 89.8535 200.131 89.459C200.252 89.0605 200.422 88.7188 200.641 88.4336C200.863 88.1484 201.127 87.9297 201.432 87.7773C201.74 87.6211 202.084 87.543 202.463 87.543C202.861 87.543 203.209 87.6133 203.506 87.7539C203.807 87.8906 204.061 88.0918 204.268 88.3574C204.479 88.6191 204.645 88.9355 204.766 89.3066C204.887 89.6777 204.971 90.0977 205.018 90.5664V91.1055C204.975 91.5703 204.891 91.9883 204.766 92.3594C204.645 92.7305 204.479 93.0469 204.268 93.3086C204.061 93.5703 203.807 93.7715 203.506 93.9121C203.205 94.0488 202.854 94.1172 202.451 94.1172C202.08 94.1172 201.74 94.0371 201.432 93.877C201.127 93.7168 200.863 93.4922 200.641 93.2031C200.422 92.9141 200.252 92.5742 200.131 92.1836C200.014 91.7891 199.955 91.3613 199.955 90.9004ZM201.045 90.7773V90.9004C201.045 91.2168 201.076 91.5137 201.139 91.791C201.205 92.0684 201.307 92.3125 201.443 92.5234C201.58 92.7344 201.754 92.9004 201.965 93.0215C202.176 93.1387 202.428 93.1973 202.721 93.1973C203.08 93.1973 203.375 93.1211 203.605 92.9688C203.84 92.8164 204.027 92.6152 204.168 92.3652C204.309 92.1152 204.418 91.8438 204.496 91.5508V90.1387C204.449 89.9238 204.381 89.7168 204.291 89.5176C204.205 89.3145 204.092 89.1348 203.951 88.9785C203.814 88.8184 203.645 88.6914 203.441 88.5977C203.242 88.5039 203.006 88.457 202.732 88.457C202.436 88.457 202.18 88.5195 201.965 88.6445C201.754 88.7656 201.58 88.9336 201.443 89.1484C201.307 89.3594 201.205 89.6055 201.139 89.8867C201.076 90.1641 201.045 90.4609 201.045 90.7773ZM211.059 88.6562V94H209.975V87.6602H211.029L211.059 88.6562ZM213.039 87.625L213.033 88.6328C212.943 88.6133 212.857 88.6016 212.775 88.5977C212.697 88.5898 212.607 88.5859 212.506 88.5859C212.256 88.5859 212.035 88.625 211.844 88.7031C211.652 88.7812 211.49 88.8906 211.357 89.0312C211.225 89.1719 211.119 89.3398 211.041 89.5352C210.967 89.7266 210.918 89.9375 210.895 90.168L210.59 90.3438C210.59 89.9609 210.627 89.6016 210.701 89.2656C210.779 88.9297 210.898 88.6328 211.059 88.375C211.219 88.1133 211.422 87.9102 211.668 87.7656C211.918 87.6172 212.215 87.543 212.559 87.543C212.637 87.543 212.727 87.5527 212.828 87.5723C212.93 87.5879 213 87.6055 213.039 87.625ZM216.555 94.1172C216.113 94.1172 215.713 94.043 215.354 93.8945C214.998 93.7422 214.691 93.5293 214.434 93.2559C214.18 92.9824 213.984 92.6582 213.848 92.2832C213.711 91.9082 213.643 91.498 213.643 91.0527V90.8066C213.643 90.291 213.719 89.832 213.871 89.4297C214.023 89.0234 214.23 88.6797 214.492 88.3984C214.754 88.1172 215.051 87.9043 215.383 87.7598C215.715 87.6152 216.059 87.543 216.414 87.543C216.867 87.543 217.258 87.6211 217.586 87.7773C217.918 87.9336 218.189 88.1523 218.4 88.4336C218.611 88.7109 218.768 89.0391 218.869 89.418C218.971 89.793 219.021 90.2031 219.021 90.6484V91.1348H214.287V90.25H217.938V90.168C217.922 89.8867 217.863 89.6133 217.762 89.3477C217.664 89.082 217.508 88.8633 217.293 88.6914C217.078 88.5195 216.785 88.4336 216.414 88.4336C216.168 88.4336 215.941 88.4863 215.734 88.5918C215.527 88.6934 215.35 88.8457 215.201 89.0488C215.053 89.252 214.938 89.5 214.855 89.793C214.773 90.0859 214.732 90.4238 214.732 90.8066V91.0527C214.732 91.3535 214.773 91.6367 214.855 91.9023C214.941 92.1641 215.064 92.3945 215.225 92.5938C215.389 92.793 215.586 92.9492 215.816 93.0625C216.051 93.1758 216.316 93.2324 216.613 93.2324C216.996 93.2324 217.32 93.1543 217.586 92.998C217.852 92.8418 218.084 92.6328 218.283 92.3711L218.939 92.8926C218.803 93.0996 218.629 93.2969 218.418 93.4844C218.207 93.6719 217.947 93.8242 217.639 93.9414C217.334 94.0586 216.973 94.1172 216.555 94.1172ZM224.277 96.4375V88.8789L224.371 87.6602H225.367V96.4375H224.277ZM220.018 90.9004V90.7773C220.018 90.293 220.074 89.8535 220.188 89.459C220.301 89.0605 220.467 88.7188 220.686 88.4336C220.904 88.1484 221.168 87.9297 221.477 87.7773C221.789 87.6211 222.145 87.543 222.543 87.543C222.941 87.543 223.291 87.6133 223.592 87.7539C223.896 87.8906 224.154 88.0918 224.365 88.3574C224.58 88.6191 224.75 88.9355 224.875 89.3066C225 89.6777 225.086 90.0977 225.133 90.5664V91.1055C225.09 91.5703 225.006 91.9883 224.881 92.3594C224.756 92.7305 224.586 93.0469 224.371 93.3086C224.16 93.5703 223.9 93.7715 223.592 93.9121C223.287 94.0488 222.934 94.1172 222.531 94.1172C222.141 94.1172 221.789 94.0371 221.477 93.877C221.168 93.7168 220.904 93.4922 220.686 93.2031C220.471 92.9141 220.305 92.5742 220.188 92.1836C220.074 91.7891 220.018 91.3613 220.018 90.9004ZM221.107 90.7773V90.9004C221.107 91.2168 221.141 91.5156 221.207 91.7969C221.273 92.0742 221.375 92.3203 221.512 92.5352C221.652 92.75 221.828 92.9199 222.039 93.0449C222.254 93.166 222.508 93.2266 222.801 93.2266C223.16 93.2266 223.459 93.1484 223.697 92.9922C223.939 92.8359 224.133 92.6309 224.277 92.377C224.422 92.1191 224.533 91.8438 224.611 91.5508V90.1387C224.568 89.9238 224.5 89.7148 224.406 89.5117C224.316 89.3086 224.199 89.127 224.055 88.9668C223.91 88.8027 223.734 88.6738 223.527 88.5801C223.324 88.4824 223.086 88.4336 222.812 88.4336C222.516 88.4336 222.26 88.4961 222.045 88.6211C221.83 88.7461 221.652 88.918 221.512 89.1367C221.375 89.3516 221.273 89.5996 221.207 89.8809C221.141 90.1621 221.107 90.4609 221.107 90.7773ZM230.986 92.5352V87.6602H232.076V94H231.039L230.986 92.5352ZM231.191 91.1992L231.643 91.1875C231.643 91.6094 231.598 92 231.508 92.3594C231.422 92.7148 231.281 93.0234 231.086 93.2852C230.891 93.5469 230.635 93.752 230.318 93.9004C230.002 94.0449 229.617 94.1172 229.164 94.1172C228.855 94.1172 228.572 94.0723 228.314 93.9824C228.061 93.8926 227.842 93.7539 227.658 93.5664C227.475 93.3789 227.332 93.1348 227.23 92.834C227.133 92.5332 227.084 92.1719 227.084 91.75V87.6602H228.168V91.7617C228.168 92.0469 228.199 92.2832 228.262 92.4707C228.328 92.6543 228.416 92.8008 228.525 92.9102C228.639 93.0156 228.764 93.0898 228.9 93.1328C229.041 93.1758 229.186 93.1973 229.334 93.1973C229.795 93.1973 230.16 93.1094 230.43 92.9336C230.699 92.7539 230.893 92.5137 231.01 92.2129C231.131 91.9082 231.191 91.5703 231.191 91.1992ZM236.359 94.1172C235.918 94.1172 235.518 94.043 235.158 93.8945C234.803 93.7422 234.496 93.5293 234.238 93.2559C233.984 92.9824 233.789 92.6582 233.652 92.2832C233.516 91.9082 233.447 91.498 233.447 91.0527V90.8066C233.447 90.291 233.523 89.832 233.676 89.4297C233.828 89.0234 234.035 88.6797 234.297 88.3984C234.559 88.1172 234.855 87.9043 235.188 87.7598C235.52 87.6152 235.863 87.543 236.219 87.543C236.672 87.543 237.062 87.6211 237.391 87.7773C237.723 87.9336 237.994 88.1523 238.205 88.4336C238.416 88.7109 238.572 89.0391 238.674 89.418C238.775 89.793 238.826 90.2031 238.826 90.6484V91.1348H234.092V90.25H237.742V90.168C237.727 89.8867 237.668 89.6133 237.566 89.3477C237.469 89.082 237.312 88.8633 237.098 88.6914C236.883 88.5195 236.59 88.4336 236.219 88.4336C235.973 88.4336 235.746 88.4863 235.539 88.5918C235.332 88.6934 235.154 88.8457 235.006 89.0488C234.857 89.252 234.742 89.5 234.66 89.793C234.578 90.0859 234.537 90.4238 234.537 90.8066V91.0527C234.537 91.3535 234.578 91.6367 234.66 91.9023C234.746 92.1641 234.869 92.3945 235.029 92.5938C235.193 92.793 235.391 92.9492 235.621 93.0625C235.855 93.1758 236.121 93.2324 236.418 93.2324C236.801 93.2324 237.125 93.1543 237.391 92.998C237.656 92.8418 237.889 92.6328 238.088 92.3711L238.744 92.8926C238.607 93.0996 238.434 93.2969 238.223 93.4844C238.012 93.6719 237.752 93.8242 237.443 93.9414C237.139 94.0586 236.777 94.1172 236.359 94.1172ZM243.783 92.3184C243.783 92.1621 243.748 92.0176 243.678 91.8848C243.611 91.748 243.473 91.625 243.262 91.5156C243.055 91.4023 242.742 91.3047 242.324 91.2227C241.973 91.1484 241.654 91.0605 241.369 90.959C241.088 90.8574 240.848 90.7344 240.648 90.5898C240.453 90.4453 240.303 90.2754 240.197 90.0801C240.092 89.8848 240.039 89.6562 240.039 89.3945C240.039 89.1445 240.094 88.9082 240.203 88.6855C240.316 88.4629 240.475 88.2656 240.678 88.0938C240.885 87.9219 241.133 87.7871 241.422 87.6895C241.711 87.5918 242.033 87.543 242.389 87.543C242.896 87.543 243.33 87.6328 243.689 87.8125C244.049 87.9922 244.324 88.2324 244.516 88.5332C244.707 88.8301 244.803 89.1602 244.803 89.5234H243.719C243.719 89.3477 243.666 89.1777 243.561 89.0137C243.459 88.8457 243.309 88.707 243.109 88.5977C242.914 88.4883 242.674 88.4336 242.389 88.4336C242.088 88.4336 241.844 88.4805 241.656 88.5742C241.473 88.6641 241.338 88.7793 241.252 88.9199C241.17 89.0605 241.129 89.209 241.129 89.3652C241.129 89.4824 241.148 89.5879 241.188 89.6816C241.23 89.7715 241.305 89.8555 241.41 89.9336C241.516 90.0078 241.664 90.0781 241.855 90.1445C242.047 90.2109 242.291 90.2773 242.588 90.3438C243.107 90.4609 243.535 90.6016 243.871 90.7656C244.207 90.9297 244.457 91.1309 244.621 91.3691C244.785 91.6074 244.867 91.8965 244.867 92.2363C244.867 92.5137 244.809 92.7676 244.691 92.998C244.578 93.2285 244.412 93.4277 244.193 93.5957C243.979 93.7598 243.721 93.8887 243.42 93.9824C243.123 94.0723 242.789 94.1172 242.418 94.1172C241.859 94.1172 241.387 94.0176 241 93.8184C240.613 93.6191 240.32 93.3613 240.121 93.0449C239.922 92.7285 239.822 92.3945 239.822 92.043H240.912C240.928 92.3398 241.014 92.5762 241.17 92.752C241.326 92.9238 241.518 93.0469 241.744 93.1211C241.971 93.1914 242.195 93.2266 242.418 93.2266C242.715 93.2266 242.963 93.1875 243.162 93.1094C243.365 93.0312 243.52 92.9238 243.625 92.7871C243.73 92.6504 243.783 92.4941 243.783 92.3184ZM248.945 87.6602V88.4922H245.518V87.6602H248.945ZM246.678 86.1191H247.762V92.4297C247.762 92.6445 247.795 92.8066 247.861 92.916C247.928 93.0254 248.014 93.0977 248.119 93.1328C248.225 93.168 248.338 93.1855 248.459 93.1855C248.549 93.1855 248.643 93.1777 248.74 93.1621C248.842 93.1426 248.918 93.127 248.969 93.1152L248.975 94C248.889 94.0273 248.775 94.0527 248.635 94.0762C248.498 94.1035 248.332 94.1172 248.137 94.1172C247.871 94.1172 247.627 94.0645 247.404 93.959C247.182 93.8535 247.004 93.6777 246.871 93.4316C246.742 93.1816 246.678 92.8457 246.678 92.4238V86.1191Z" fill="black"/>
<line x1="288.39" y1="84.3123" x2="280.39" y2="94.3123" stroke="black"/>
<line x1="280.354" y1="84.6464" x2="289.354" y2="93.6464" stroke="black"/>
<path fill-rule="evenodd" clip-rule="evenodd" d="M28.0293 99.7488C28.4123 94.8532 32.5061 91 37.5 91C42.2113 91 46.1216 94.4295 46.8706 98.9283C49.4211 96.3926 51 92.8807 51 89C51 81.268 44.732 75 37 75C29.268 75 23 81.268 23 89C23 93.3187 24.9555 97.1806 28.0293 99.7488ZM43 84.5C43 87.5376 40.5376 90 37.5 90C34.4624 90 32 87.5376 32 84.5C32 81.4624 34.4624 79 37.5 79C40.5376 79 43 81.4624 43 84.5Z" fill="#414141"/>
</g>
</g>
</g>
<defs>
<filter id="filter0_d_9_2498" x="0" y="0" width="313" height="61" filterUnits="userSpaceOnUse" color-interpolation-filters="sRGB">
<feFlood flood-opacity="0" result="BackgroundImageFix"/>
<feColorMatrix in="SourceAlpha" type="matrix" values="0 0 0 0 0 0 0 0 0 0 0 0 0 0 0 0 0 0 127 0" result="hardAlpha"/>
<feOffset dy="4"/>
<feGaussianBlur stdDeviation="4"/>
<feComposite in2="hardAlpha" operator="out"/>
<feColorMatrix type="matrix" values="0 0 0 0 0 0 0 0 0 0 0 0 0 0 0 0 0 0 0.2 0"/>
<feBlend mode="normal" in2="BackgroundImageFix" result="effect1_dropShadow_9_2498"/>
<feBlend mode="normal" in="SourceGraphic" in2="effect1_dropShadow_9_2498" result="shape"/>
</filter>
<filter id="filter1_d_9_2498" x="0" y="62" width="313" height="61" filterUnits="userSpaceOnUse" color-interpolation-filters="sRGB">
<feFlood flood-opacity="0" result="BackgroundImageFix"/>
<feColorMatrix in="SourceAlpha" type="matrix" values="0 0 0 0 0 0 0 0 0 0 0 0 0 0 0 0 0 0 127 0" result="hardAlpha"/>
<feOffset dy="4"/>
<feGaussianBlur stdDeviation="4"/>
<feComposite in2="hardAlpha" operator="out"/>
<feColorMatrix type="matrix" values="0 0 0 0 0 0 0 0 0 0 0 0 0 0 0 0 0 0 0.2 0"/>
<feBlend mode="normal" in2="BackgroundImageFix" result="effect1_dropShadow_9_2498"/>
<feBlend mode="normal" in="SourceGraphic" in2="effect1_dropShadow_9_2498" result="shape"/>
</filter>
<filter id="filter2_d_9_2498" x="0" y="62" width="313" height="61" filterUnits="userSpaceOnUse" color-interpolation-filters="sRGB">
<feFlood flood-opacity="0" result="BackgroundImageFix"/>
<feColorMatrix in="SourceAlpha" type="matrix" values="0 0 0 0 0 0 0 0 0 0 0 0 0 0 0 0 0 0 127 0" result="hardAlpha"/>
<feOffset dy="4"/>
<feGaussianBlur stdDeviation="4"/>
<feComposite in2="hardAlpha" operator="out"/>
<feColorMatrix type="matrix" values="0 0 0 0 0 0 0 0 0 0 0 0 0 0 0 0 0 0 0.2 0"/>
<feBlend mode="normal" in2="BackgroundImageFix" result="effect1_dropShadow_9_2498"/>
<feBlend mode="normal" in="SourceGraphic" in2="effect1_dropShadow_9_2498" result="shape"/>
</filter>
<clipPath id="clip0_9_2498">
<rect x="8" y="66" width="297" height="45" rx="4" fill="white"/>
</clipPath>
</defs>
</svg>
