<svg width="447" height="176" viewBox="0 0 447 176" fill="none" xmlns="http://www.w3.org/2000/svg">
<g filter="url(#filter0_d_9_2391)">
<rect x="8" y="4" width="431" height="160" rx="10" fill="white"/>
<path d="M49.8726 55H46.1616L46.186 53.0835H49.8726C51.1421 53.0835 52.2 52.819 53.0464 52.29C53.8927 51.7529 54.5275 51.0042 54.9507 50.0439C55.382 49.0755 55.5977 47.9443 55.5977 46.6504V45.564C55.5977 44.5467 55.4756 43.6434 55.2314 42.854C54.9873 42.0565 54.6292 41.3851 54.1572 40.8398C53.6852 40.2865 53.1074 39.8674 52.4238 39.5825C51.7484 39.2977 50.9712 39.1553 50.0923 39.1553H46.0884V37.2266H50.0923C51.256 37.2266 52.318 37.4219 53.2783 37.8125C54.2386 38.195 55.0646 38.7524 55.7563 39.4849C56.4562 40.2091 56.9933 41.0881 57.3677 42.1216C57.742 43.147 57.9292 44.3026 57.9292 45.5884V46.6504C57.9292 47.9362 57.742 49.0959 57.3677 50.1294C56.9933 51.1548 56.4521 52.0296 55.7441 52.7539C55.0443 53.4782 54.1979 54.0356 53.2051 54.4263C52.2204 54.8088 51.1095 55 49.8726 55ZM47.4189 37.2266V55H45.063V37.2266H47.4189ZM63.5811 41.792V55H61.3105V41.792H63.5811ZM61.1396 38.2886C61.1396 37.9224 61.2495 37.6131 61.4692 37.3608C61.6971 37.1086 62.0308 36.9824 62.4702 36.9824C62.9015 36.9824 63.2311 37.1086 63.459 37.3608C63.695 37.6131 63.813 37.9224 63.813 38.2886C63.813 38.6385 63.695 38.9396 63.459 39.1919C63.2311 39.436 62.9015 39.5581 62.4702 39.5581C62.0308 39.5581 61.6971 39.436 61.4692 39.1919C61.2495 38.9396 61.1396 38.6385 61.1396 38.2886ZM74.897 51.4966C74.897 51.1711 74.8237 50.87 74.6772 50.5933C74.5389 50.3084 74.25 50.0521 73.8105 49.8242C73.3792 49.5882 72.7282 49.3848 71.8574 49.2139C71.125 49.0592 70.4618 48.8761 69.8677 48.6646C69.2817 48.453 68.7812 48.1966 68.3662 47.8955C67.9593 47.5944 67.646 47.2404 67.4263 46.8335C67.2065 46.4266 67.0967 45.9505 67.0967 45.4053C67.0967 44.8844 67.2106 44.3921 67.4385 43.9282C67.6745 43.4644 68.0041 43.0534 68.4272 42.6953C68.8586 42.3372 69.3753 42.0565 69.9775 41.853C70.5798 41.6496 71.2511 41.5479 71.9917 41.5479C73.0496 41.5479 73.953 41.735 74.7017 42.1094C75.4504 42.4837 76.0241 42.9842 76.4229 43.6108C76.8216 44.2293 77.021 44.917 77.021 45.6738H74.7627C74.7627 45.3076 74.6528 44.9536 74.4331 44.6118C74.2215 44.2619 73.9082 43.973 73.4932 43.7451C73.0863 43.5173 72.5858 43.4033 71.9917 43.4033C71.3651 43.4033 70.8564 43.501 70.4658 43.6963C70.0833 43.8835 69.8026 44.1235 69.6235 44.4165C69.4526 44.7095 69.3672 45.0187 69.3672 45.3442C69.3672 45.5884 69.4079 45.8081 69.4893 46.0034C69.5788 46.1906 69.7334 46.3656 69.9531 46.5283C70.1729 46.6829 70.4821 46.8294 70.8809 46.9678C71.2796 47.1061 71.7882 47.2445 72.4067 47.3828C73.4891 47.627 74.3802 47.9199 75.0801 48.2617C75.7799 48.6035 76.3008 49.0226 76.6426 49.519C76.9844 50.0155 77.1553 50.6177 77.1553 51.3257C77.1553 51.9035 77.0332 52.4325 76.7891 52.9126C76.5531 53.3927 76.2072 53.8078 75.7515 54.1577C75.3039 54.4995 74.7668 54.7681 74.1401 54.9634C73.5216 55.1506 72.8258 55.2441 72.0527 55.2441C70.889 55.2441 69.9043 55.0366 69.0986 54.6216C68.293 54.2065 67.6826 53.6694 67.2676 53.0103C66.8525 52.3511 66.645 51.6553 66.645 50.9229H68.9155C68.9481 51.5413 69.1271 52.0337 69.4526 52.3999C69.7782 52.758 70.1769 53.0143 70.6489 53.1689C71.1209 53.3154 71.5889 53.3887 72.0527 53.3887C72.6712 53.3887 73.188 53.3073 73.603 53.1445C74.0262 52.9818 74.3477 52.758 74.5674 52.4731C74.7871 52.1883 74.897 51.8628 74.897 51.4966ZM85.4072 53.3887C85.9443 53.3887 86.4408 53.2788 86.8965 53.0591C87.3522 52.8394 87.7266 52.5382 88.0195 52.1558C88.3125 51.7651 88.4793 51.3216 88.52 50.8252H90.6685C90.6278 51.6064 90.3633 52.3348 89.875 53.0103C89.3949 53.6776 88.7642 54.2188 87.9829 54.6338C87.2017 55.0407 86.3431 55.2441 85.4072 55.2441C84.4144 55.2441 83.5477 55.0692 82.8071 54.7192C82.0747 54.3693 81.4644 53.8892 80.9761 53.2788C80.4959 52.6685 80.1338 51.9686 79.8896 51.1792C79.6536 50.3817 79.5356 49.5394 79.5356 48.6523V48.1396C79.5356 47.2526 79.6536 46.4144 79.8896 45.625C80.1338 44.8275 80.4959 44.1235 80.9761 43.5132C81.4644 42.9028 82.0747 42.4227 82.8071 42.0728C83.5477 41.7228 84.4144 41.5479 85.4072 41.5479C86.4408 41.5479 87.3441 41.7594 88.1172 42.1826C88.8903 42.5977 89.4966 43.1673 89.936 43.8916C90.3836 44.6077 90.6278 45.4215 90.6685 46.333H88.52C88.4793 45.7878 88.3247 45.2954 88.0562 44.856C87.7957 44.4165 87.4377 44.0666 86.9819 43.8062C86.5343 43.5376 86.0094 43.4033 85.4072 43.4033C84.7155 43.4033 84.1336 43.5417 83.6616 43.8184C83.1978 44.0869 82.8275 44.4531 82.5508 44.917C82.2822 45.3727 82.0869 45.8813 81.9648 46.4429C81.8509 46.9963 81.7939 47.5618 81.7939 48.1396V48.6523C81.7939 49.2301 81.8509 49.7998 81.9648 50.3613C82.0788 50.9229 82.27 51.4315 82.5386 51.8872C82.8153 52.3429 83.1855 52.7091 83.6494 52.9858C84.1214 53.2544 84.7074 53.3887 85.4072 53.3887ZM100.996 52.7417V45.9424C100.996 45.4215 100.89 44.9699 100.678 44.5874C100.475 44.1968 100.166 43.8957 99.7505 43.6841C99.3354 43.4725 98.8228 43.3667 98.2124 43.3667C97.6427 43.3667 97.1423 43.4644 96.7109 43.6597C96.2878 43.855 95.9541 44.1113 95.71 44.4287C95.474 44.7461 95.356 45.0879 95.356 45.4541H93.0977C93.0977 44.9821 93.2197 44.5142 93.4639 44.0503C93.708 43.5864 94.0579 43.1673 94.5137 42.793C94.9775 42.4105 95.5309 42.1094 96.1738 41.8896C96.8249 41.6618 97.5492 41.5479 98.3467 41.5479C99.307 41.5479 100.153 41.7106 100.886 42.0361C101.626 42.3617 102.204 42.854 102.619 43.5132C103.042 44.1642 103.254 44.9821 103.254 45.9668V52.1191C103.254 52.5586 103.291 53.0265 103.364 53.5229C103.445 54.0194 103.563 54.4466 103.718 54.8047V55H101.362C101.248 54.7396 101.158 54.3937 101.093 53.9624C101.028 53.5229 100.996 53.116 100.996 52.7417ZM101.386 46.9922L101.411 48.5791H99.1279C98.485 48.5791 97.9113 48.632 97.4067 48.7378C96.9022 48.8354 96.479 48.986 96.1372 49.1895C95.7954 49.3929 95.535 49.6493 95.356 49.9585C95.1769 50.2596 95.0874 50.6136 95.0874 51.0205C95.0874 51.4355 95.181 51.814 95.3682 52.1558C95.5553 52.4976 95.8361 52.7702 96.2104 52.9736C96.5929 53.1689 97.0609 53.2666 97.6143 53.2666C98.306 53.2666 98.9163 53.1201 99.4453 52.8271C99.9743 52.5342 100.393 52.1761 100.703 51.7529C101.02 51.3298 101.191 50.9188 101.215 50.52L102.18 51.6064C102.123 51.9482 101.968 52.3267 101.716 52.7417C101.464 53.1567 101.126 53.5555 100.703 53.938C100.288 54.3123 99.7912 54.6257 99.2134 54.8779C98.6437 55.1221 98.0008 55.2441 97.2847 55.2441C96.3895 55.2441 95.6042 55.0692 94.9287 54.7192C94.2614 54.3693 93.7406 53.9014 93.3662 53.3154C93 52.7214 92.8169 52.0581 92.8169 51.3257C92.8169 50.6177 92.9552 49.9951 93.2319 49.458C93.5086 48.9128 93.9074 48.4611 94.4282 48.103C94.9491 47.7368 95.5757 47.4601 96.3081 47.2729C97.0405 47.0858 97.8584 46.9922 98.7617 46.9922H101.386ZM109.064 43.8672V55H106.806V41.792H109.003L109.064 43.8672ZM113.19 41.7188L113.178 43.8184C112.991 43.7777 112.812 43.7533 112.641 43.7451C112.478 43.7288 112.291 43.7207 112.08 43.7207C111.559 43.7207 111.099 43.8021 110.7 43.9648C110.301 44.1276 109.964 44.3555 109.687 44.6484C109.41 44.9414 109.191 45.2913 109.028 45.6982C108.873 46.097 108.771 46.5365 108.723 47.0166L108.088 47.3828C108.088 46.5853 108.165 45.8366 108.32 45.1367C108.483 44.4368 108.731 43.8184 109.064 43.2812C109.398 42.736 109.821 42.3128 110.334 42.0117C110.855 41.7025 111.473 41.5479 112.189 41.5479C112.352 41.5479 112.539 41.5682 112.751 41.6089C112.963 41.6414 113.109 41.6781 113.19 41.7188ZM123.359 52.4365V36.25H125.629V55H123.554L123.359 52.4365ZM114.472 48.5425V48.2861C114.472 47.277 114.594 46.3615 114.838 45.5396C115.091 44.7095 115.445 43.9974 115.9 43.4033C116.364 42.8092 116.914 42.3535 117.548 42.0361C118.191 41.7106 118.907 41.5479 119.697 41.5479C120.527 41.5479 121.251 41.6943 121.87 41.9873C122.496 42.2721 123.025 42.6912 123.457 43.2446C123.896 43.7899 124.242 44.4491 124.494 45.2222C124.746 45.9953 124.921 46.8701 125.019 47.8467V48.9697C124.93 49.9382 124.755 50.8089 124.494 51.582C124.242 52.3551 123.896 53.0143 123.457 53.5596C123.025 54.1048 122.496 54.5239 121.87 54.8169C121.243 55.1017 120.511 55.2441 119.672 55.2441C118.899 55.2441 118.191 55.0773 117.548 54.7437C116.914 54.41 116.364 53.9421 115.9 53.3398C115.445 52.7376 115.091 52.0296 114.838 51.2158C114.594 50.3939 114.472 49.5028 114.472 48.5425ZM116.743 48.2861V48.5425C116.743 49.2017 116.808 49.8201 116.938 50.3979C117.076 50.9757 117.288 51.4844 117.573 51.9238C117.858 52.3633 118.22 52.7091 118.659 52.9614C119.099 53.2056 119.624 53.3276 120.234 53.3276C120.983 53.3276 121.597 53.1689 122.077 52.8516C122.565 52.5342 122.956 52.1151 123.249 51.5942C123.542 51.0734 123.77 50.5078 123.933 49.8975V46.9556C123.835 46.508 123.693 46.0767 123.505 45.6616C123.326 45.2384 123.09 44.8641 122.797 44.5386C122.513 44.2049 122.159 43.9404 121.735 43.7451C121.32 43.5498 120.828 43.4521 120.258 43.4521C119.64 43.4521 119.107 43.5824 118.659 43.8428C118.22 44.0951 117.858 44.445 117.573 44.8926C117.288 45.332 117.076 45.8447 116.938 46.4307C116.808 47.0085 116.743 47.627 116.743 48.2861ZM143.671 52.4365V36.25H145.942V55H143.867L143.671 52.4365ZM134.785 48.5425V48.2861C134.785 47.277 134.907 46.3615 135.151 45.5396C135.403 44.7095 135.757 43.9974 136.213 43.4033C136.677 42.8092 137.226 42.3535 137.861 42.0361C138.504 41.7106 139.22 41.5479 140.009 41.5479C140.839 41.5479 141.564 41.6943 142.182 41.9873C142.809 42.2721 143.338 42.6912 143.769 43.2446C144.208 43.7899 144.554 44.4491 144.807 45.2222C145.059 45.9953 145.234 46.8701 145.332 47.8467V48.9697C145.242 49.9382 145.067 50.8089 144.807 51.582C144.554 52.3551 144.208 53.0143 143.769 53.5596C143.338 54.1048 142.809 54.5239 142.182 54.8169C141.556 55.1017 140.823 55.2441 139.985 55.2441C139.212 55.2441 138.504 55.0773 137.861 54.7437C137.226 54.41 136.677 53.9421 136.213 53.3398C135.757 52.7376 135.403 52.0296 135.151 51.2158C134.907 50.3939 134.785 49.5028 134.785 48.5425ZM137.055 48.2861V48.5425C137.055 49.2017 137.12 49.8201 137.25 50.3979C137.389 50.9757 137.6 51.4844 137.885 51.9238C138.17 52.3633 138.532 52.7091 138.972 52.9614C139.411 53.2056 139.936 53.3276 140.546 53.3276C141.295 53.3276 141.91 53.1689 142.39 52.8516C142.878 52.5342 143.269 52.1151 143.562 51.5942C143.854 51.0734 144.082 50.5078 144.245 49.8975V46.9556C144.147 46.508 144.005 46.0767 143.818 45.6616C143.639 45.2384 143.403 44.8641 143.11 44.5386C142.825 44.2049 142.471 43.9404 142.048 43.7451C141.633 43.5498 141.14 43.4521 140.571 43.4521C139.952 43.4521 139.419 43.5824 138.972 43.8428C138.532 44.0951 138.17 44.445 137.885 44.8926C137.6 45.332 137.389 45.8447 137.25 46.4307C137.12 47.0085 137.055 47.627 137.055 48.2861ZM151.716 43.8672V55H149.458V41.792H151.655L151.716 43.8672ZM155.842 41.7188L155.83 43.8184C155.642 43.7777 155.463 43.7533 155.292 43.7451C155.13 43.7288 154.943 43.7207 154.731 43.7207C154.21 43.7207 153.75 43.8021 153.352 43.9648C152.953 44.1276 152.615 44.3555 152.338 44.6484C152.062 44.9414 151.842 45.2913 151.679 45.6982C151.525 46.097 151.423 46.5365 151.374 47.0166L150.739 47.3828C150.739 46.5853 150.817 45.8366 150.971 45.1367C151.134 44.4368 151.382 43.8184 151.716 43.2812C152.049 42.736 152.473 42.3128 152.985 42.0117C153.506 41.7025 154.125 41.5479 154.841 41.5479C155.004 41.5479 155.191 41.5682 155.402 41.6089C155.614 41.6414 155.76 41.6781 155.842 41.7188ZM165.229 52.7417V45.9424C165.229 45.4215 165.123 44.9699 164.912 44.5874C164.708 44.1968 164.399 43.8957 163.984 43.6841C163.569 43.4725 163.056 43.3667 162.446 43.3667C161.876 43.3667 161.376 43.4644 160.944 43.6597C160.521 43.855 160.188 44.1113 159.943 44.4287C159.707 44.7461 159.589 45.0879 159.589 45.4541H157.331C157.331 44.9821 157.453 44.5142 157.697 44.0503C157.941 43.5864 158.291 43.1673 158.747 42.793C159.211 42.4105 159.764 42.1094 160.407 41.8896C161.058 41.6618 161.783 41.5479 162.58 41.5479C163.54 41.5479 164.387 41.7106 165.119 42.0361C165.86 42.3617 166.438 42.854 166.853 43.5132C167.276 44.1642 167.487 44.9821 167.487 45.9668V52.1191C167.487 52.5586 167.524 53.0265 167.597 53.5229C167.679 54.0194 167.797 54.4466 167.951 54.8047V55H165.595C165.481 54.7396 165.392 54.3937 165.327 53.9624C165.262 53.5229 165.229 53.116 165.229 52.7417ZM165.62 46.9922L165.644 48.5791H163.361C162.718 48.5791 162.145 48.632 161.64 48.7378C161.136 48.8354 160.712 48.986 160.371 49.1895C160.029 49.3929 159.768 49.6493 159.589 49.9585C159.41 50.2596 159.321 50.6136 159.321 51.0205C159.321 51.4355 159.414 51.814 159.602 52.1558C159.789 52.4976 160.069 52.7702 160.444 52.9736C160.826 53.1689 161.294 53.2666 161.848 53.2666C162.539 53.2666 163.15 53.1201 163.679 52.8271C164.208 52.5342 164.627 52.1761 164.936 51.7529C165.253 51.3298 165.424 50.9188 165.449 50.52L166.413 51.6064C166.356 51.9482 166.201 52.3267 165.949 52.7417C165.697 53.1567 165.359 53.5555 164.936 53.938C164.521 54.3123 164.025 54.6257 163.447 54.8779C162.877 55.1221 162.234 55.2441 161.518 55.2441C160.623 55.2441 159.838 55.0692 159.162 54.7192C158.495 54.3693 157.974 53.9014 157.6 53.3154C157.233 52.7214 157.05 52.0581 157.05 51.3257C157.05 50.6177 157.189 49.9951 157.465 49.458C157.742 48.9128 158.141 48.4611 158.662 48.103C159.182 47.7368 159.809 47.4601 160.542 47.2729C161.274 47.0858 162.092 46.9922 162.995 46.9922H165.62ZM174.409 55H172.15V40.4004C172.15 39.4482 172.321 38.6466 172.663 37.9956C173.013 37.3364 173.514 36.84 174.165 36.5063C174.816 36.1646 175.589 35.9937 176.484 35.9937C176.744 35.9937 177.005 36.0099 177.265 36.0425C177.534 36.075 177.794 36.1239 178.046 36.189L177.924 38.0322C177.753 37.9915 177.558 37.9631 177.338 37.9468C177.127 37.9305 176.915 37.9224 176.704 37.9224C176.223 37.9224 175.808 38.02 175.458 38.2153C175.117 38.4025 174.856 38.6792 174.677 39.0454C174.498 39.4116 174.409 39.8633 174.409 40.4004V55ZM177.216 41.792V43.5254H170.063V41.792H177.216ZM185.261 41.792V43.5254H178.12V41.792H185.261ZM180.537 38.5815H182.795V51.7285C182.795 52.1761 182.864 52.5138 183.002 52.7417C183.141 52.9696 183.32 53.1201 183.54 53.1934C183.759 53.2666 183.995 53.3032 184.248 53.3032C184.435 53.3032 184.63 53.2869 184.833 53.2544C185.045 53.2137 185.204 53.1812 185.31 53.1567L185.322 55C185.143 55.057 184.907 55.1099 184.614 55.1587C184.329 55.2157 183.983 55.2441 183.576 55.2441C183.023 55.2441 182.514 55.1343 182.05 54.9146C181.586 54.6948 181.216 54.3286 180.939 53.8159C180.671 53.2951 180.537 52.5952 180.537 51.7163V38.5815ZM199.018 49.9951H196.748C196.756 49.2139 196.825 48.575 196.955 48.0786C197.093 47.5741 197.317 47.1143 197.626 46.6992C197.936 46.2842 198.347 45.8122 198.859 45.2832C199.234 44.9007 199.576 44.5426 199.885 44.209C200.202 43.8672 200.458 43.501 200.654 43.1104C200.849 42.7116 200.947 42.2355 200.947 41.6821C200.947 41.1206 200.845 40.6364 200.642 40.2295C200.446 39.8226 200.153 39.5093 199.763 39.2896C199.38 39.0698 198.904 38.96 198.334 38.96C197.862 38.96 197.415 39.0454 196.992 39.2163C196.569 39.3872 196.227 39.6517 195.966 40.0098C195.706 40.3597 195.572 40.8195 195.563 41.3892H193.305C193.321 40.4696 193.549 39.6802 193.989 39.021C194.436 38.3618 195.039 37.8573 195.795 37.5073C196.552 37.1574 197.399 36.9824 198.334 36.9824C199.368 36.9824 200.247 37.1696 200.971 37.5439C201.704 37.9183 202.261 38.4554 202.644 39.1553C203.026 39.847 203.217 40.6689 203.217 41.6211C203.217 42.3535 203.067 43.029 202.766 43.6475C202.473 44.2578 202.094 44.8315 201.63 45.3687C201.167 45.9058 200.674 46.4185 200.153 46.9067C199.706 47.3218 199.405 47.7897 199.25 48.3105C199.095 48.8314 199.018 49.3929 199.018 49.9951ZM196.65 53.8647C196.65 53.4985 196.764 53.1893 196.992 52.937C197.22 52.6847 197.549 52.5586 197.98 52.5586C198.42 52.5586 198.754 52.6847 198.981 52.937C199.209 53.1893 199.323 53.4985 199.323 53.8647C199.323 54.2147 199.209 54.5158 198.981 54.7681C198.754 55.0203 198.42 55.1465 197.98 55.1465C197.549 55.1465 197.22 55.0203 196.992 54.7681C196.764 54.5158 196.65 54.2147 196.65 53.8647Z" fill="black"/>
<path d="M188.793 130.348H191.137C191.015 131.471 190.693 132.476 190.172 133.363C189.652 134.25 188.915 134.954 187.963 135.475C187.011 135.988 185.823 136.244 184.398 136.244C183.357 136.244 182.409 136.049 181.554 135.658C180.708 135.268 179.979 134.714 179.369 133.998C178.759 133.274 178.287 132.407 177.953 131.398C177.628 130.381 177.465 129.25 177.465 128.004V126.234C177.465 124.989 177.628 123.862 177.953 122.853C178.287 121.836 178.763 120.965 179.381 120.241C180.008 119.516 180.761 118.959 181.64 118.568C182.519 118.178 183.507 117.982 184.606 117.982C185.949 117.982 187.084 118.235 188.012 118.739C188.939 119.244 189.66 119.944 190.172 120.839C190.693 121.726 191.015 122.755 191.137 123.927H188.793C188.679 123.097 188.467 122.385 188.158 121.791C187.849 121.189 187.41 120.725 186.84 120.399C186.27 120.074 185.526 119.911 184.606 119.911C183.817 119.911 183.121 120.062 182.519 120.363C181.924 120.664 181.424 121.091 181.017 121.645C180.618 122.198 180.317 122.861 180.114 123.634C179.91 124.407 179.809 125.266 179.809 126.21V128.004C179.809 128.875 179.898 129.693 180.077 130.458C180.264 131.223 180.545 131.894 180.919 132.472C181.294 133.05 181.77 133.506 182.348 133.839C182.925 134.165 183.609 134.328 184.398 134.328C185.399 134.328 186.197 134.169 186.791 133.852C187.385 133.534 187.833 133.078 188.134 132.484C188.443 131.89 188.663 131.178 188.793 130.348ZM200.927 119.801L195.043 136H192.638L199.413 118.227H200.963L200.927 119.801ZM205.858 136L199.962 119.801L199.926 118.227H201.476L208.275 136H205.858ZM205.553 129.42V131.349H195.568V129.42H205.553ZM224.328 118.227V136H221.959L213.012 122.292V136H210.656V118.227H213.012L221.996 131.972V118.227H224.328ZM239.232 130.348H241.576C241.454 131.471 241.133 132.476 240.612 133.363C240.091 134.25 239.354 134.954 238.402 135.475C237.45 135.988 236.262 136.244 234.838 136.244C233.796 136.244 232.848 136.049 231.994 135.658C231.147 135.268 230.419 134.714 229.809 133.998C229.198 133.274 228.726 132.407 228.393 131.398C228.067 130.381 227.904 129.25 227.904 128.004V126.234C227.904 124.989 228.067 123.862 228.393 122.853C228.726 121.836 229.202 120.965 229.821 120.241C230.447 119.516 231.2 118.959 232.079 118.568C232.958 118.178 233.947 117.982 235.045 117.982C236.388 117.982 237.523 118.235 238.451 118.739C239.379 119.244 240.099 119.944 240.612 120.839C241.133 121.726 241.454 122.755 241.576 123.927H239.232C239.118 123.097 238.907 122.385 238.598 121.791C238.288 121.189 237.849 120.725 237.279 120.399C236.71 120.074 235.965 119.911 235.045 119.911C234.256 119.911 233.56 120.062 232.958 120.363C232.364 120.664 231.863 121.091 231.457 121.645C231.058 122.198 230.757 122.861 230.553 123.634C230.35 124.407 230.248 125.266 230.248 126.21V128.004C230.248 128.875 230.338 129.693 230.517 130.458C230.704 131.223 230.985 131.894 231.359 132.472C231.733 133.05 232.209 133.506 232.787 133.839C233.365 134.165 234.049 134.328 234.838 134.328C235.839 134.328 236.636 134.169 237.23 133.852C237.825 133.534 238.272 133.078 238.573 132.484C238.882 131.89 239.102 131.178 239.232 130.348ZM256.078 134.083V136H246.667V134.083H256.078ZM247.143 118.227V136H244.787V118.227H247.143ZM254.833 125.868V127.785H246.667V125.868H254.833ZM255.956 118.227V120.155H246.667V118.227H255.956ZM269.774 134.083V136H260.888V134.083H269.774ZM261.352 118.227V136H258.996V118.227H261.352Z" fill="black"/>
<path d="M312.873 136H309.162L309.186 134.083H312.873C314.142 134.083 315.2 133.819 316.046 133.29C316.893 132.753 317.528 132.004 317.951 131.044C318.382 130.076 318.598 128.944 318.598 127.65V126.564C318.598 125.547 318.476 124.643 318.231 123.854C317.987 123.056 317.629 122.385 317.157 121.84C316.685 121.286 316.107 120.867 315.424 120.583C314.748 120.298 313.971 120.155 313.092 120.155H309.088V118.227H313.092C314.256 118.227 315.318 118.422 316.278 118.812C317.239 119.195 318.065 119.752 318.756 120.485C319.456 121.209 319.993 122.088 320.368 123.122C320.742 124.147 320.929 125.303 320.929 126.588V127.65C320.929 128.936 320.742 130.096 320.368 131.129C319.993 132.155 319.452 133.03 318.744 133.754C318.044 134.478 317.198 135.036 316.205 135.426C315.22 135.809 314.11 136 312.873 136ZM310.419 118.227V136H308.063V118.227H310.419ZM326.996 118.227V136H324.64V118.227H326.996ZM340.753 131.508C340.753 131.093 340.688 130.727 340.558 130.409C340.436 130.084 340.216 129.791 339.899 129.53C339.59 129.27 339.158 129.022 338.605 128.786C338.06 128.55 337.368 128.31 336.53 128.065C335.651 127.805 334.857 127.516 334.149 127.199C333.441 126.873 332.835 126.503 332.331 126.088C331.826 125.673 331.439 125.197 331.171 124.66C330.902 124.123 330.768 123.508 330.768 122.816C330.768 122.125 330.91 121.486 331.195 120.9C331.48 120.314 331.887 119.805 332.416 119.374C332.953 118.935 333.592 118.593 334.333 118.349C335.073 118.104 335.899 117.982 336.811 117.982C338.145 117.982 339.276 118.239 340.204 118.751C341.14 119.256 341.852 119.919 342.34 120.741C342.829 121.555 343.073 122.426 343.073 123.354H340.729C340.729 122.686 340.587 122.096 340.302 121.583C340.017 121.063 339.586 120.656 339.008 120.363C338.43 120.062 337.698 119.911 336.811 119.911C335.972 119.911 335.281 120.037 334.735 120.29C334.19 120.542 333.783 120.884 333.515 121.315C333.254 121.746 333.124 122.239 333.124 122.792C333.124 123.166 333.201 123.508 333.356 123.817C333.519 124.118 333.767 124.399 334.101 124.66C334.442 124.92 334.874 125.16 335.395 125.38C335.924 125.6 336.554 125.811 337.287 126.015C338.296 126.299 339.167 126.617 339.899 126.967C340.631 127.317 341.234 127.711 341.706 128.151C342.186 128.582 342.54 129.075 342.768 129.628C343.004 130.173 343.122 130.792 343.122 131.483C343.122 132.208 342.975 132.863 342.682 133.449C342.389 134.035 341.97 134.535 341.425 134.95C340.88 135.365 340.224 135.687 339.459 135.915C338.703 136.134 337.856 136.244 336.92 136.244C336.098 136.244 335.289 136.13 334.491 135.902C333.702 135.674 332.982 135.333 332.331 134.877C331.688 134.421 331.171 133.86 330.78 133.192C330.398 132.517 330.207 131.736 330.207 130.849H332.55C332.55 131.459 332.668 131.984 332.904 132.423C333.14 132.855 333.462 133.213 333.869 133.498C334.284 133.782 334.752 133.994 335.272 134.132C335.801 134.263 336.351 134.328 336.92 134.328C337.742 134.328 338.438 134.214 339.008 133.986C339.577 133.758 340.009 133.432 340.302 133.009C340.603 132.586 340.753 132.086 340.753 131.508ZM356.854 130.348H359.198C359.076 131.471 358.755 132.476 358.234 133.363C357.713 134.25 356.977 134.954 356.024 135.475C355.072 135.988 353.884 136.244 352.46 136.244C351.418 136.244 350.47 136.049 349.616 135.658C348.769 135.268 348.041 134.714 347.431 133.998C346.82 133.274 346.348 132.407 346.015 131.398C345.689 130.381 345.526 129.25 345.526 128.004V126.234C345.526 124.989 345.689 123.862 346.015 122.853C346.348 121.836 346.824 120.965 347.443 120.241C348.069 119.516 348.822 118.959 349.701 118.568C350.58 118.178 351.569 117.982 352.667 117.982C354.01 117.982 355.146 118.235 356.073 118.739C357.001 119.244 357.721 119.944 358.234 120.839C358.755 121.726 359.076 122.755 359.198 123.927H356.854C356.741 123.097 356.529 122.385 356.22 121.791C355.91 121.189 355.471 120.725 354.901 120.399C354.332 120.074 353.587 119.911 352.667 119.911C351.878 119.911 351.182 120.062 350.58 120.363C349.986 120.664 349.486 121.091 349.079 121.645C348.68 122.198 348.379 122.861 348.175 123.634C347.972 124.407 347.87 125.266 347.87 126.21V128.004C347.87 128.875 347.96 129.693 348.139 130.458C348.326 131.223 348.607 131.894 348.981 132.472C349.355 133.05 349.831 133.506 350.409 133.839C350.987 134.165 351.671 134.328 352.46 134.328C353.461 134.328 354.258 134.169 354.853 133.852C355.447 133.534 355.894 133.078 356.195 132.484C356.505 131.89 356.724 131.178 356.854 130.348ZM368.988 119.801L363.104 136H360.7L367.475 118.227H369.025L368.988 119.801ZM373.92 136L368.024 119.801L367.987 118.227H369.538L376.337 136H373.92ZM373.615 129.42V131.349H363.629V129.42H373.615ZM378.717 118.227H384.601C385.936 118.227 387.063 118.43 387.982 118.837C388.91 119.244 389.614 119.846 390.094 120.644C390.583 121.433 390.827 122.405 390.827 123.561C390.827 124.375 390.66 125.119 390.326 125.795C390.001 126.462 389.529 127.032 388.91 127.504C388.3 127.968 387.567 128.314 386.713 128.542L386.054 128.798H380.524L380.5 126.881H384.674C385.521 126.881 386.225 126.735 386.786 126.442C387.348 126.141 387.771 125.738 388.056 125.233C388.34 124.729 388.483 124.171 388.483 123.561C388.483 122.877 388.349 122.279 388.08 121.767C387.812 121.254 387.388 120.859 386.811 120.583C386.241 120.298 385.504 120.155 384.601 120.155H381.073V136H378.717V118.227ZM389.105 136L384.784 127.943L387.238 127.931L391.62 135.854V136H389.105ZM398.932 136H395.221L395.246 134.083H398.932C400.202 134.083 401.26 133.819 402.106 133.29C402.952 132.753 403.587 132.004 404.01 131.044C404.442 130.076 404.657 128.944 404.657 127.65V126.564C404.657 125.547 404.535 124.643 404.291 123.854C404.047 123.056 403.689 122.385 403.217 121.84C402.745 121.286 402.167 120.867 401.483 120.583C400.808 120.298 400.031 120.155 399.152 120.155H395.148V118.227H399.152C400.316 118.227 401.378 118.422 402.338 118.812C403.298 119.195 404.124 119.752 404.816 120.485C405.516 121.209 406.053 122.088 406.427 123.122C406.802 124.147 406.989 125.303 406.989 126.588V127.65C406.989 128.936 406.802 130.096 406.427 131.129C406.053 132.155 405.512 133.03 404.804 133.754C404.104 134.478 403.257 135.036 402.265 135.426C401.28 135.809 400.169 136 398.932 136ZM396.479 118.227V136H394.123V118.227H396.479Z" fill="black"/>
</g>
<defs>
<filter id="filter0_d_9_2391" x="0" y="0" width="447" height="176" filterUnits="userSpaceOnUse" color-interpolation-filters="sRGB">
<feFlood flood-opacity="0" result="BackgroundImageFix"/>
<feColorMatrix in="SourceAlpha" type="matrix" values="0 0 0 0 0 0 0 0 0 0 0 0 0 0 0 0 0 0 127 0" result="hardAlpha"/>
<feOffset dy="4"/>
<feGaussianBlur stdDeviation="4"/>
<feComposite in2="hardAlpha" operator="out"/>
<feColorMatrix type="matrix" values="0 0 0 0 0 0 0 0 0 0 0 0 0 0 0 0 0 0 0.2 0"/>
<feBlend mode="normal" in2="BackgroundImageFix" result="effect1_dropShadow_9_2391"/>
<feBlend mode="normal" in="SourceGraphic" in2="effect1_dropShadow_9_2391" result="shape"/>
</filter>
</defs>
</svg>
