<svg width="313" height="123" viewBox="0 0 313 123" fill="none" xmlns="http://www.w3.org/2000/svg">
<g filter="url(#filter0_d_9_2416)">
<rect x="8" y="4" width="297" height="45" rx="4" fill="white"/>
<rect x="243" y="16" width="50" height="22" rx="5" fill="#0F96DF"/>
<path d="M259.164 30.0801V31H254.898V30.0801H259.164ZM255.121 22.4688V31H253.99V22.4688H255.121ZM260.008 27.9004V27.7656C260.008 27.3086 260.074 26.8848 260.207 26.4941C260.34 26.0996 260.531 25.7578 260.781 25.4688C261.031 25.1758 261.334 24.9492 261.689 24.7891C262.045 24.625 262.443 24.543 262.885 24.543C263.33 24.543 263.73 24.625 264.086 24.7891C264.445 24.9492 264.75 25.1758 265 25.4688C265.254 25.7578 265.447 26.0996 265.58 26.4941C265.713 26.8848 265.779 27.3086 265.779 27.7656V27.9004C265.779 28.3574 265.713 28.7812 265.58 29.1719C265.447 29.5625 265.254 29.9043 265 30.1973C264.75 30.4863 264.447 30.7129 264.092 30.877C263.74 31.0371 263.342 31.1172 262.896 31.1172C262.451 31.1172 262.051 31.0371 261.695 30.877C261.34 30.7129 261.035 30.4863 260.781 30.1973C260.531 29.9043 260.34 29.5625 260.207 29.1719C260.074 28.7812 260.008 28.3574 260.008 27.9004ZM261.092 27.7656V27.9004C261.092 28.2168 261.129 28.5156 261.203 28.7969C261.277 29.0742 261.389 29.3203 261.537 29.5352C261.689 29.75 261.879 29.9199 262.105 30.0449C262.332 30.166 262.596 30.2266 262.896 30.2266C263.193 30.2266 263.453 30.166 263.676 30.0449C263.902 29.9199 264.09 29.75 264.238 29.5352C264.387 29.3203 264.498 29.0742 264.572 28.7969C264.65 28.5156 264.689 28.2168 264.689 27.9004V27.7656C264.689 27.4531 264.65 27.1582 264.572 26.8809C264.498 26.5996 264.385 26.3516 264.232 26.1367C264.084 25.918 263.896 25.7461 263.67 25.6211C263.447 25.4961 263.186 25.4336 262.885 25.4336C262.588 25.4336 262.326 25.4961 262.1 25.6211C261.877 25.7461 261.689 25.918 261.537 26.1367C261.389 26.3516 261.277 26.5996 261.203 26.8809C261.129 27.1582 261.092 27.4531 261.092 27.7656ZM271.246 24.6602H272.23V30.8652C272.23 31.4238 272.117 31.9004 271.891 32.2949C271.664 32.6895 271.348 32.9883 270.941 33.1914C270.539 33.3984 270.074 33.502 269.547 33.502C269.328 33.502 269.07 33.4668 268.773 33.3965C268.48 33.3301 268.191 33.2148 267.906 33.0508C267.625 32.8906 267.389 32.6738 267.197 32.4004L267.766 31.7559C268.031 32.0762 268.309 32.2988 268.598 32.4238C268.891 32.5488 269.18 32.6113 269.465 32.6113C269.809 32.6113 270.105 32.5469 270.355 32.418C270.605 32.2891 270.799 32.0977 270.936 31.8438C271.076 31.5938 271.146 31.2852 271.146 30.918V26.0547L271.246 24.6602ZM266.881 27.9004V27.7773C266.881 27.293 266.938 26.8535 267.051 26.459C267.168 26.0605 267.334 25.7188 267.549 25.4336C267.768 25.1484 268.031 24.9297 268.34 24.7773C268.648 24.6211 268.996 24.543 269.383 24.543C269.781 24.543 270.129 24.6133 270.426 24.7539C270.727 24.8906 270.98 25.0918 271.188 25.3574C271.398 25.6191 271.564 25.9355 271.686 26.3066C271.807 26.6777 271.891 27.0977 271.938 27.5664V28.1055C271.895 28.5703 271.811 28.9883 271.686 29.3594C271.564 29.7305 271.398 30.0469 271.188 30.3086C270.98 30.5703 270.727 30.7715 270.426 30.9121C270.125 31.0488 269.773 31.1172 269.371 31.1172C268.992 31.1172 268.648 31.0371 268.34 30.877C268.035 30.7168 267.773 30.4922 267.555 30.2031C267.336 29.9141 267.168 29.5742 267.051 29.1836C266.938 28.7891 266.881 28.3613 266.881 27.9004ZM267.965 27.7773V27.9004C267.965 28.2168 267.996 28.5137 268.059 28.791C268.125 29.0684 268.225 29.3125 268.357 29.5234C268.494 29.7344 268.668 29.9004 268.879 30.0215C269.09 30.1387 269.342 30.1973 269.635 30.1973C269.994 30.1973 270.291 30.1211 270.525 29.9688C270.76 29.8164 270.945 29.6152 271.082 29.3652C271.223 29.1152 271.332 28.8438 271.41 28.5508V27.1387C271.367 26.9238 271.301 26.7168 271.211 26.5176C271.125 26.3145 271.012 26.1348 270.871 25.9785C270.734 25.8184 270.564 25.6914 270.361 25.5977C270.158 25.5039 269.92 25.457 269.646 25.457C269.35 25.457 269.094 25.5195 268.879 25.6445C268.668 25.7656 268.494 25.9336 268.357 26.1484C268.225 26.3594 268.125 26.6055 268.059 26.8867C267.996 27.1641 267.965 27.4609 267.965 27.7773ZM275.055 24.6602V31H273.965V24.6602H275.055ZM273.883 22.9785C273.883 22.8027 273.936 22.6543 274.041 22.5332C274.15 22.4121 274.311 22.3516 274.521 22.3516C274.729 22.3516 274.887 22.4121 274.996 22.5332C275.109 22.6543 275.166 22.8027 275.166 22.9785C275.166 23.1465 275.109 23.291 274.996 23.4121C274.887 23.5293 274.729 23.5879 274.521 23.5879C274.311 23.5879 274.15 23.5293 274.041 23.4121C273.936 23.291 273.883 23.1465 273.883 22.9785ZM277.879 26.0137V31H276.795V24.6602H277.82L277.879 26.0137ZM277.621 27.5898L277.17 27.5723C277.174 27.1387 277.238 26.7383 277.363 26.3711C277.488 26 277.664 25.6777 277.891 25.4043C278.117 25.1309 278.387 24.9199 278.699 24.7715C279.016 24.6191 279.365 24.543 279.748 24.543C280.061 24.543 280.342 24.5859 280.592 24.6719C280.842 24.7539 281.055 24.8867 281.23 25.0703C281.41 25.2539 281.547 25.4922 281.641 25.7852C281.734 26.0742 281.781 26.4277 281.781 26.8457V31H280.691V26.834C280.691 26.502 280.643 26.2363 280.545 26.0371C280.447 25.834 280.305 25.6875 280.117 25.5977C279.93 25.5039 279.699 25.457 279.426 25.457C279.156 25.457 278.91 25.5137 278.688 25.627C278.469 25.7402 278.279 25.8965 278.119 26.0957C277.963 26.2949 277.84 26.5234 277.75 26.7812C277.664 27.0352 277.621 27.3047 277.621 27.5898Z" fill="white"/>
<path d="M28.1406 28.2871H29.2656C29.207 28.8262 29.0527 29.3086 28.8027 29.7344C28.5527 30.1602 28.1992 30.498 27.7422 30.748C27.2852 30.9941 26.7148 31.1172 26.0312 31.1172C25.5312 31.1172 25.0762 31.0234 24.666 30.8359C24.2598 30.6484 23.9102 30.3828 23.6172 30.0391C23.3242 29.6914 23.0977 29.2754 22.9375 28.791C22.7812 28.3027 22.7031 27.7598 22.7031 27.1621V26.3125C22.7031 25.7148 22.7812 25.1738 22.9375 24.6895C23.0977 24.2012 23.3262 23.7832 23.623 23.4355C23.9238 23.0879 24.2852 22.8203 24.707 22.6328C25.1289 22.4453 25.6035 22.3516 26.1309 22.3516C26.7754 22.3516 27.3203 22.4727 27.7656 22.7148C28.2109 22.957 28.5566 23.293 28.8027 23.7227C29.0527 24.1484 29.207 24.6426 29.2656 25.2051H28.1406C28.0859 24.8066 27.9844 24.4648 27.8359 24.1797C27.6875 23.8906 27.4766 23.668 27.2031 23.5117C26.9297 23.3555 26.5723 23.2773 26.1309 23.2773C25.752 23.2773 25.418 23.3496 25.1289 23.4941C24.8438 23.6387 24.6035 23.8438 24.4082 24.1094C24.2168 24.375 24.0723 24.6934 23.9746 25.0645C23.877 25.4355 23.8281 25.8477 23.8281 26.3008V27.1621C23.8281 27.5801 23.8711 27.9727 23.957 28.3398C24.0469 28.707 24.1816 29.0293 24.3613 29.3066C24.541 29.584 24.7695 29.8027 25.0469 29.9629C25.3242 30.1191 25.6523 30.1973 26.0312 30.1973C26.5117 30.1973 26.8945 30.1211 27.1797 29.9688C27.4648 29.8164 27.6797 29.5977 27.8242 29.3125C27.9727 29.0273 28.0781 28.6855 28.1406 28.2871ZM30.3555 27.9004V27.7656C30.3555 27.3086 30.4219 26.8848 30.5547 26.4941C30.6875 26.0996 30.8789 25.7578 31.1289 25.4688C31.3789 25.1758 31.6816 24.9492 32.0371 24.7891C32.3926 24.625 32.791 24.543 33.2324 24.543C33.6777 24.543 34.0781 24.625 34.4336 24.7891C34.793 24.9492 35.0977 25.1758 35.3477 25.4688C35.6016 25.7578 35.7949 26.0996 35.9277 26.4941C36.0605 26.8848 36.127 27.3086 36.127 27.7656V27.9004C36.127 28.3574 36.0605 28.7812 35.9277 29.1719C35.7949 29.5625 35.6016 29.9043 35.3477 30.1973C35.0977 30.4863 34.7949 30.7129 34.4395 30.877C34.0879 31.0371 33.6895 31.1172 33.2441 31.1172C32.7988 31.1172 32.3984 31.0371 32.043 30.877C31.6875 30.7129 31.3828 30.4863 31.1289 30.1973C30.8789 29.9043 30.6875 29.5625 30.5547 29.1719C30.4219 28.7812 30.3555 28.3574 30.3555 27.9004ZM31.4395 27.7656V27.9004C31.4395 28.2168 31.4766 28.5156 31.5508 28.7969C31.625 29.0742 31.7363 29.3203 31.8848 29.5352C32.0371 29.75 32.2266 29.9199 32.4531 30.0449C32.6797 30.166 32.9434 30.2266 33.2441 30.2266C33.541 30.2266 33.8008 30.166 34.0234 30.0449C34.25 29.9199 34.4375 29.75 34.5859 29.5352C34.7344 29.3203 34.8457 29.0742 34.9199 28.7969C34.998 28.5156 35.0371 28.2168 35.0371 27.9004V27.7656C35.0371 27.4531 34.998 27.1582 34.9199 26.8809C34.8457 26.5996 34.7324 26.3516 34.5801 26.1367C34.4316 25.918 34.2441 25.7461 34.0176 25.6211C33.7949 25.4961 33.5332 25.4336 33.2324 25.4336C32.9355 25.4336 32.6738 25.4961 32.4473 25.6211C32.2246 25.7461 32.0371 25.918 31.8848 26.1367C31.7363 26.3516 31.625 26.5996 31.5508 26.8809C31.4766 27.1582 31.4395 27.4531 31.4395 27.7656ZM38.5645 25.9199V31H37.4746V24.6602H38.5059L38.5645 25.9199ZM38.3418 27.5898L37.8379 27.5723C37.8418 27.1387 37.8984 26.7383 38.0078 26.3711C38.1172 26 38.2793 25.6777 38.4941 25.4043C38.709 25.1309 38.9766 24.9199 39.2969 24.7715C39.6172 24.6191 39.9883 24.543 40.4102 24.543C40.707 24.543 40.9805 24.5859 41.2305 24.6719C41.4805 24.7539 41.6973 24.8848 41.8809 25.0645C42.0645 25.2441 42.207 25.4746 42.3086 25.7559C42.4102 26.0371 42.4609 26.377 42.4609 26.7754V31H41.377V26.8281C41.377 26.4961 41.3203 26.2305 41.207 26.0312C41.0977 25.832 40.9414 25.6875 40.7383 25.5977C40.5352 25.5039 40.2969 25.457 40.0234 25.457C39.7031 25.457 39.4355 25.5137 39.2207 25.627C39.0059 25.7402 38.834 25.8965 38.7051 26.0957C38.5762 26.2949 38.4824 26.5234 38.4238 26.7812C38.3691 27.0352 38.3418 27.3047 38.3418 27.5898ZM42.4492 26.9922L41.7227 27.2148C41.7266 26.8672 41.7832 26.5332 41.8926 26.2129C42.0059 25.8926 42.168 25.6074 42.3789 25.3574C42.5938 25.1074 42.8574 24.9102 43.1699 24.7656C43.4824 24.6172 43.8398 24.543 44.2422 24.543C44.582 24.543 44.8828 24.5879 45.1445 24.6777C45.4102 24.7676 45.6328 24.9062 45.8125 25.0938C45.9961 25.2773 46.1348 25.5137 46.2285 25.8027C46.3223 26.0918 46.3691 26.4355 46.3691 26.834V31H45.2793V26.8223C45.2793 26.4668 45.2227 26.1914 45.1094 25.9961C45 25.7969 44.8438 25.6582 44.6406 25.5801C44.4414 25.498 44.2031 25.457 43.9258 25.457C43.6875 25.457 43.4766 25.498 43.293 25.5801C43.1094 25.6621 42.9551 25.7754 42.8301 25.9199C42.7051 26.0605 42.6094 26.2227 42.543 26.4062C42.4805 26.5898 42.4492 26.7852 42.4492 26.9922ZM49.0938 25.8789V33.4375H48.0039V24.6602H49L49.0938 25.8789ZM53.3652 27.7773V27.9004C53.3652 28.3613 53.3105 28.7891 53.2012 29.1836C53.0918 29.5742 52.9316 29.9141 52.7207 30.2031C52.5137 30.4922 52.2578 30.7168 51.9531 30.877C51.6484 31.0371 51.2988 31.1172 50.9043 31.1172C50.502 31.1172 50.1465 31.0508 49.8379 30.918C49.5293 30.7852 49.2676 30.5918 49.0527 30.3379C48.8379 30.084 48.666 29.7793 48.5371 29.4238C48.4121 29.0684 48.3262 28.668 48.2793 28.2227V27.5664C48.3262 27.0977 48.4141 26.6777 48.543 26.3066C48.6719 25.9355 48.8418 25.6191 49.0527 25.3574C49.2676 25.0918 49.5273 24.8906 49.832 24.7539C50.1367 24.6133 50.4883 24.543 50.8867 24.543C51.2852 24.543 51.6387 24.6211 51.9473 24.7773C52.2559 24.9297 52.5156 25.1484 52.7266 25.4336C52.9375 25.7188 53.0957 26.0605 53.2012 26.459C53.3105 26.8535 53.3652 27.293 53.3652 27.7773ZM52.2754 27.9004V27.7773C52.2754 27.4609 52.2422 27.1641 52.1758 26.8867C52.1094 26.6055 52.0059 26.3594 51.8652 26.1484C51.7285 25.9336 51.5527 25.7656 51.3379 25.6445C51.123 25.5195 50.8672 25.457 50.5703 25.457C50.2969 25.457 50.0586 25.5039 49.8555 25.5977C49.6562 25.6914 49.4863 25.8184 49.3457 25.9785C49.2051 26.1348 49.0898 26.3145 49 26.5176C48.9141 26.7168 48.8496 26.9238 48.8066 27.1387V28.6562C48.8848 28.9297 48.9941 29.1875 49.1348 29.4297C49.2754 29.668 49.4629 29.8613 49.6973 30.0098C49.9316 30.1543 50.2266 30.2266 50.582 30.2266C50.875 30.2266 51.127 30.166 51.3379 30.0449C51.5527 29.9199 51.7285 29.75 51.8652 29.5352C52.0059 29.3203 52.1094 29.0742 52.1758 28.7969C52.2422 28.5156 52.2754 28.2168 52.2754 27.9004ZM58.4863 29.916V26.6523C58.4863 26.4023 58.4355 26.1855 58.334 26.002C58.2363 25.8145 58.0879 25.6699 57.8887 25.5684C57.6895 25.4668 57.4434 25.416 57.1504 25.416C56.877 25.416 56.6367 25.4629 56.4297 25.5566C56.2266 25.6504 56.0664 25.7734 55.9492 25.9258C55.8359 26.0781 55.7793 26.2422 55.7793 26.418H54.6953C54.6953 26.1914 54.7539 25.9668 54.8711 25.7441C54.9883 25.5215 55.1562 25.3203 55.375 25.1406C55.5977 24.957 55.8633 24.8125 56.1719 24.707C56.4844 24.5977 56.832 24.543 57.2148 24.543C57.6758 24.543 58.082 24.6211 58.4336 24.7773C58.7891 24.9336 59.0664 25.1699 59.2656 25.4863C59.4688 25.7988 59.5703 26.1914 59.5703 26.6641V29.6172C59.5703 29.8281 59.5879 30.0527 59.623 30.291C59.6621 30.5293 59.7188 30.7344 59.793 30.9062V31H58.6621C58.6074 30.875 58.5645 30.709 58.5332 30.502C58.502 30.291 58.4863 30.0957 58.4863 29.916ZM58.6738 27.1562L58.6855 27.918H57.5898C57.2812 27.918 57.0059 27.9434 56.7637 27.9941C56.5215 28.041 56.3184 28.1133 56.1543 28.2109C55.9902 28.3086 55.8652 28.4316 55.7793 28.5801C55.6934 28.7246 55.6504 28.8945 55.6504 29.0898C55.6504 29.2891 55.6953 29.4707 55.7852 29.6348C55.875 29.7988 56.0098 29.9297 56.1895 30.0273C56.373 30.1211 56.5977 30.168 56.8633 30.168C57.1953 30.168 57.4883 30.0977 57.7422 29.957C57.9961 29.8164 58.1973 29.6445 58.3457 29.4414C58.498 29.2383 58.5801 29.041 58.5918 28.8496L59.0547 29.3711C59.0273 29.5352 58.9531 29.7168 58.832 29.916C58.7109 30.1152 58.5488 30.3066 58.3457 30.4902C58.1465 30.6699 57.9082 30.8203 57.6309 30.9414C57.3574 31.0586 57.0488 31.1172 56.7051 31.1172C56.2754 31.1172 55.8984 31.0332 55.5742 30.8652C55.2539 30.6973 55.0039 30.4727 54.8242 30.1914C54.6484 29.9062 54.5605 29.5879 54.5605 29.2363C54.5605 28.8965 54.627 28.5977 54.7598 28.3398C54.8926 28.0781 55.084 27.8613 55.334 27.6895C55.584 27.5137 55.8848 27.3809 56.2363 27.291C56.5879 27.2012 56.9805 27.1562 57.4141 27.1562H58.6738ZM62.3594 26.0137V31H61.2754V24.6602H62.3008L62.3594 26.0137ZM62.1016 27.5898L61.6504 27.5723C61.6543 27.1387 61.7188 26.7383 61.8438 26.3711C61.9688 26 62.1445 25.6777 62.3711 25.4043C62.5977 25.1309 62.8672 24.9199 63.1797 24.7715C63.4961 24.6191 63.8457 24.543 64.2285 24.543C64.541 24.543 64.8223 24.5859 65.0723 24.6719C65.3223 24.7539 65.5352 24.8867 65.7109 25.0703C65.8906 25.2539 66.0273 25.4922 66.1211 25.7852C66.2148 26.0742 66.2617 26.4277 66.2617 26.8457V31H65.1719V26.834C65.1719 26.502 65.123 26.2363 65.0254 26.0371C64.9277 25.834 64.7852 25.6875 64.5977 25.5977C64.4102 25.5039 64.1797 25.457 63.9062 25.457C63.6367 25.457 63.3906 25.5137 63.168 25.627C62.9492 25.7402 62.7598 25.8965 62.5996 26.0957C62.4434 26.2949 62.3203 26.5234 62.2305 26.7812C62.1445 27.0352 62.1016 27.3047 62.1016 27.5898ZM69.6895 30.3438L71.4531 24.6602H72.6133L70.0703 31.9785C70.0117 32.1348 69.9336 32.3027 69.8359 32.4824C69.7422 32.666 69.6211 32.8398 69.4727 33.0039C69.3242 33.168 69.1445 33.3008 68.9336 33.4023C68.7266 33.5078 68.4785 33.5605 68.1895 33.5605C68.1035 33.5605 67.9941 33.5488 67.8613 33.5254C67.7285 33.502 67.6348 33.4824 67.5801 33.4668L67.5742 32.5879C67.6055 32.5918 67.6543 32.5957 67.7207 32.5996C67.791 32.6074 67.8398 32.6113 67.8672 32.6113C68.1133 32.6113 68.3223 32.5781 68.4941 32.5117C68.666 32.4492 68.8105 32.3418 68.9277 32.1895C69.0488 32.041 69.1523 31.8359 69.2383 31.5742L69.6895 30.3438ZM68.3945 24.6602L70.041 29.582L70.3223 30.7246L69.543 31.123L67.2109 24.6602H68.3945ZM81.9062 30.0801V31H77.6406V30.0801H81.9062ZM77.8633 22.4688V31H76.7324V22.4688H77.8633ZM82.75 27.9004V27.7656C82.75 27.3086 82.8164 26.8848 82.9492 26.4941C83.082 26.0996 83.2734 25.7578 83.5234 25.4688C83.7734 25.1758 84.0762 24.9492 84.4316 24.7891C84.7871 24.625 85.1855 24.543 85.627 24.543C86.0723 24.543 86.4727 24.625 86.8281 24.7891C87.1875 24.9492 87.4922 25.1758 87.7422 25.4688C87.9961 25.7578 88.1895 26.0996 88.3223 26.4941C88.4551 26.8848 88.5215 27.3086 88.5215 27.7656V27.9004C88.5215 28.3574 88.4551 28.7812 88.3223 29.1719C88.1895 29.5625 87.9961 29.9043 87.7422 30.1973C87.4922 30.4863 87.1895 30.7129 86.834 30.877C86.4824 31.0371 86.084 31.1172 85.6387 31.1172C85.1934 31.1172 84.793 31.0371 84.4375 30.877C84.082 30.7129 83.7773 30.4863 83.5234 30.1973C83.2734 29.9043 83.082 29.5625 82.9492 29.1719C82.8164 28.7812 82.75 28.3574 82.75 27.9004ZM83.834 27.7656V27.9004C83.834 28.2168 83.8711 28.5156 83.9453 28.7969C84.0195 29.0742 84.1309 29.3203 84.2793 29.5352C84.4316 29.75 84.6211 29.9199 84.8477 30.0449C85.0742 30.166 85.3379 30.2266 85.6387 30.2266C85.9355 30.2266 86.1953 30.166 86.418 30.0449C86.6445 29.9199 86.832 29.75 86.9805 29.5352C87.1289 29.3203 87.2402 29.0742 87.3145 28.7969C87.3926 28.5156 87.4316 28.2168 87.4316 27.9004V27.7656C87.4316 27.4531 87.3926 27.1582 87.3145 26.8809C87.2402 26.5996 87.127 26.3516 86.9746 26.1367C86.8262 25.918 86.6387 25.7461 86.4121 25.6211C86.1895 25.4961 85.9277 25.4336 85.627 25.4336C85.3301 25.4336 85.0684 25.4961 84.8418 25.6211C84.6191 25.7461 84.4316 25.918 84.2793 26.1367C84.1309 26.3516 84.0195 26.5996 83.9453 26.8809C83.8711 27.1582 83.834 27.4531 83.834 27.7656ZM93.9883 24.6602H94.9727V30.8652C94.9727 31.4238 94.8594 31.9004 94.6328 32.2949C94.4062 32.6895 94.0898 32.9883 93.6836 33.1914C93.2812 33.3984 92.8164 33.502 92.2891 33.502C92.0703 33.502 91.8125 33.4668 91.5156 33.3965C91.2227 33.3301 90.9336 33.2148 90.6484 33.0508C90.3672 32.8906 90.1309 32.6738 89.9395 32.4004L90.5078 31.7559C90.7734 32.0762 91.0508 32.2988 91.3398 32.4238C91.6328 32.5488 91.9219 32.6113 92.207 32.6113C92.5508 32.6113 92.8477 32.5469 93.0977 32.418C93.3477 32.2891 93.541 32.0977 93.6777 31.8438C93.8184 31.5938 93.8887 31.2852 93.8887 30.918V26.0547L93.9883 24.6602ZM89.623 27.9004V27.7773C89.623 27.293 89.6797 26.8535 89.793 26.459C89.9102 26.0605 90.0762 25.7188 90.291 25.4336C90.5098 25.1484 90.7734 24.9297 91.082 24.7773C91.3906 24.6211 91.7383 24.543 92.125 24.543C92.5234 24.543 92.8711 24.6133 93.168 24.7539C93.4688 24.8906 93.7227 25.0918 93.9297 25.3574C94.1406 25.6191 94.3066 25.9355 94.4277 26.3066C94.5488 26.6777 94.6328 27.0977 94.6797 27.5664V28.1055C94.6367 28.5703 94.5527 28.9883 94.4277 29.3594C94.3066 29.7305 94.1406 30.0469 93.9297 30.3086C93.7227 30.5703 93.4688 30.7715 93.168 30.9121C92.8672 31.0488 92.5156 31.1172 92.1133 31.1172C91.7344 31.1172 91.3906 31.0371 91.082 30.877C90.7773 30.7168 90.5156 30.4922 90.2969 30.2031C90.0781 29.9141 89.9102 29.5742 89.793 29.1836C89.6797 28.7891 89.623 28.3613 89.623 27.9004ZM90.707 27.7773V27.9004C90.707 28.2168 90.7383 28.5137 90.8008 28.791C90.8672 29.0684 90.9668 29.3125 91.0996 29.5234C91.2363 29.7344 91.4102 29.9004 91.6211 30.0215C91.832 30.1387 92.084 30.1973 92.377 30.1973C92.7363 30.1973 93.0332 30.1211 93.2676 29.9688C93.502 29.8164 93.6875 29.6152 93.8242 29.3652C93.9648 29.1152 94.0742 28.8438 94.1523 28.5508V27.1387C94.1094 26.9238 94.043 26.7168 93.9531 26.5176C93.8672 26.3145 93.7539 26.1348 93.6133 25.9785C93.4766 25.8184 93.3066 25.6914 93.1035 25.5977C92.9004 25.5039 92.6621 25.457 92.3887 25.457C92.0918 25.457 91.8359 25.5195 91.6211 25.6445C91.4102 25.7656 91.2363 25.9336 91.0996 26.1484C90.9668 26.3594 90.8672 26.6055 90.8008 26.8867C90.7383 27.1641 90.707 27.4609 90.707 27.7773ZM96.332 27.9004V27.7656C96.332 27.3086 96.3984 26.8848 96.5312 26.4941C96.6641 26.0996 96.8555 25.7578 97.1055 25.4688C97.3555 25.1758 97.6582 24.9492 98.0137 24.7891C98.3691 24.625 98.7676 24.543 99.209 24.543C99.6543 24.543 100.055 24.625 100.41 24.7891C100.77 24.9492 101.074 25.1758 101.324 25.4688C101.578 25.7578 101.771 26.0996 101.904 26.4941C102.037 26.8848 102.104 27.3086 102.104 27.7656V27.9004C102.104 28.3574 102.037 28.7812 101.904 29.1719C101.771 29.5625 101.578 29.9043 101.324 30.1973C101.074 30.4863 100.771 30.7129 100.416 30.877C100.064 31.0371 99.666 31.1172 99.2207 31.1172C98.7754 31.1172 98.375 31.0371 98.0195 30.877C97.6641 30.7129 97.3594 30.4863 97.1055 30.1973C96.8555 29.9043 96.6641 29.5625 96.5312 29.1719C96.3984 28.7812 96.332 28.3574 96.332 27.9004ZM97.416 27.7656V27.9004C97.416 28.2168 97.4531 28.5156 97.5273 28.7969C97.6016 29.0742 97.7129 29.3203 97.8613 29.5352C98.0137 29.75 98.2031 29.9199 98.4297 30.0449C98.6562 30.166 98.9199 30.2266 99.2207 30.2266C99.5176 30.2266 99.7773 30.166 100 30.0449C100.227 29.9199 100.414 29.75 100.562 29.5352C100.711 29.3203 100.822 29.0742 100.896 28.7969C100.975 28.5156 101.014 28.2168 101.014 27.9004V27.7656C101.014 27.4531 100.975 27.1582 100.896 26.8809C100.822 26.5996 100.709 26.3516 100.557 26.1367C100.408 25.918 100.221 25.7461 99.9941 25.6211C99.7715 25.4961 99.5098 25.4336 99.209 25.4336C98.9121 25.4336 98.6504 25.4961 98.4238 25.6211C98.2012 25.7461 98.0137 25.918 97.8613 26.1367C97.7129 26.3516 97.6016 26.5996 97.5273 26.8809C97.4531 27.1582 97.416 27.4531 97.416 27.7656Z" fill="black"/>
<rect x="116" y="17" width="111" height="20" rx="4" fill="#F1F1F1"/>
<path d="M130.076 29.0234C130.076 28.8408 130.047 28.6797 129.99 28.54C129.936 28.3968 129.839 28.2679 129.7 28.1533C129.564 28.0387 129.374 27.9295 129.13 27.8257C128.89 27.7218 128.586 27.6162 128.217 27.5088C127.831 27.3942 127.481 27.2671 127.17 27.1274C126.858 26.9842 126.592 26.8213 126.37 26.6387C126.148 26.4561 125.978 26.2466 125.859 26.0103C125.741 25.7739 125.682 25.5036 125.682 25.1992C125.682 24.8949 125.745 24.6138 125.87 24.356C125.995 24.0981 126.174 23.8743 126.407 23.6846C126.644 23.4912 126.925 23.3408 127.25 23.2334C127.576 23.126 127.94 23.0723 128.341 23.0723C128.928 23.0723 129.426 23.1851 129.834 23.4106C130.246 23.6326 130.559 23.9245 130.774 24.2861C130.989 24.6442 131.096 25.0273 131.096 25.4355H130.065C130.065 25.1419 130.002 24.8823 129.877 24.6567C129.752 24.4276 129.562 24.2485 129.308 24.1196C129.053 23.9871 128.731 23.9209 128.341 23.9209C127.972 23.9209 127.668 23.9764 127.428 24.0874C127.188 24.1984 127.009 24.3488 126.891 24.5386C126.776 24.7284 126.719 24.945 126.719 25.1885C126.719 25.3532 126.753 25.5036 126.821 25.6396C126.892 25.7721 127.002 25.8957 127.148 26.0103C127.299 26.1248 127.489 26.2305 127.718 26.3271C127.951 26.4238 128.228 26.5169 128.55 26.6064C128.994 26.7318 129.377 26.8714 129.7 27.0254C130.022 27.1794 130.287 27.353 130.495 27.5464C130.706 27.7362 130.862 27.9528 130.962 28.1963C131.066 28.4362 131.118 28.7083 131.118 29.0127C131.118 29.3314 131.053 29.6196 130.924 29.8774C130.795 30.1353 130.611 30.3555 130.371 30.5381C130.131 30.7207 129.843 30.8621 129.506 30.9624C129.173 31.0591 128.801 31.1074 128.389 31.1074C128.028 31.1074 127.671 31.0573 127.32 30.957C126.973 30.8568 126.656 30.7064 126.37 30.5059C126.087 30.3053 125.859 30.0583 125.688 29.7646C125.519 29.4674 125.435 29.1237 125.435 28.7334H126.466C126.466 29.002 126.518 29.2329 126.622 29.4263C126.726 29.616 126.867 29.7736 127.046 29.8989C127.229 30.0243 127.435 30.1174 127.664 30.1782C127.897 30.2355 128.139 30.2642 128.389 30.2642C128.751 30.2642 129.057 30.214 129.308 30.1138C129.558 30.0135 129.748 29.8703 129.877 29.6841C130.009 29.4979 130.076 29.2777 130.076 29.0234ZM134.7 31.1074C134.296 31.1074 133.929 31.0394 133.599 30.9033C133.273 30.7637 132.992 30.5685 132.756 30.3179C132.523 30.0672 132.344 29.77 132.219 29.4263C132.093 29.0825 132.031 28.7065 132.031 28.2983V28.0728C132.031 27.6001 132.101 27.1794 132.24 26.8105C132.38 26.4382 132.57 26.123 132.81 25.8652C133.049 25.6074 133.322 25.4123 133.626 25.2798C133.93 25.1473 134.245 25.0811 134.571 25.0811C134.987 25.0811 135.345 25.1527 135.646 25.2959C135.95 25.4391 136.199 25.6396 136.392 25.8975C136.585 26.1517 136.729 26.4525 136.822 26.7998C136.915 27.1436 136.961 27.5195 136.961 27.9277V28.3735H132.622V27.5625H135.968V27.4873C135.953 27.2295 135.9 26.9788 135.807 26.7354C135.717 26.4919 135.574 26.2913 135.377 26.1338C135.18 25.9762 134.911 25.8975 134.571 25.8975C134.346 25.8975 134.138 25.9458 133.948 26.0425C133.758 26.1356 133.596 26.2752 133.459 26.4614C133.323 26.6476 133.218 26.875 133.143 27.1436C133.067 27.4121 133.03 27.7218 133.03 28.0728V28.2983C133.03 28.5741 133.067 28.8337 133.143 29.0771C133.221 29.3171 133.334 29.5283 133.481 29.7109C133.631 29.8936 133.812 30.0368 134.023 30.1406C134.238 30.2445 134.482 30.2964 134.754 30.2964C135.105 30.2964 135.402 30.2248 135.646 30.0815C135.889 29.9383 136.102 29.7467 136.285 29.5068L136.886 29.9849C136.761 30.1746 136.602 30.3555 136.408 30.5273C136.215 30.6992 135.977 30.8389 135.694 30.9463C135.415 31.0537 135.083 31.1074 134.7 31.1074ZM141.548 30.0063V27.0146C141.548 26.7855 141.502 26.5868 141.409 26.4185C141.319 26.2466 141.183 26.1141 141 26.021C140.818 25.9279 140.592 25.8813 140.324 25.8813C140.073 25.8813 139.853 25.9243 139.663 26.0103C139.477 26.0962 139.33 26.209 139.223 26.3486C139.119 26.4883 139.067 26.6387 139.067 26.7998H138.073C138.073 26.5921 138.127 26.3862 138.234 26.1821C138.342 25.978 138.496 25.7936 138.696 25.6289C138.9 25.4606 139.144 25.3281 139.427 25.2314C139.713 25.1312 140.032 25.0811 140.383 25.0811C140.805 25.0811 141.178 25.1527 141.5 25.2959C141.826 25.4391 142.08 25.6558 142.263 25.9458C142.449 26.2323 142.542 26.5921 142.542 27.0254V29.7324C142.542 29.9258 142.558 30.1317 142.59 30.3501C142.626 30.5685 142.678 30.7565 142.746 30.9141V31H141.709C141.659 30.8854 141.62 30.7332 141.591 30.5435C141.563 30.3501 141.548 30.1711 141.548 30.0063ZM141.72 27.4766L141.731 28.1748H140.727C140.444 28.1748 140.191 28.1981 139.969 28.2446C139.747 28.2876 139.561 28.3538 139.411 28.4434C139.26 28.5329 139.146 28.6457 139.067 28.7817C138.988 28.9142 138.949 29.07 138.949 29.249C138.949 29.4316 138.99 29.5981 139.072 29.7485C139.155 29.8989 139.278 30.0189 139.443 30.1084C139.611 30.1943 139.817 30.2373 140.061 30.2373C140.365 30.2373 140.633 30.1729 140.866 30.0439C141.099 29.915 141.283 29.7575 141.419 29.5713C141.559 29.3851 141.634 29.2043 141.645 29.0288L142.069 29.5068C142.044 29.6572 141.976 29.8237 141.865 30.0063C141.754 30.189 141.606 30.3644 141.419 30.5327C141.237 30.6974 141.018 30.8353 140.764 30.9463C140.514 31.0537 140.231 31.1074 139.916 31.1074C139.522 31.1074 139.176 31.0304 138.879 30.8765C138.585 30.7225 138.356 30.5166 138.191 30.2588C138.03 29.9974 137.95 29.7056 137.95 29.3833C137.95 29.0718 138.011 28.7979 138.132 28.5615C138.254 28.3216 138.43 28.1229 138.659 27.9653C138.888 27.8042 139.164 27.6825 139.486 27.6001C139.808 27.5177 140.168 27.4766 140.565 27.4766H141.72ZM145.099 26.1016V31H144.105V25.1885H145.072L145.099 26.1016ZM146.914 25.1562L146.909 26.0801C146.826 26.0622 146.748 26.0514 146.672 26.0479C146.601 26.0407 146.518 26.0371 146.425 26.0371C146.196 26.0371 145.994 26.0729 145.818 26.1445C145.643 26.2161 145.494 26.3164 145.373 26.4453C145.251 26.5742 145.154 26.7282 145.083 26.9072C145.014 27.0827 144.97 27.276 144.948 27.4873L144.669 27.6484C144.669 27.2975 144.703 26.9681 144.771 26.6602C144.843 26.3522 144.952 26.0801 145.099 25.8438C145.245 25.6038 145.432 25.4176 145.657 25.2852C145.886 25.1491 146.159 25.0811 146.474 25.0811C146.545 25.0811 146.628 25.09 146.721 25.1079C146.814 25.1222 146.878 25.1383 146.914 25.1562ZM150.051 30.291C150.287 30.291 150.506 30.2427 150.706 30.146C150.907 30.0493 151.071 29.9168 151.2 29.7485C151.329 29.5767 151.403 29.3815 151.42 29.1631H152.366C152.348 29.5068 152.231 29.8273 152.017 30.1245C151.805 30.4181 151.528 30.6562 151.184 30.8389C150.84 31.0179 150.463 31.1074 150.051 31.1074C149.614 31.1074 149.233 31.0304 148.907 30.8765C148.584 30.7225 148.316 30.5112 148.101 30.2427C147.89 29.9741 147.73 29.6662 147.623 29.3188C147.519 28.9679 147.467 28.5973 147.467 28.207V27.9814C147.467 27.5911 147.519 27.2223 147.623 26.875C147.73 26.5241 147.89 26.2144 148.101 25.9458C148.316 25.6772 148.584 25.466 148.907 25.312C149.233 25.158 149.614 25.0811 150.051 25.0811C150.506 25.0811 150.903 25.1742 151.243 25.3604C151.583 25.543 151.85 25.7936 152.043 26.1123C152.24 26.4274 152.348 26.7855 152.366 27.1865H151.42C151.403 26.9466 151.334 26.73 151.216 26.5366C151.102 26.3433 150.944 26.1893 150.744 26.0747C150.547 25.9565 150.316 25.8975 150.051 25.8975C149.746 25.8975 149.49 25.9583 149.283 26.0801C149.079 26.1982 148.916 26.3594 148.794 26.5635C148.676 26.764 148.59 26.9878 148.536 27.2349C148.486 27.4784 148.461 27.7272 148.461 27.9814V28.207C148.461 28.4613 148.486 28.7119 148.536 28.959C148.586 29.2061 148.67 29.4299 148.789 29.6304C148.91 29.8309 149.073 29.992 149.277 30.1138C149.485 30.2319 149.743 30.291 150.051 30.291ZM154.477 22.75V31H153.483V22.75H154.477ZM154.24 27.874L153.827 27.8579C153.83 27.4604 153.889 27.0934 154.004 26.7568C154.118 26.4167 154.28 26.1213 154.487 25.8706C154.695 25.62 154.942 25.4266 155.229 25.2905C155.519 25.1509 155.839 25.0811 156.19 25.0811C156.476 25.0811 156.734 25.1204 156.963 25.1992C157.193 25.2744 157.388 25.3962 157.549 25.5645C157.714 25.7327 157.839 25.9512 157.925 26.2197C158.011 26.4847 158.054 26.8088 158.054 27.1919V31H157.055V27.1812C157.055 26.8768 157.01 26.6333 156.92 26.4507C156.831 26.2645 156.7 26.1302 156.528 26.0479C156.356 25.9619 156.145 25.9189 155.895 25.9189C155.647 25.9189 155.422 25.9709 155.218 26.0747C155.017 26.1785 154.844 26.3218 154.697 26.5044C154.554 26.687 154.441 26.8965 154.358 27.1328C154.28 27.3656 154.24 27.6126 154.24 27.874Z" fill="black"/>
</g>
<g filter="url(#filter1_d_9_2416)">
<rect x="8" y="66" width="297" height="45" rx="4" fill="white"/>
<rect x="243" y="78" width="50" height="22" rx="5" fill="#0F96DF"/>
<path d="M259.164 92.0801V93H254.898V92.0801H259.164ZM255.121 84.4688V93H253.99V84.4688H255.121ZM260.008 89.9004V89.7656C260.008 89.3086 260.074 88.8848 260.207 88.4941C260.34 88.0996 260.531 87.7578 260.781 87.4688C261.031 87.1758 261.334 86.9492 261.689 86.7891C262.045 86.625 262.443 86.543 262.885 86.543C263.33 86.543 263.73 86.625 264.086 86.7891C264.445 86.9492 264.75 87.1758 265 87.4688C265.254 87.7578 265.447 88.0996 265.58 88.4941C265.713 88.8848 265.779 89.3086 265.779 89.7656V89.9004C265.779 90.3574 265.713 90.7812 265.58 91.1719C265.447 91.5625 265.254 91.9043 265 92.1973C264.75 92.4863 264.447 92.7129 264.092 92.877C263.74 93.0371 263.342 93.1172 262.896 93.1172C262.451 93.1172 262.051 93.0371 261.695 92.877C261.34 92.7129 261.035 92.4863 260.781 92.1973C260.531 91.9043 260.34 91.5625 260.207 91.1719C260.074 90.7812 260.008 90.3574 260.008 89.9004ZM261.092 89.7656V89.9004C261.092 90.2168 261.129 90.5156 261.203 90.7969C261.277 91.0742 261.389 91.3203 261.537 91.5352C261.689 91.75 261.879 91.9199 262.105 92.0449C262.332 92.166 262.596 92.2266 262.896 92.2266C263.193 92.2266 263.453 92.166 263.676 92.0449C263.902 91.9199 264.09 91.75 264.238 91.5352C264.387 91.3203 264.498 91.0742 264.572 90.7969C264.65 90.5156 264.689 90.2168 264.689 89.9004V89.7656C264.689 89.4531 264.65 89.1582 264.572 88.8809C264.498 88.5996 264.385 88.3516 264.232 88.1367C264.084 87.918 263.896 87.7461 263.67 87.6211C263.447 87.4961 263.186 87.4336 262.885 87.4336C262.588 87.4336 262.326 87.4961 262.1 87.6211C261.877 87.7461 261.689 87.918 261.537 88.1367C261.389 88.3516 261.277 88.5996 261.203 88.8809C261.129 89.1582 261.092 89.4531 261.092 89.7656ZM271.246 86.6602H272.23V92.8652C272.23 93.4238 272.117 93.9004 271.891 94.2949C271.664 94.6895 271.348 94.9883 270.941 95.1914C270.539 95.3984 270.074 95.502 269.547 95.502C269.328 95.502 269.07 95.4668 268.773 95.3965C268.48 95.3301 268.191 95.2148 267.906 95.0508C267.625 94.8906 267.389 94.6738 267.197 94.4004L267.766 93.7559C268.031 94.0762 268.309 94.2988 268.598 94.4238C268.891 94.5488 269.18 94.6113 269.465 94.6113C269.809 94.6113 270.105 94.5469 270.355 94.418C270.605 94.2891 270.799 94.0977 270.936 93.8438C271.076 93.5938 271.146 93.2852 271.146 92.918V88.0547L271.246 86.6602ZM266.881 89.9004V89.7773C266.881 89.293 266.938 88.8535 267.051 88.459C267.168 88.0605 267.334 87.7188 267.549 87.4336C267.768 87.1484 268.031 86.9297 268.34 86.7773C268.648 86.6211 268.996 86.543 269.383 86.543C269.781 86.543 270.129 86.6133 270.426 86.7539C270.727 86.8906 270.98 87.0918 271.188 87.3574C271.398 87.6191 271.564 87.9355 271.686 88.3066C271.807 88.6777 271.891 89.0977 271.938 89.5664V90.1055C271.895 90.5703 271.811 90.9883 271.686 91.3594C271.564 91.7305 271.398 92.0469 271.188 92.3086C270.98 92.5703 270.727 92.7715 270.426 92.9121C270.125 93.0488 269.773 93.1172 269.371 93.1172C268.992 93.1172 268.648 93.0371 268.34 92.877C268.035 92.7168 267.773 92.4922 267.555 92.2031C267.336 91.9141 267.168 91.5742 267.051 91.1836C266.938 90.7891 266.881 90.3613 266.881 89.9004ZM267.965 89.7773V89.9004C267.965 90.2168 267.996 90.5137 268.059 90.791C268.125 91.0684 268.225 91.3125 268.357 91.5234C268.494 91.7344 268.668 91.9004 268.879 92.0215C269.09 92.1387 269.342 92.1973 269.635 92.1973C269.994 92.1973 270.291 92.1211 270.525 91.9688C270.76 91.8164 270.945 91.6152 271.082 91.3652C271.223 91.1152 271.332 90.8438 271.41 90.5508V89.1387C271.367 88.9238 271.301 88.7168 271.211 88.5176C271.125 88.3145 271.012 88.1348 270.871 87.9785C270.734 87.8184 270.564 87.6914 270.361 87.5977C270.158 87.5039 269.92 87.457 269.646 87.457C269.35 87.457 269.094 87.5195 268.879 87.6445C268.668 87.7656 268.494 87.9336 268.357 88.1484C268.225 88.3594 268.125 88.6055 268.059 88.8867C267.996 89.1641 267.965 89.4609 267.965 89.7773ZM275.055 86.6602V93H273.965V86.6602H275.055ZM273.883 84.9785C273.883 84.8027 273.936 84.6543 274.041 84.5332C274.15 84.4121 274.311 84.3516 274.521 84.3516C274.729 84.3516 274.887 84.4121 274.996 84.5332C275.109 84.6543 275.166 84.8027 275.166 84.9785C275.166 85.1465 275.109 85.291 274.996 85.4121C274.887 85.5293 274.729 85.5879 274.521 85.5879C274.311 85.5879 274.15 85.5293 274.041 85.4121C273.936 85.291 273.883 85.1465 273.883 84.9785ZM277.879 88.0137V93H276.795V86.6602H277.82L277.879 88.0137ZM277.621 89.5898L277.17 89.5723C277.174 89.1387 277.238 88.7383 277.363 88.3711C277.488 88 277.664 87.6777 277.891 87.4043C278.117 87.1309 278.387 86.9199 278.699 86.7715C279.016 86.6191 279.365 86.543 279.748 86.543C280.061 86.543 280.342 86.5859 280.592 86.6719C280.842 86.7539 281.055 86.8867 281.23 87.0703C281.41 87.2539 281.547 87.4922 281.641 87.7852C281.734 88.0742 281.781 88.4277 281.781 88.8457V93H280.691V88.834C280.691 88.502 280.643 88.2363 280.545 88.0371C280.447 87.834 280.305 87.6875 280.117 87.5977C279.93 87.5039 279.699 87.457 279.426 87.457C279.156 87.457 278.91 87.5137 278.688 87.627C278.469 87.7402 278.279 87.8965 278.119 88.0957C277.963 88.2949 277.84 88.5234 277.75 88.7812C277.664 89.0352 277.621 89.3047 277.621 89.5898Z" fill="white"/>
<rect x="93" y="79" width="136" height="20" rx="4" fill="#F1F1F1"/>
<path d="M107.076 91.0234C107.076 90.8408 107.047 90.6797 106.99 90.54C106.936 90.3968 106.839 90.2679 106.7 90.1533C106.564 90.0387 106.374 89.9295 106.13 89.8257C105.89 89.7218 105.586 89.6162 105.217 89.5088C104.831 89.3942 104.481 89.2671 104.17 89.1274C103.858 88.9842 103.592 88.8213 103.37 88.6387C103.148 88.4561 102.978 88.2466 102.859 88.0103C102.741 87.7739 102.682 87.5036 102.682 87.1992C102.682 86.8949 102.745 86.6138 102.87 86.356C102.995 86.0981 103.174 85.8743 103.407 85.6846C103.644 85.4912 103.925 85.3408 104.25 85.2334C104.576 85.126 104.94 85.0723 105.341 85.0723C105.928 85.0723 106.426 85.1851 106.834 85.4106C107.246 85.6326 107.559 85.9245 107.774 86.2861C107.989 86.6442 108.096 87.0273 108.096 87.4355H107.065C107.065 87.1419 107.002 86.8823 106.877 86.6567C106.752 86.4276 106.562 86.2485 106.308 86.1196C106.053 85.9871 105.731 85.9209 105.341 85.9209C104.972 85.9209 104.668 85.9764 104.428 86.0874C104.188 86.1984 104.009 86.3488 103.891 86.5386C103.776 86.7284 103.719 86.945 103.719 87.1885C103.719 87.3532 103.753 87.5036 103.821 87.6396C103.892 87.7721 104.002 87.8957 104.148 88.0103C104.299 88.1248 104.489 88.2305 104.718 88.3271C104.951 88.4238 105.228 88.5169 105.55 88.6064C105.994 88.7318 106.377 88.8714 106.7 89.0254C107.022 89.1794 107.287 89.353 107.495 89.5464C107.706 89.7362 107.862 89.9528 107.962 90.1963C108.066 90.4362 108.118 90.7083 108.118 91.0127C108.118 91.3314 108.053 91.6196 107.924 91.8774C107.795 92.1353 107.611 92.3555 107.371 92.5381C107.131 92.7207 106.843 92.8621 106.506 92.9624C106.173 93.0591 105.801 93.1074 105.389 93.1074C105.028 93.1074 104.671 93.0573 104.32 92.957C103.973 92.8568 103.656 92.7064 103.37 92.5059C103.087 92.3053 102.859 92.0583 102.688 91.7646C102.519 91.4674 102.435 91.1237 102.435 90.7334H103.466C103.466 91.002 103.518 91.2329 103.622 91.4263C103.726 91.616 103.867 91.7736 104.046 91.8989C104.229 92.0243 104.435 92.1174 104.664 92.1782C104.897 92.2355 105.139 92.2642 105.389 92.2642C105.751 92.2642 106.057 92.214 106.308 92.1138C106.558 92.0135 106.748 91.8703 106.877 91.6841C107.009 91.4979 107.076 91.2777 107.076 91.0234ZM111.7 93.1074C111.296 93.1074 110.929 93.0394 110.599 92.9033C110.273 92.7637 109.992 92.5685 109.756 92.3179C109.523 92.0672 109.344 91.77 109.219 91.4263C109.093 91.0825 109.031 90.7065 109.031 90.2983V90.0728C109.031 89.6001 109.101 89.1794 109.24 88.8105C109.38 88.4382 109.57 88.123 109.81 87.8652C110.049 87.6074 110.322 87.4123 110.626 87.2798C110.93 87.1473 111.245 87.0811 111.571 87.0811C111.987 87.0811 112.345 87.1527 112.646 87.2959C112.95 87.4391 113.199 87.6396 113.392 87.8975C113.585 88.1517 113.729 88.4525 113.822 88.7998C113.915 89.1436 113.961 89.5195 113.961 89.9277V90.3735H109.622V89.5625H112.968V89.4873C112.953 89.2295 112.9 88.9788 112.807 88.7354C112.717 88.4919 112.574 88.2913 112.377 88.1338C112.18 87.9762 111.911 87.8975 111.571 87.8975C111.346 87.8975 111.138 87.9458 110.948 88.0425C110.758 88.1356 110.596 88.2752 110.459 88.4614C110.323 88.6476 110.218 88.875 110.143 89.1436C110.067 89.4121 110.03 89.7218 110.03 90.0728V90.2983C110.03 90.5741 110.067 90.8337 110.143 91.0771C110.221 91.3171 110.334 91.5283 110.481 91.7109C110.631 91.8936 110.812 92.0368 111.023 92.1406C111.238 92.2445 111.482 92.2964 111.754 92.2964C112.105 92.2964 112.402 92.2248 112.646 92.0815C112.889 91.9383 113.102 91.7467 113.285 91.5068L113.886 91.9849C113.761 92.1746 113.602 92.3555 113.408 92.5273C113.215 92.6992 112.977 92.8389 112.694 92.9463C112.415 93.0537 112.083 93.1074 111.7 93.1074ZM118.548 92.0063V89.0146C118.548 88.7855 118.502 88.5868 118.409 88.4185C118.319 88.2466 118.183 88.1141 118 88.021C117.818 87.9279 117.592 87.8813 117.324 87.8813C117.073 87.8813 116.853 87.9243 116.663 88.0103C116.477 88.0962 116.33 88.209 116.223 88.3486C116.119 88.4883 116.067 88.6387 116.067 88.7998H115.073C115.073 88.5921 115.127 88.3862 115.234 88.1821C115.342 87.978 115.496 87.7936 115.696 87.6289C115.9 87.4606 116.144 87.3281 116.427 87.2314C116.713 87.1312 117.032 87.0811 117.383 87.0811C117.805 87.0811 118.178 87.1527 118.5 87.2959C118.826 87.4391 119.08 87.6558 119.263 87.9458C119.449 88.2323 119.542 88.5921 119.542 89.0254V91.7324C119.542 91.9258 119.558 92.1317 119.59 92.3501C119.626 92.5685 119.678 92.7565 119.746 92.9141V93H118.709C118.659 92.8854 118.62 92.7332 118.591 92.5435C118.563 92.3501 118.548 92.1711 118.548 92.0063ZM118.72 89.4766L118.731 90.1748H117.727C117.444 90.1748 117.191 90.1981 116.969 90.2446C116.747 90.2876 116.561 90.3538 116.411 90.4434C116.26 90.5329 116.146 90.6457 116.067 90.7817C115.988 90.9142 115.949 91.07 115.949 91.249C115.949 91.4316 115.99 91.5981 116.072 91.7485C116.155 91.8989 116.278 92.0189 116.443 92.1084C116.611 92.1943 116.817 92.2373 117.061 92.2373C117.365 92.2373 117.633 92.1729 117.866 92.0439C118.099 91.915 118.283 91.7575 118.419 91.5713C118.559 91.3851 118.634 91.2043 118.645 91.0288L119.069 91.5068C119.044 91.6572 118.976 91.8237 118.865 92.0063C118.754 92.189 118.606 92.3644 118.419 92.5327C118.237 92.6974 118.018 92.8353 117.764 92.9463C117.514 93.0537 117.231 93.1074 116.916 93.1074C116.522 93.1074 116.176 93.0304 115.879 92.8765C115.585 92.7225 115.356 92.5166 115.191 92.2588C115.03 91.9974 114.95 91.7056 114.95 91.3833C114.95 91.0718 115.011 90.7979 115.132 90.5615C115.254 90.3216 115.43 90.1229 115.659 89.9653C115.888 89.8042 116.164 89.6825 116.486 89.6001C116.808 89.5177 117.168 89.4766 117.565 89.4766H118.72ZM122.099 88.1016V93H121.105V87.1885H122.072L122.099 88.1016ZM123.914 87.1562L123.909 88.0801C123.826 88.0622 123.748 88.0514 123.672 88.0479C123.601 88.0407 123.518 88.0371 123.425 88.0371C123.196 88.0371 122.994 88.0729 122.818 88.1445C122.643 88.2161 122.494 88.3164 122.373 88.4453C122.251 88.5742 122.154 88.7282 122.083 88.9072C122.014 89.0827 121.97 89.276 121.948 89.4873L121.669 89.6484C121.669 89.2975 121.703 88.9681 121.771 88.6602C121.843 88.3522 121.952 88.0801 122.099 87.8438C122.245 87.6038 122.432 87.4176 122.657 87.2852C122.886 87.1491 123.159 87.0811 123.474 87.0811C123.545 87.0811 123.628 87.09 123.721 87.1079C123.814 87.1222 123.878 87.1383 123.914 87.1562ZM127.051 92.291C127.287 92.291 127.506 92.2427 127.706 92.146C127.907 92.0493 128.071 91.9168 128.2 91.7485C128.329 91.5767 128.403 91.3815 128.42 91.1631H129.366C129.348 91.5068 129.231 91.8273 129.017 92.1245C128.805 92.4181 128.528 92.6562 128.184 92.8389C127.84 93.0179 127.463 93.1074 127.051 93.1074C126.614 93.1074 126.233 93.0304 125.907 92.8765C125.584 92.7225 125.316 92.5112 125.101 92.2427C124.89 91.9741 124.73 91.6662 124.623 91.3188C124.519 90.9679 124.467 90.5973 124.467 90.207V89.9814C124.467 89.5911 124.519 89.2223 124.623 88.875C124.73 88.5241 124.89 88.2144 125.101 87.9458C125.316 87.6772 125.584 87.466 125.907 87.312C126.233 87.158 126.614 87.0811 127.051 87.0811C127.506 87.0811 127.903 87.1742 128.243 87.3604C128.583 87.543 128.85 87.7936 129.043 88.1123C129.24 88.4274 129.348 88.7855 129.366 89.1865H128.42C128.403 88.9466 128.334 88.73 128.216 88.5366C128.102 88.3433 127.944 88.1893 127.744 88.0747C127.547 87.9565 127.316 87.8975 127.051 87.8975C126.746 87.8975 126.49 87.9583 126.283 88.0801C126.079 88.1982 125.916 88.3594 125.794 88.5635C125.676 88.764 125.59 88.9878 125.536 89.2349C125.486 89.4784 125.461 89.7272 125.461 89.9814V90.207C125.461 90.4613 125.486 90.7119 125.536 90.959C125.586 91.2061 125.67 91.4299 125.789 91.6304C125.91 91.8309 126.073 91.992 126.277 92.1138C126.485 92.2319 126.743 92.291 127.051 92.291ZM131.477 84.75V93H130.483V84.75H131.477ZM131.24 89.874L130.827 89.8579C130.83 89.4604 130.889 89.0934 131.004 88.7568C131.118 88.4167 131.28 88.1213 131.487 87.8706C131.695 87.62 131.942 87.4266 132.229 87.2905C132.519 87.1509 132.839 87.0811 133.19 87.0811C133.476 87.0811 133.734 87.1204 133.963 87.1992C134.193 87.2744 134.388 87.3962 134.549 87.5645C134.714 87.7327 134.839 87.9512 134.925 88.2197C135.011 88.4847 135.054 88.8088 135.054 89.1919V93H134.055V89.1812C134.055 88.8768 134.01 88.6333 133.92 88.4507C133.831 88.2645 133.7 88.1302 133.528 88.0479C133.356 87.9619 133.145 87.9189 132.895 87.9189C132.647 87.9189 132.422 87.9709 132.218 88.0747C132.017 88.1785 131.844 88.3218 131.697 88.5044C131.554 88.687 131.441 88.8965 131.358 89.1328C131.28 89.3656 131.24 89.6126 131.24 89.874Z" fill="black"/>
<line x1="21" y1="81.5" x2="43" y2="81.5" stroke="black" stroke-width="3"/>
<line x1="21" y1="89.5" x2="43" y2="89.5" stroke="black" stroke-width="3"/>
<line x1="21" y1="97.5" x2="43" y2="97.5" stroke="black" stroke-width="3"/>
<path d="M57.1641 92.0801V93H52.8984V92.0801H57.1641ZM53.1211 84.4688V93H51.9902V84.4688H53.1211ZM58.0078 89.9004V89.7656C58.0078 89.3086 58.0742 88.8848 58.207 88.4941C58.3398 88.0996 58.5312 87.7578 58.7812 87.4688C59.0312 87.1758 59.334 86.9492 59.6895 86.7891C60.0449 86.625 60.4434 86.543 60.8848 86.543C61.3301 86.543 61.7305 86.625 62.0859 86.7891C62.4453 86.9492 62.75 87.1758 63 87.4688C63.2539 87.7578 63.4473 88.0996 63.5801 88.4941C63.7129 88.8848 63.7793 89.3086 63.7793 89.7656V89.9004C63.7793 90.3574 63.7129 90.7812 63.5801 91.1719C63.4473 91.5625 63.2539 91.9043 63 92.1973C62.75 92.4863 62.4473 92.7129 62.0918 92.877C61.7402 93.0371 61.3418 93.1172 60.8965 93.1172C60.4512 93.1172 60.0508 93.0371 59.6953 92.877C59.3398 92.7129 59.0352 92.4863 58.7812 92.1973C58.5312 91.9043 58.3398 91.5625 58.207 91.1719C58.0742 90.7812 58.0078 90.3574 58.0078 89.9004ZM59.0918 89.7656V89.9004C59.0918 90.2168 59.1289 90.5156 59.2031 90.7969C59.2773 91.0742 59.3887 91.3203 59.5371 91.5352C59.6895 91.75 59.8789 91.9199 60.1055 92.0449C60.332 92.166 60.5957 92.2266 60.8965 92.2266C61.1934 92.2266 61.4531 92.166 61.6758 92.0449C61.9023 91.9199 62.0898 91.75 62.2383 91.5352C62.3867 91.3203 62.498 91.0742 62.5723 90.7969C62.6504 90.5156 62.6895 90.2168 62.6895 89.9004V89.7656C62.6895 89.4531 62.6504 89.1582 62.5723 88.8809C62.498 88.5996 62.3848 88.3516 62.2324 88.1367C62.084 87.918 61.8965 87.7461 61.6699 87.6211C61.4473 87.4961 61.1855 87.4336 60.8848 87.4336C60.5879 87.4336 60.3262 87.4961 60.0996 87.6211C59.877 87.7461 59.6895 87.918 59.5371 88.1367C59.3887 88.3516 59.2773 88.5996 59.2031 88.8809C59.1289 89.1582 59.0918 89.4531 59.0918 89.7656ZM69.2461 86.6602H70.2305V92.8652C70.2305 93.4238 70.1172 93.9004 69.8906 94.2949C69.6641 94.6895 69.3477 94.9883 68.9414 95.1914C68.5391 95.3984 68.0742 95.502 67.5469 95.502C67.3281 95.502 67.0703 95.4668 66.7734 95.3965C66.4805 95.3301 66.1914 95.2148 65.9062 95.0508C65.625 94.8906 65.3887 94.6738 65.1973 94.4004L65.7656 93.7559C66.0312 94.0762 66.3086 94.2988 66.5977 94.4238C66.8906 94.5488 67.1797 94.6113 67.4648 94.6113C67.8086 94.6113 68.1055 94.5469 68.3555 94.418C68.6055 94.2891 68.7988 94.0977 68.9355 93.8438C69.0762 93.5938 69.1465 93.2852 69.1465 92.918V88.0547L69.2461 86.6602ZM64.8809 89.9004V89.7773C64.8809 89.293 64.9375 88.8535 65.0508 88.459C65.168 88.0605 65.334 87.7188 65.5488 87.4336C65.7676 87.1484 66.0312 86.9297 66.3398 86.7773C66.6484 86.6211 66.9961 86.543 67.3828 86.543C67.7812 86.543 68.1289 86.6133 68.4258 86.7539C68.7266 86.8906 68.9805 87.0918 69.1875 87.3574C69.3984 87.6191 69.5645 87.9355 69.6855 88.3066C69.8066 88.6777 69.8906 89.0977 69.9375 89.5664V90.1055C69.8945 90.5703 69.8105 90.9883 69.6855 91.3594C69.5645 91.7305 69.3984 92.0469 69.1875 92.3086C68.9805 92.5703 68.7266 92.7715 68.4258 92.9121C68.125 93.0488 67.7734 93.1172 67.3711 93.1172C66.9922 93.1172 66.6484 93.0371 66.3398 92.877C66.0352 92.7168 65.7734 92.4922 65.5547 92.2031C65.3359 91.9141 65.168 91.5742 65.0508 91.1836C64.9375 90.7891 64.8809 90.3613 64.8809 89.9004ZM65.9648 89.7773V89.9004C65.9648 90.2168 65.9961 90.5137 66.0586 90.791C66.125 91.0684 66.2246 91.3125 66.3574 91.5234C66.4941 91.7344 66.668 91.9004 66.8789 92.0215C67.0898 92.1387 67.3418 92.1973 67.6348 92.1973C67.9941 92.1973 68.291 92.1211 68.5254 91.9688C68.7598 91.8164 68.9453 91.6152 69.082 91.3652C69.2227 91.1152 69.332 90.8438 69.4102 90.5508V89.1387C69.3672 88.9238 69.3008 88.7168 69.2109 88.5176C69.125 88.3145 69.0117 88.1348 68.8711 87.9785C68.7344 87.8184 68.5645 87.6914 68.3613 87.5977C68.1582 87.5039 67.9199 87.457 67.6465 87.457C67.3496 87.457 67.0938 87.5195 66.8789 87.6445C66.668 87.7656 66.4941 87.9336 66.3574 88.1484C66.2246 88.3594 66.125 88.6055 66.0586 88.8867C65.9961 89.1641 65.9648 89.4609 65.9648 89.7773ZM71.5898 89.9004V89.7656C71.5898 89.3086 71.6562 88.8848 71.7891 88.4941C71.9219 88.0996 72.1133 87.7578 72.3633 87.4688C72.6133 87.1758 72.916 86.9492 73.2715 86.7891C73.627 86.625 74.0254 86.543 74.4668 86.543C74.9121 86.543 75.3125 86.625 75.668 86.7891C76.0273 86.9492 76.332 87.1758 76.582 87.4688C76.8359 87.7578 77.0293 88.0996 77.1621 88.4941C77.2949 88.8848 77.3613 89.3086 77.3613 89.7656V89.9004C77.3613 90.3574 77.2949 90.7812 77.1621 91.1719C77.0293 91.5625 76.8359 91.9043 76.582 92.1973C76.332 92.4863 76.0293 92.7129 75.6738 92.877C75.3223 93.0371 74.9238 93.1172 74.4785 93.1172C74.0332 93.1172 73.6328 93.0371 73.2773 92.877C72.9219 92.7129 72.6172 92.4863 72.3633 92.1973C72.1133 91.9043 71.9219 91.5625 71.7891 91.1719C71.6562 90.7812 71.5898 90.3574 71.5898 89.9004ZM72.6738 89.7656V89.9004C72.6738 90.2168 72.7109 90.5156 72.7852 90.7969C72.8594 91.0742 72.9707 91.3203 73.1191 91.5352C73.2715 91.75 73.4609 91.9199 73.6875 92.0449C73.9141 92.166 74.1777 92.2266 74.4785 92.2266C74.7754 92.2266 75.0352 92.166 75.2578 92.0449C75.4844 91.9199 75.6719 91.75 75.8203 91.5352C75.9688 91.3203 76.0801 91.0742 76.1543 90.7969C76.2324 90.5156 76.2715 90.2168 76.2715 89.9004V89.7656C76.2715 89.4531 76.2324 89.1582 76.1543 88.8809C76.0801 88.5996 75.9668 88.3516 75.8145 88.1367C75.666 87.918 75.4785 87.7461 75.252 87.6211C75.0293 87.4961 74.7676 87.4336 74.4668 87.4336C74.1699 87.4336 73.9082 87.4961 73.6816 87.6211C73.459 87.7461 73.2715 87.918 73.1191 88.1367C72.9707 88.3516 72.8594 88.5996 72.7852 88.8809C72.7109 89.1582 72.6738 89.4531 72.6738 89.7656Z" fill="black"/>
</g>
<defs>
<filter id="filter0_d_9_2416" x="0" y="0" width="313" height="61" filterUnits="userSpaceOnUse" color-interpolation-filters="sRGB">
<feFlood flood-opacity="0" result="BackgroundImageFix"/>
<feColorMatrix in="SourceAlpha" type="matrix" values="0 0 0 0 0 0 0 0 0 0 0 0 0 0 0 0 0 0 127 0" result="hardAlpha"/>
<feOffset dy="4"/>
<feGaussianBlur stdDeviation="4"/>
<feComposite in2="hardAlpha" operator="out"/>
<feColorMatrix type="matrix" values="0 0 0 0 0 0 0 0 0 0 0 0 0 0 0 0 0 0 0.2 0"/>
<feBlend mode="normal" in2="BackgroundImageFix" result="effect1_dropShadow_9_2416"/>
<feBlend mode="normal" in="SourceGraphic" in2="effect1_dropShadow_9_2416" result="shape"/>
</filter>
<filter id="filter1_d_9_2416" x="0" y="62" width="313" height="61" filterUnits="userSpaceOnUse" color-interpolation-filters="sRGB">
<feFlood flood-opacity="0" result="BackgroundImageFix"/>
<feColorMatrix in="SourceAlpha" type="matrix" values="0 0 0 0 0 0 0 0 0 0 0 0 0 0 0 0 0 0 127 0" result="hardAlpha"/>
<feOffset dy="4"/>
<feGaussianBlur stdDeviation="4"/>
<feComposite in2="hardAlpha" operator="out"/>
<feColorMatrix type="matrix" values="0 0 0 0 0 0 0 0 0 0 0 0 0 0 0 0 0 0 0.2 0"/>
<feBlend mode="normal" in2="BackgroundImageFix" result="effect1_dropShadow_9_2416"/>
<feBlend mode="normal" in="SourceGraphic" in2="effect1_dropShadow_9_2416" result="shape"/>
</filter>
</defs>
</svg>
