<svg width="403" height="169" viewBox="0 0 403 169" fill="none" xmlns="http://www.w3.org/2000/svg">
<g filter="url(#filter0_d_9_2472)">
<rect x="8" y="4" width="387" height="153" rx="10" fill="white"/>
<path d="M99.5 39L103.429 51.0922L116.143 51.0922L105.857 58.5656L109.786 70.6578L99.5 63.1844L89.2138 70.6578L93.1428 58.5656L82.8565 51.0922L95.571 51.0922L99.5 39Z" fill="#EBB700"/>
<path d="M134.5 39L138.429 51.0922L151.143 51.0922L140.857 58.5656L144.786 70.6578L134.5 63.1844L124.214 70.6578L128.143 58.5656L117.857 51.0922L130.571 51.0922L134.5 39Z" fill="#EBB700"/>
<path d="M169.5 39L173.429 51.0922L186.143 51.0922L175.857 58.5656L179.786 70.6578L169.5 63.1844L159.214 70.6578L163.143 58.5656L152.857 51.0922L165.571 51.0922L169.5 39Z" fill="#EBB700"/>
<path d="M204.5 39L208.429 51.0922L221.143 51.0922L210.857 58.5656L214.786 70.6578L204.5 63.1844L194.214 70.6578L198.143 58.5656L187.857 51.0922L200.571 51.0922L204.5 39Z" fill="#C4C4C4"/>
<path d="M239.5 39L243.429 51.0922L256.143 51.0922L245.857 58.5656L249.786 70.6578L239.5 63.1844L229.214 70.6578L233.143 58.5656L222.857 51.0922L235.571 51.0922L239.5 39Z" fill="#C4C4C4"/>
<path d="M178.5 100L182.429 112.092L195.143 112.092L184.857 119.566L188.786 131.658L178.5 124.184L168.214 131.658L172.143 119.566L161.857 112.092L174.571 112.092L178.5 100Z" fill="#EBB700"/>
<path d="M299.899 47.1289V65H297.641V49.9487L293.087 51.6089V49.5703L299.545 47.1289H299.899ZM309.835 55.0024H311.447C312.236 55.0024 312.887 54.8722 313.4 54.6118C313.921 54.3433 314.307 53.9811 314.56 53.5254C314.82 53.0615 314.95 52.5407 314.95 51.9629C314.95 51.2793 314.836 50.7056 314.608 50.2417C314.381 49.7778 314.039 49.4279 313.583 49.1919C313.127 48.9559 312.549 48.8379 311.85 48.8379C311.215 48.8379 310.653 48.964 310.165 49.2163C309.685 49.4604 309.306 49.8104 309.03 50.2661C308.761 50.7218 308.627 51.259 308.627 51.8774H306.369C306.369 50.9741 306.597 50.1522 307.052 49.4116C307.508 48.6711 308.147 48.0811 308.969 47.6416C309.799 47.2021 310.759 46.9824 311.85 46.9824C312.924 46.9824 313.864 47.1737 314.669 47.5562C315.475 47.9305 316.102 48.492 316.549 49.2407C316.997 49.9813 317.221 50.9049 317.221 52.0117C317.221 52.4593 317.115 52.9395 316.903 53.4521C316.7 53.9567 316.378 54.4287 315.939 54.8682C315.508 55.3076 314.946 55.6698 314.254 55.9546C313.563 56.2313 312.733 56.3696 311.764 56.3696H309.835V55.0024ZM309.835 56.8579V55.5029H311.764C312.895 55.5029 313.831 55.6372 314.572 55.9058C315.312 56.1743 315.894 56.5324 316.317 56.98C316.749 57.4276 317.05 57.9199 317.221 58.457C317.4 58.986 317.489 59.515 317.489 60.0439C317.489 60.874 317.347 61.6105 317.062 62.2534C316.785 62.8963 316.391 63.4416 315.878 63.8892C315.373 64.3368 314.779 64.6745 314.096 64.9023C313.412 65.1302 312.667 65.2441 311.862 65.2441C311.089 65.2441 310.36 65.1343 309.677 64.9146C309.001 64.6948 308.403 64.3774 307.882 63.9624C307.361 63.5392 306.955 63.0225 306.662 62.4121C306.369 61.7936 306.222 61.0897 306.222 60.3003H308.48C308.48 60.9188 308.615 61.46 308.883 61.9238C309.16 62.3877 309.551 62.7498 310.055 63.0103C310.568 63.2625 311.17 63.3887 311.862 63.3887C312.554 63.3887 313.148 63.2707 313.644 63.0347C314.149 62.7905 314.535 62.4243 314.804 61.936C315.08 61.4478 315.219 60.8333 315.219 60.0928C315.219 59.3522 315.064 58.7459 314.755 58.2739C314.446 57.7938 314.006 57.4398 313.437 57.2119C312.875 56.9759 312.212 56.8579 311.447 56.8579H309.835Z" fill="black"/>
<path d="M238.899 108.129V126H236.641V110.949L232.087 112.609V110.57L238.545 108.129H238.899ZM248.835 116.002H250.447C251.236 116.002 251.887 115.872 252.4 115.612C252.921 115.343 253.307 114.981 253.56 114.525C253.82 114.062 253.95 113.541 253.95 112.963C253.95 112.279 253.836 111.706 253.608 111.242C253.381 110.778 253.039 110.428 252.583 110.192C252.127 109.956 251.549 109.838 250.85 109.838C250.215 109.838 249.653 109.964 249.165 110.216C248.685 110.46 248.306 110.81 248.03 111.266C247.761 111.722 247.627 112.259 247.627 112.877H245.369C245.369 111.974 245.597 111.152 246.052 110.412C246.508 109.671 247.147 109.081 247.969 108.642C248.799 108.202 249.759 107.982 250.85 107.982C251.924 107.982 252.864 108.174 253.669 108.556C254.475 108.931 255.102 109.492 255.549 110.241C255.997 110.981 256.221 111.905 256.221 113.012C256.221 113.459 256.115 113.939 255.903 114.452C255.7 114.957 255.378 115.429 254.939 115.868C254.508 116.308 253.946 116.67 253.254 116.955C252.563 117.231 251.733 117.37 250.764 117.37H248.835V116.002ZM248.835 117.858V116.503H250.764C251.895 116.503 252.831 116.637 253.572 116.906C254.312 117.174 254.894 117.532 255.317 117.98C255.749 118.428 256.05 118.92 256.221 119.457C256.4 119.986 256.489 120.515 256.489 121.044C256.489 121.874 256.347 122.611 256.062 123.253C255.785 123.896 255.391 124.442 254.878 124.889C254.373 125.337 253.779 125.674 253.096 125.902C252.412 126.13 251.667 126.244 250.862 126.244C250.089 126.244 249.36 126.134 248.677 125.915C248.001 125.695 247.403 125.377 246.882 124.962C246.361 124.539 245.955 124.022 245.662 123.412C245.369 122.794 245.222 122.09 245.222 121.3H247.48C247.48 121.919 247.615 122.46 247.883 122.924C248.16 123.388 248.551 123.75 249.055 124.01C249.568 124.263 250.17 124.389 250.862 124.389C251.554 124.389 252.148 124.271 252.644 124.035C253.149 123.791 253.535 123.424 253.804 122.936C254.08 122.448 254.219 121.833 254.219 121.093C254.219 120.352 254.064 119.746 253.755 119.274C253.446 118.794 253.006 118.44 252.437 118.212C251.875 117.976 251.212 117.858 250.447 117.858H248.835Z" fill="black"/>
<path d="M147.773 116.002H149.384C150.174 116.002 150.825 115.872 151.337 115.612C151.858 115.343 152.245 114.981 152.497 114.525C152.757 114.062 152.888 113.541 152.888 112.963C152.888 112.279 152.774 111.706 152.546 111.242C152.318 110.778 151.976 110.428 151.521 110.192C151.065 109.956 150.487 109.838 149.787 109.838C149.152 109.838 148.591 109.964 148.103 110.216C147.622 110.46 147.244 110.81 146.967 111.266C146.699 111.722 146.564 112.259 146.564 112.877H144.306C144.306 111.974 144.534 111.152 144.99 110.412C145.445 109.671 146.084 109.081 146.906 108.642C147.736 108.202 148.697 107.982 149.787 107.982C150.861 107.982 151.801 108.174 152.607 108.556C153.413 108.931 154.039 109.492 154.487 110.241C154.934 110.981 155.158 111.905 155.158 113.012C155.158 113.459 155.052 113.939 154.841 114.452C154.637 114.957 154.316 115.429 153.876 115.868C153.445 116.308 152.884 116.67 152.192 116.955C151.5 117.231 150.67 117.37 149.702 117.37H147.773V116.002ZM147.773 117.858V116.503H149.702C150.833 116.503 151.769 116.637 152.509 116.906C153.25 117.174 153.832 117.532 154.255 117.98C154.686 118.428 154.987 118.92 155.158 119.457C155.337 119.986 155.427 120.515 155.427 121.044C155.427 121.874 155.284 122.611 155 123.253C154.723 123.896 154.328 124.442 153.815 124.889C153.311 125.337 152.717 125.674 152.033 125.902C151.35 126.13 150.605 126.244 149.799 126.244C149.026 126.244 148.298 126.134 147.614 125.915C146.939 125.695 146.341 125.377 145.82 124.962C145.299 124.539 144.892 124.022 144.599 123.412C144.306 122.794 144.16 122.09 144.16 121.3H146.418C146.418 121.919 146.552 122.46 146.821 122.924C147.097 123.388 147.488 123.75 147.993 124.01C148.505 124.263 149.108 124.389 149.799 124.389C150.491 124.389 151.085 124.271 151.582 124.035C152.086 123.791 152.473 123.424 152.741 122.936C153.018 122.448 153.156 121.833 153.156 121.093C153.156 120.352 153.002 119.746 152.692 119.274C152.383 118.794 151.944 118.44 151.374 118.212C150.812 117.976 150.149 117.858 149.384 117.858H147.773Z" fill="black"/>
<line x1="275" y1="39" x2="275" y2="74" stroke="black" stroke-width="2"/>
<line x1="214" y1="100" x2="214" y2="135" stroke="black" stroke-width="2"/>
</g>
<defs>
<filter id="filter0_d_9_2472" x="0" y="0" width="403" height="169" filterUnits="userSpaceOnUse" color-interpolation-filters="sRGB">
<feFlood flood-opacity="0" result="BackgroundImageFix"/>
<feColorMatrix in="SourceAlpha" type="matrix" values="0 0 0 0 0 0 0 0 0 0 0 0 0 0 0 0 0 0 127 0" result="hardAlpha"/>
<feOffset dy="4"/>
<feGaussianBlur stdDeviation="4"/>
<feComposite in2="hardAlpha" operator="out"/>
<feColorMatrix type="matrix" values="0 0 0 0 0 0 0 0 0 0 0 0 0 0 0 0 0 0 0.2 0"/>
<feBlend mode="normal" in2="BackgroundImageFix" result="effect1_dropShadow_9_2472"/>
<feBlend mode="normal" in="SourceGraphic" in2="effect1_dropShadow_9_2472" result="shape"/>
</filter>
</defs>
</svg>
