<svg width="313" height="115" viewBox="0 0 313 115" fill="none" xmlns="http://www.w3.org/2000/svg">
<g filter="url(#filter0_d_9_2449)">
<rect x="8" y="4" width="297" height="34" rx="4" fill="white"/>
<path d="M26.1172 22.7393H27.0547C27.0059 23.1885 26.8773 23.5905 26.6689 23.9453C26.4606 24.3001 26.166 24.5817 25.7852 24.79C25.4043 24.9951 24.929 25.0977 24.3594 25.0977C23.9427 25.0977 23.5635 25.0195 23.2217 24.8633C22.8831 24.707 22.5918 24.4857 22.3477 24.1992C22.1035 23.9095 21.9147 23.5628 21.7812 23.1592C21.651 22.7523 21.5859 22.2998 21.5859 21.8018V21.0938C21.5859 20.5957 21.651 20.1449 21.7812 19.7412C21.9147 19.3343 22.1051 18.986 22.3525 18.6963C22.6032 18.4066 22.9043 18.1836 23.2559 18.0273C23.6074 17.8711 24.0029 17.793 24.4424 17.793C24.9795 17.793 25.4336 17.8939 25.8047 18.0957C26.1758 18.2975 26.4639 18.5775 26.6689 18.9355C26.8773 19.2904 27.0059 19.7021 27.0547 20.1709H26.1172C26.0716 19.8389 25.987 19.554 25.8633 19.3164C25.7396 19.0755 25.5638 18.89 25.3359 18.7598C25.1081 18.6296 24.8102 18.5645 24.4424 18.5645C24.1266 18.5645 23.8483 18.6247 23.6074 18.7451C23.3698 18.8656 23.1696 19.0365 23.0068 19.2578C22.8473 19.4792 22.7269 19.7445 22.6455 20.0537C22.5641 20.363 22.5234 20.7064 22.5234 21.084V21.8018C22.5234 22.1501 22.5592 22.4772 22.6309 22.7832C22.7057 23.0892 22.818 23.3577 22.9678 23.5889C23.1175 23.82 23.3079 24.0023 23.5391 24.1357C23.7702 24.266 24.0436 24.3311 24.3594 24.3311C24.7598 24.3311 25.0788 24.2676 25.3164 24.1406C25.554 24.0137 25.7331 23.8314 25.8535 23.5938C25.9772 23.3561 26.0651 23.0713 26.1172 22.7393ZM31.3174 24.0967V21.377C31.3174 21.1686 31.2751 20.988 31.1904 20.835C31.109 20.6787 30.9854 20.5583 30.8193 20.4736C30.6533 20.389 30.4482 20.3467 30.2041 20.3467C29.9762 20.3467 29.776 20.3857 29.6035 20.4639C29.4342 20.542 29.3008 20.6445 29.2031 20.7715C29.1087 20.8984 29.0615 21.0352 29.0615 21.1816H28.1582C28.1582 20.9928 28.207 20.8057 28.3047 20.6201C28.4023 20.4346 28.5423 20.2669 28.7246 20.1172C28.9102 19.9642 29.1315 19.8438 29.3887 19.7559C29.6491 19.6647 29.9388 19.6191 30.2578 19.6191C30.6419 19.6191 30.9805 19.6842 31.2734 19.8145C31.5697 19.9447 31.8008 20.1416 31.9668 20.4053C32.1361 20.6657 32.2207 20.9928 32.2207 21.3867V23.8477C32.2207 24.0234 32.2354 24.2106 32.2646 24.4092C32.2972 24.6077 32.3444 24.7786 32.4062 24.9219V25H31.4639C31.4183 24.8958 31.3825 24.7575 31.3564 24.585C31.3304 24.4092 31.3174 24.2464 31.3174 24.0967ZM31.4736 21.7969L31.4834 22.4316H30.5703C30.3132 22.4316 30.0837 22.4528 29.8818 22.4951C29.68 22.5342 29.5107 22.5944 29.374 22.6758C29.2373 22.7572 29.1331 22.8597 29.0615 22.9834C28.9899 23.1038 28.9541 23.2454 28.9541 23.4082C28.9541 23.5742 28.9915 23.7256 29.0664 23.8623C29.1413 23.999 29.2536 24.1081 29.4033 24.1895C29.5563 24.2676 29.7435 24.3066 29.9648 24.3066C30.2415 24.3066 30.4857 24.248 30.6973 24.1309C30.9089 24.0137 31.0765 23.8704 31.2002 23.7012C31.3271 23.5319 31.3955 23.3675 31.4053 23.208L31.791 23.6426C31.7682 23.7793 31.7064 23.9307 31.6055 24.0967C31.5046 24.2627 31.3695 24.4222 31.2002 24.5752C31.0342 24.7249 30.8356 24.8503 30.6045 24.9512C30.3766 25.0488 30.1195 25.0977 29.833 25.0977C29.4749 25.0977 29.1608 25.0277 28.8906 24.8877C28.6237 24.7477 28.4154 24.5605 28.2656 24.3262C28.1191 24.0885 28.0459 23.8232 28.0459 23.5303C28.0459 23.2471 28.1012 22.998 28.2119 22.7832C28.3226 22.5651 28.4821 22.3844 28.6904 22.2412C28.8988 22.0947 29.1494 21.984 29.4424 21.9092C29.7354 21.8343 30.0625 21.7969 30.4238 21.7969H31.4736ZM34.5449 20.8447V25H33.6416V19.7168H34.4961L34.5449 20.8447ZM34.3301 22.1582L33.9541 22.1436C33.9574 21.7822 34.0111 21.4486 34.1152 21.1426C34.2194 20.8333 34.3659 20.5648 34.5547 20.3369C34.7435 20.109 34.9681 19.9333 35.2285 19.8096C35.4922 19.6826 35.7835 19.6191 36.1025 19.6191C36.363 19.6191 36.5973 19.6549 36.8057 19.7266C37.014 19.7949 37.1914 19.9056 37.3379 20.0586C37.4876 20.2116 37.6016 20.4102 37.6797 20.6543C37.7578 20.8952 37.7969 21.1898 37.7969 21.5381V25H36.8887V21.5283C36.8887 21.2516 36.848 21.0303 36.7666 20.8643C36.6852 20.695 36.5664 20.5729 36.4102 20.498C36.2539 20.4199 36.0618 20.3809 35.834 20.3809C35.6094 20.3809 35.4043 20.4281 35.2188 20.5225C35.0365 20.6169 34.8786 20.7471 34.7451 20.9131C34.6149 21.0791 34.5124 21.2695 34.4375 21.4844C34.3659 21.696 34.3301 21.9206 34.3301 22.1582ZM39.2129 17.5V18.0371L39.1104 19.834H38.4805L38.4854 18.1201V17.5H39.2129ZM42.6211 19.7168V20.4102H39.7646V19.7168H42.6211ZM40.7314 18.4326H41.6348V23.6914C41.6348 23.8704 41.6624 24.0055 41.7178 24.0967C41.7731 24.1878 41.8447 24.248 41.9326 24.2773C42.0205 24.3066 42.1149 24.3213 42.2158 24.3213C42.2907 24.3213 42.3688 24.3148 42.4502 24.3018C42.5348 24.2855 42.5983 24.2725 42.6406 24.2627L42.6455 25C42.5739 25.0228 42.4795 25.0439 42.3623 25.0635C42.2484 25.0863 42.11 25.0977 41.9473 25.0977C41.7259 25.0977 41.5225 25.0537 41.3369 24.9658C41.1514 24.8779 41.0033 24.7314 40.8926 24.5264C40.7852 24.318 40.7314 24.0381 40.7314 23.6865V18.4326ZM49.2373 23.5986C49.2373 23.4684 49.208 23.348 49.1494 23.2373C49.0941 23.1234 48.9785 23.0208 48.8027 22.9297C48.6302 22.8353 48.3698 22.7539 48.0215 22.6855C47.7285 22.6237 47.4632 22.5505 47.2256 22.4658C46.9912 22.3812 46.791 22.2786 46.625 22.1582C46.4622 22.0378 46.3369 21.8962 46.249 21.7334C46.1611 21.5706 46.1172 21.3802 46.1172 21.1621C46.1172 20.9538 46.1628 20.7568 46.2539 20.5713C46.3483 20.3857 46.4801 20.2214 46.6494 20.0781C46.8219 19.9349 47.0286 19.8226 47.2695 19.7412C47.5104 19.6598 47.779 19.6191 48.0752 19.6191C48.4984 19.6191 48.8597 19.694 49.1592 19.8438C49.4587 19.9935 49.6882 20.1937 49.8477 20.4443C50.0072 20.6917 50.0869 20.9668 50.0869 21.2695H49.1836C49.1836 21.123 49.1396 20.9814 49.0518 20.8447C48.9671 20.7048 48.8418 20.5892 48.6758 20.498C48.513 20.4069 48.3128 20.3613 48.0752 20.3613C47.8245 20.3613 47.6211 20.4004 47.4648 20.4785C47.3118 20.5534 47.1995 20.6494 47.1279 20.7666C47.0596 20.8838 47.0254 21.0075 47.0254 21.1377C47.0254 21.2354 47.0417 21.3232 47.0742 21.4014C47.11 21.4762 47.1719 21.5462 47.2598 21.6113C47.3477 21.6732 47.4714 21.7318 47.6309 21.7871C47.7904 21.8424 47.9938 21.8978 48.2412 21.9531C48.6742 22.0508 49.0306 22.168 49.3105 22.3047C49.5905 22.4414 49.7988 22.609 49.9355 22.8076C50.0723 23.0062 50.1406 23.2471 50.1406 23.5303C50.1406 23.7614 50.0918 23.973 49.9941 24.165C49.8997 24.3571 49.7614 24.5231 49.5791 24.6631C49.4001 24.7998 49.1852 24.9072 48.9346 24.9854C48.6872 25.0602 48.4089 25.0977 48.0996 25.0977C47.6341 25.0977 47.2402 25.0146 46.918 24.8486C46.5957 24.6826 46.3516 24.4678 46.1855 24.2041C46.0195 23.9404 45.9365 23.6621 45.9365 23.3691H46.8447C46.8577 23.6165 46.9294 23.8135 47.0596 23.96C47.1898 24.1032 47.3493 24.2057 47.5381 24.2676C47.7269 24.3262 47.9141 24.3555 48.0996 24.3555C48.347 24.3555 48.5537 24.3229 48.7197 24.2578C48.889 24.1927 49.0176 24.1032 49.1055 23.9893C49.1934 23.8753 49.2373 23.7451 49.2373 23.5986ZM53.5195 25.0977C53.1517 25.0977 52.818 25.0358 52.5186 24.9121C52.2223 24.7852 51.9668 24.6077 51.752 24.3799C51.5404 24.152 51.3776 23.8818 51.2637 23.5693C51.1497 23.2568 51.0928 22.915 51.0928 22.5439V22.3389C51.0928 21.9092 51.1562 21.5267 51.2832 21.1914C51.4102 20.8529 51.5827 20.5664 51.8008 20.332C52.0189 20.0977 52.2663 19.9202 52.543 19.7998C52.8197 19.6794 53.1061 19.6191 53.4023 19.6191C53.7799 19.6191 54.1055 19.6842 54.3789 19.8145C54.6556 19.9447 54.8818 20.127 55.0576 20.3613C55.2334 20.5924 55.3636 20.8659 55.4482 21.1816C55.5329 21.4941 55.5752 21.8359 55.5752 22.207V22.6123H51.6299V21.875H54.6719V21.8066C54.6589 21.5723 54.61 21.3444 54.5254 21.123C54.444 20.9017 54.3138 20.7194 54.1348 20.5762C53.9557 20.4329 53.7116 20.3613 53.4023 20.3613C53.1973 20.3613 53.0085 20.4053 52.8359 20.4932C52.6634 20.5778 52.5153 20.7048 52.3916 20.874C52.2679 21.0433 52.1719 21.25 52.1035 21.4941C52.0352 21.7383 52.001 22.0199 52.001 22.3389V22.5439C52.001 22.7946 52.0352 23.0306 52.1035 23.252C52.1751 23.4701 52.2777 23.6621 52.4111 23.8281C52.5479 23.9941 52.7122 24.1243 52.9043 24.2188C53.0996 24.3132 53.321 24.3604 53.5684 24.3604C53.8874 24.3604 54.1576 24.2952 54.3789 24.165C54.6003 24.0348 54.7939 23.8607 54.96 23.6426L55.5068 24.0771C55.3929 24.2497 55.248 24.4141 55.0723 24.5703C54.8965 24.7266 54.68 24.8535 54.4229 24.9512C54.1689 25.0488 53.8678 25.0977 53.5195 25.0977ZM57.5332 20.8447V25H56.6299V19.7168H57.4844L57.5332 20.8447ZM57.3184 22.1582L56.9424 22.1436C56.9456 21.7822 56.9993 21.4486 57.1035 21.1426C57.2077 20.8333 57.3542 20.5648 57.543 20.3369C57.7318 20.109 57.9564 19.9333 58.2168 19.8096C58.4805 19.6826 58.7718 19.6191 59.0908 19.6191C59.3512 19.6191 59.5856 19.6549 59.7939 19.7266C60.0023 19.7949 60.1797 19.9056 60.3262 20.0586C60.4759 20.2116 60.5898 20.4102 60.668 20.6543C60.7461 20.8952 60.7852 21.1898 60.7852 21.5381V25H59.877V21.5283C59.877 21.2516 59.8363 21.0303 59.7549 20.8643C59.6735 20.695 59.5547 20.5729 59.3984 20.498C59.2422 20.4199 59.0501 20.3809 58.8223 20.3809C58.5977 20.3809 58.3926 20.4281 58.207 20.5225C58.0247 20.6169 57.8669 20.7471 57.7334 20.9131C57.6032 21.0791 57.5007 21.2695 57.4258 21.4844C57.3542 21.696 57.3184 21.9206 57.3184 22.1582ZM65.4873 23.9746V17.5H66.3955V25H65.5654L65.4873 23.9746ZM61.9326 22.417V22.3145C61.9326 21.9108 61.9814 21.5446 62.0791 21.2158C62.18 20.8838 62.3216 20.599 62.5039 20.3613C62.6895 20.1237 62.9092 19.9414 63.1631 19.8145C63.4202 19.6842 63.7067 19.6191 64.0225 19.6191C64.3545 19.6191 64.6442 19.6777 64.8916 19.7949C65.1423 19.9089 65.3538 20.0765 65.5264 20.2979C65.7021 20.516 65.8405 20.7796 65.9414 21.0889C66.0423 21.3981 66.1123 21.748 66.1514 22.1387V22.5879C66.1156 22.9753 66.0456 23.3236 65.9414 23.6328C65.8405 23.9421 65.7021 24.2057 65.5264 24.4238C65.3538 24.6419 65.1423 24.8096 64.8916 24.9268C64.641 25.0407 64.348 25.0977 64.0127 25.0977C63.7035 25.0977 63.4202 25.0309 63.1631 24.8975C62.9092 24.764 62.6895 24.5768 62.5039 24.3359C62.3216 24.0951 62.18 23.8118 62.0791 23.4863C61.9814 23.1576 61.9326 22.8011 61.9326 22.417ZM62.8408 22.3145V22.417C62.8408 22.6807 62.8669 22.9281 62.9189 23.1592C62.9743 23.3903 63.0589 23.5938 63.1729 23.7695C63.2868 23.9453 63.4316 24.0837 63.6074 24.1846C63.7832 24.2822 63.9932 24.3311 64.2373 24.3311C64.5368 24.3311 64.7826 24.2676 64.9746 24.1406C65.1699 24.0137 65.3262 23.846 65.4434 23.6377C65.5605 23.4294 65.6517 23.2031 65.7168 22.959V21.7822C65.6777 21.6032 65.6208 21.4307 65.5459 21.2646C65.4743 21.0954 65.3799 20.9456 65.2627 20.8154C65.1488 20.682 65.0072 20.5762 64.8379 20.498C64.6719 20.4199 64.4749 20.3809 64.2471 20.3809C63.9997 20.3809 63.7865 20.4329 63.6074 20.5371C63.4316 20.638 63.2868 20.778 63.1729 20.957C63.0589 21.1328 62.9743 21.3379 62.9189 21.5723C62.8669 21.8034 62.8408 22.0508 62.8408 22.3145ZM71.1855 20.7324V27.0312H70.2773V19.7168H71.1074L71.1855 20.7324ZM74.7451 22.3145V22.417C74.7451 22.8011 74.6995 23.1576 74.6084 23.4863C74.5173 23.8118 74.3838 24.0951 74.208 24.3359C74.0355 24.5768 73.8223 24.764 73.5684 24.8975C73.3145 25.0309 73.0231 25.0977 72.6943 25.0977C72.359 25.0977 72.0628 25.0423 71.8057 24.9316C71.5485 24.821 71.3304 24.6598 71.1514 24.4482C70.9723 24.2367 70.8291 23.9827 70.7217 23.6865C70.6175 23.3903 70.5459 23.0566 70.5068 22.6855V22.1387C70.5459 21.748 70.6191 21.3981 70.7266 21.0889C70.834 20.7796 70.9756 20.516 71.1514 20.2979C71.3304 20.0765 71.5469 19.9089 71.8008 19.7949C72.0547 19.6777 72.3477 19.6191 72.6797 19.6191C73.0117 19.6191 73.3063 19.6842 73.5635 19.8145C73.8206 19.9414 74.0371 20.1237 74.2129 20.3613C74.3887 20.599 74.5205 20.8838 74.6084 21.2158C74.6995 21.5446 74.7451 21.9108 74.7451 22.3145ZM73.8369 22.417V22.3145C73.8369 22.0508 73.8092 21.8034 73.7539 21.5723C73.6986 21.3379 73.6123 21.1328 73.4951 20.957C73.3812 20.778 73.2347 20.638 73.0557 20.5371C72.8766 20.4329 72.6634 20.3809 72.416 20.3809C72.1882 20.3809 71.9896 20.4199 71.8203 20.498C71.6543 20.5762 71.5127 20.682 71.3955 20.8154C71.2783 20.9456 71.1823 21.0954 71.1074 21.2646C71.0358 21.4307 70.9821 21.6032 70.9463 21.7822V23.0469C71.0114 23.2747 71.1025 23.4896 71.2197 23.6914C71.3369 23.89 71.4932 24.0511 71.6885 24.1748C71.8838 24.2952 72.1296 24.3555 72.4258 24.3555C72.6699 24.3555 72.8799 24.305 73.0557 24.2041C73.2347 24.0999 73.3812 23.9583 73.4951 23.7793C73.6123 23.6003 73.6986 23.3952 73.7539 23.1641C73.8092 22.9297 73.8369 22.6807 73.8369 22.417ZM76.8008 17.5V25H75.8975V17.5H76.8008ZM76.5859 22.1582L76.21 22.1436C76.2132 21.7822 76.2669 21.4486 76.3711 21.1426C76.4753 20.8333 76.6217 20.5648 76.8105 20.3369C76.9993 20.109 77.224 19.9333 77.4844 19.8096C77.748 19.6826 78.0394 19.6191 78.3584 19.6191C78.6188 19.6191 78.8532 19.6549 79.0615 19.7266C79.2699 19.7949 79.4473 19.9056 79.5938 20.0586C79.7435 20.2116 79.8574 20.4102 79.9355 20.6543C80.0137 20.8952 80.0527 21.1898 80.0527 21.5381V25H79.1445V21.5283C79.1445 21.2516 79.1038 21.0303 79.0225 20.8643C78.9411 20.695 78.8223 20.5729 78.666 20.498C78.5098 20.4199 78.3177 20.3809 78.0898 20.3809C77.8652 20.3809 77.6602 20.4281 77.4746 20.5225C77.2923 20.6169 77.1344 20.7471 77.001 20.9131C76.8708 21.0791 76.7682 21.2695 76.6934 21.4844C76.6217 21.696 76.5859 21.9206 76.5859 22.1582ZM81.166 22.417V22.3047C81.166 21.9238 81.2214 21.5706 81.332 21.2451C81.4427 20.9163 81.6022 20.6315 81.8105 20.3906C82.0189 20.1465 82.2712 19.9577 82.5674 19.8242C82.8636 19.6875 83.1956 19.6191 83.5635 19.6191C83.9346 19.6191 84.2682 19.6875 84.5645 19.8242C84.8639 19.9577 85.1178 20.1465 85.3262 20.3906C85.5378 20.6315 85.6989 20.9163 85.8096 21.2451C85.9202 21.5706 85.9756 21.9238 85.9756 22.3047V22.417C85.9756 22.7979 85.9202 23.151 85.8096 23.4766C85.6989 23.8021 85.5378 24.0869 85.3262 24.3311C85.1178 24.5719 84.8656 24.7607 84.5693 24.8975C84.2764 25.0309 83.9443 25.0977 83.5732 25.0977C83.2021 25.0977 82.8685 25.0309 82.5723 24.8975C82.276 24.7607 82.0221 24.5719 81.8105 24.3311C81.6022 24.0869 81.4427 23.8021 81.332 23.4766C81.2214 23.151 81.166 22.7979 81.166 22.417ZM82.0693 22.3047V22.417C82.0693 22.6807 82.1003 22.9297 82.1621 23.1641C82.224 23.3952 82.3167 23.6003 82.4404 23.7793C82.5674 23.9583 82.7253 24.0999 82.9141 24.2041C83.1029 24.305 83.3226 24.3555 83.5732 24.3555C83.8206 24.3555 84.0371 24.305 84.2227 24.2041C84.4115 24.0999 84.5677 23.9583 84.6914 23.7793C84.8151 23.6003 84.9079 23.3952 84.9697 23.1641C85.0348 22.9297 85.0674 22.6807 85.0674 22.417V22.3047C85.0674 22.0443 85.0348 21.7985 84.9697 21.5674C84.9079 21.333 84.8135 21.1263 84.6865 20.9473C84.5628 20.765 84.4066 20.6217 84.2178 20.5176C84.0322 20.4134 83.8141 20.3613 83.5635 20.3613C83.3161 20.3613 83.098 20.4134 82.9092 20.5176C82.7236 20.6217 82.5674 20.765 82.4404 20.9473C82.3167 21.1263 82.224 21.333 82.1621 21.5674C82.1003 21.7985 82.0693 22.0443 82.0693 22.3047ZM89.3203 19.7168V20.4102H86.4639V19.7168H89.3203ZM87.4307 18.4326H88.334V23.6914C88.334 23.8704 88.3617 24.0055 88.417 24.0967C88.4723 24.1878 88.5439 24.248 88.6318 24.2773C88.7197 24.3066 88.8141 24.3213 88.915 24.3213C88.9899 24.3213 89.068 24.3148 89.1494 24.3018C89.234 24.2855 89.2975 24.2725 89.3398 24.2627L89.3447 25C89.2731 25.0228 89.1787 25.0439 89.0615 25.0635C88.9476 25.0863 88.8092 25.0977 88.6465 25.0977C88.4251 25.0977 88.2217 25.0537 88.0361 24.9658C87.8506 24.8779 87.7025 24.7314 87.5918 24.5264C87.4844 24.318 87.4307 24.0381 87.4307 23.6865V18.4326ZM90.043 22.417V22.3047C90.043 21.9238 90.0983 21.5706 90.209 21.2451C90.3197 20.9163 90.4792 20.6315 90.6875 20.3906C90.8958 20.1465 91.1481 19.9577 91.4443 19.8242C91.7406 19.6875 92.0726 19.6191 92.4404 19.6191C92.8115 19.6191 93.1452 19.6875 93.4414 19.8242C93.7409 19.9577 93.9948 20.1465 94.2031 20.3906C94.4147 20.6315 94.5758 20.9163 94.6865 21.2451C94.7972 21.5706 94.8525 21.9238 94.8525 22.3047V22.417C94.8525 22.7979 94.7972 23.151 94.6865 23.4766C94.5758 23.8021 94.4147 24.0869 94.2031 24.3311C93.9948 24.5719 93.7425 24.7607 93.4463 24.8975C93.1533 25.0309 92.8213 25.0977 92.4502 25.0977C92.0791 25.0977 91.7454 25.0309 91.4492 24.8975C91.153 24.7607 90.8991 24.5719 90.6875 24.3311C90.4792 24.0869 90.3197 23.8021 90.209 23.4766C90.0983 23.151 90.043 22.7979 90.043 22.417ZM90.9463 22.3047V22.417C90.9463 22.6807 90.9772 22.9297 91.0391 23.1641C91.1009 23.3952 91.1937 23.6003 91.3174 23.7793C91.4443 23.9583 91.6022 24.0999 91.791 24.2041C91.9798 24.305 92.1995 24.3555 92.4502 24.3555C92.6976 24.3555 92.9141 24.305 93.0996 24.2041C93.2884 24.0999 93.4447 23.9583 93.5684 23.7793C93.6921 23.6003 93.7848 23.3952 93.8467 23.1641C93.9118 22.9297 93.9443 22.6807 93.9443 22.417V22.3047C93.9443 22.0443 93.9118 21.7985 93.8467 21.5674C93.7848 21.333 93.6904 21.1263 93.5635 20.9473C93.4398 20.765 93.2835 20.6217 93.0947 20.5176C92.9092 20.4134 92.6911 20.3613 92.4404 20.3613C92.193 20.3613 91.9749 20.4134 91.7861 20.5176C91.6006 20.6217 91.4443 20.765 91.3174 20.9473C91.1937 21.1263 91.1009 21.333 91.0391 21.5674C90.9772 21.7985 90.9463 22.0443 90.9463 22.3047ZM96 24.5215C96 24.3685 96.0472 24.2399 96.1416 24.1357C96.2393 24.0283 96.3792 23.9746 96.5615 23.9746C96.7438 23.9746 96.8822 24.0283 96.9766 24.1357C97.0742 24.2399 97.123 24.3685 97.123 24.5215C97.123 24.6712 97.0742 24.7982 96.9766 24.9023C96.8822 25.0065 96.7438 25.0586 96.5615 25.0586C96.3792 25.0586 96.2393 25.0065 96.1416 24.9023C96.0472 24.7982 96 24.6712 96 24.5215ZM103.72 17.8906H106.073C106.607 17.8906 107.058 17.972 107.426 18.1348C107.797 18.2975 108.078 18.5384 108.271 18.8574C108.466 19.1732 108.563 19.5622 108.563 20.0244C108.563 20.3499 108.497 20.6478 108.363 20.918C108.233 21.1849 108.044 21.4128 107.797 21.6016C107.553 21.7871 107.26 21.9255 106.918 22.0166L106.654 22.1191H104.442L104.433 21.3525H106.103C106.441 21.3525 106.723 21.2939 106.947 21.1768C107.172 21.0563 107.341 20.8952 107.455 20.6934C107.569 20.4915 107.626 20.2686 107.626 20.0244C107.626 19.751 107.572 19.5117 107.465 19.3066C107.357 19.1016 107.188 18.9437 106.957 18.833C106.729 18.7191 106.435 18.6621 106.073 18.6621H104.662V25H103.72V17.8906ZM107.875 25L106.146 21.7773L107.128 21.7725L108.881 24.9414V25H107.875ZM111.938 25.0977C111.57 25.0977 111.236 25.0358 110.937 24.9121C110.64 24.7852 110.385 24.6077 110.17 24.3799C109.958 24.152 109.796 23.8818 109.682 23.5693C109.568 23.2568 109.511 22.915 109.511 22.5439V22.3389C109.511 21.9092 109.574 21.5267 109.701 21.1914C109.828 20.8529 110.001 20.5664 110.219 20.332C110.437 20.0977 110.684 19.9202 110.961 19.7998C111.238 19.6794 111.524 19.6191 111.82 19.6191C112.198 19.6191 112.523 19.6842 112.797 19.8145C113.074 19.9447 113.3 20.127 113.476 20.3613C113.651 20.5924 113.782 20.8659 113.866 21.1816C113.951 21.4941 113.993 21.8359 113.993 22.207V22.6123H110.048V21.875H113.09V21.8066C113.077 21.5723 113.028 21.3444 112.943 21.123C112.862 20.9017 112.732 20.7194 112.553 20.5762C112.374 20.4329 112.13 20.3613 111.82 20.3613C111.615 20.3613 111.426 20.4053 111.254 20.4932C111.081 20.5778 110.933 20.7048 110.81 20.874C110.686 21.0433 110.59 21.25 110.521 21.4941C110.453 21.7383 110.419 22.0199 110.419 22.3389V22.5439C110.419 22.7946 110.453 23.0306 110.521 23.252C110.593 23.4701 110.696 23.6621 110.829 23.8281C110.966 23.9941 111.13 24.1243 111.322 24.2188C111.518 24.3132 111.739 24.3604 111.986 24.3604C112.305 24.3604 112.576 24.2952 112.797 24.165C113.018 24.0348 113.212 23.8607 113.378 23.6426L113.925 24.0771C113.811 24.2497 113.666 24.4141 113.49 24.5703C113.314 24.7266 113.098 24.8535 112.841 24.9512C112.587 25.0488 112.286 25.0977 111.938 25.0977ZM117.26 19.7168V20.4102H114.403V19.7168H117.26ZM115.37 18.4326H116.273V23.6914C116.273 23.8704 116.301 24.0055 116.356 24.0967C116.412 24.1878 116.483 24.248 116.571 24.2773C116.659 24.3066 116.754 24.3213 116.854 24.3213C116.929 24.3213 117.007 24.3148 117.089 24.3018C117.174 24.2855 117.237 24.2725 117.279 24.2627L117.284 25C117.213 25.0228 117.118 25.0439 117.001 25.0635C116.887 25.0863 116.749 25.0977 116.586 25.0977C116.365 25.0977 116.161 25.0537 115.976 24.9658C115.79 24.8779 115.642 24.7314 115.531 24.5264C115.424 24.318 115.37 24.0381 115.37 23.6865V18.4326ZM119.223 20.5469V25H118.319V19.7168H119.198L119.223 20.5469ZM120.873 19.6875L120.868 20.5273C120.793 20.5111 120.722 20.5013 120.653 20.498C120.588 20.4915 120.513 20.4883 120.429 20.4883C120.22 20.4883 120.036 20.5208 119.877 20.5859C119.717 20.651 119.582 20.7422 119.472 20.8594C119.361 20.9766 119.273 21.1165 119.208 21.2793C119.146 21.4388 119.105 21.6146 119.086 21.8066L118.832 21.9531C118.832 21.6341 118.863 21.3346 118.925 21.0547C118.99 20.7747 119.089 20.5273 119.223 20.3125C119.356 20.0944 119.525 19.9251 119.73 19.8047C119.939 19.681 120.186 19.6191 120.473 19.6191C120.538 19.6191 120.613 19.6273 120.697 19.6436C120.782 19.6566 120.84 19.6712 120.873 19.6875ZM123.28 24.4531L124.75 19.7168H125.717L123.598 25.8154C123.549 25.9456 123.484 26.0856 123.402 26.2354C123.324 26.3883 123.223 26.5332 123.1 26.6699C122.976 26.8066 122.826 26.9173 122.65 27.002C122.478 27.0898 122.271 27.1338 122.03 27.1338C121.959 27.1338 121.868 27.124 121.757 27.1045C121.646 27.085 121.568 27.0687 121.522 27.0557L121.518 26.3232C121.544 26.3265 121.584 26.3298 121.64 26.333C121.698 26.3395 121.739 26.3428 121.762 26.3428C121.967 26.3428 122.141 26.3151 122.284 26.2598C122.427 26.2077 122.548 26.1182 122.646 25.9912C122.746 25.8675 122.833 25.6966 122.904 25.4785L123.28 24.4531ZM122.201 19.7168L123.573 23.8184L123.808 24.7705L123.158 25.1025L121.215 19.7168H122.201ZM129.994 19.7168V25H129.086V19.7168H129.994ZM129.018 18.3154C129.018 18.1689 129.062 18.0452 129.149 17.9443C129.241 17.8434 129.374 17.793 129.55 17.793C129.722 17.793 129.854 17.8434 129.945 17.9443C130.04 18.0452 130.087 18.1689 130.087 18.3154C130.087 18.4554 130.04 18.5758 129.945 18.6768C129.854 18.7744 129.722 18.8232 129.55 18.8232C129.374 18.8232 129.241 18.7744 129.149 18.6768C129.062 18.5758 129.018 18.4554 129.018 18.3154ZM132.348 20.8447V25H131.444V19.7168H132.299L132.348 20.8447ZM132.133 22.1582L131.757 22.1436C131.76 21.7822 131.814 21.4486 131.918 21.1426C132.022 20.8333 132.169 20.5648 132.357 20.3369C132.546 20.109 132.771 19.9333 133.031 19.8096C133.295 19.6826 133.586 19.6191 133.905 19.6191C134.166 19.6191 134.4 19.6549 134.608 19.7266C134.817 19.7949 134.994 19.9056 135.141 20.0586C135.29 20.2116 135.404 20.4102 135.482 20.6543C135.561 20.8952 135.6 21.1898 135.6 21.5381V25H134.691V21.5283C134.691 21.2516 134.651 21.0303 134.569 20.8643C134.488 20.695 134.369 20.5729 134.213 20.498C134.057 20.4199 133.865 20.3809 133.637 20.3809C133.412 20.3809 133.207 20.4281 133.021 20.5225C132.839 20.6169 132.681 20.7471 132.548 20.9131C132.418 21.0791 132.315 21.2695 132.24 21.4844C132.169 21.696 132.133 21.9206 132.133 22.1582ZM140.497 21.6162L139.774 21.4307L140.131 17.8906H143.778V18.7256H140.897L140.683 20.6592C140.813 20.5843 140.977 20.5143 141.176 20.4492C141.378 20.3841 141.609 20.3516 141.869 20.3516C142.198 20.3516 142.493 20.4085 142.753 20.5225C143.013 20.6331 143.235 20.7926 143.417 21.001C143.603 21.2093 143.744 21.46 143.842 21.7529C143.939 22.0459 143.988 22.373 143.988 22.7344C143.988 23.0762 143.941 23.3903 143.847 23.6768C143.756 23.9632 143.617 24.2139 143.432 24.4287C143.246 24.6403 143.012 24.8047 142.729 24.9219C142.449 25.0391 142.118 25.0977 141.737 25.0977C141.451 25.0977 141.179 25.0586 140.922 24.9805C140.668 24.8991 140.44 24.777 140.238 24.6143C140.04 24.4482 139.877 24.2432 139.75 23.999C139.626 23.7516 139.548 23.4619 139.516 23.1299H140.375C140.414 23.3968 140.492 23.6214 140.609 23.8037C140.727 23.986 140.88 24.1243 141.068 24.2188C141.26 24.3099 141.483 24.3555 141.737 24.3555C141.952 24.3555 142.143 24.318 142.309 24.2432C142.475 24.1683 142.615 24.0609 142.729 23.9209C142.842 23.7809 142.929 23.6117 142.987 23.4131C143.049 23.2145 143.08 22.9915 143.08 22.7441C143.08 22.5195 143.049 22.3112 142.987 22.1191C142.925 21.9271 142.833 21.7594 142.709 21.6162C142.589 21.473 142.44 21.3623 142.265 21.2842C142.089 21.2028 141.887 21.1621 141.659 21.1621C141.356 21.1621 141.127 21.2028 140.971 21.2842C140.818 21.3656 140.66 21.4762 140.497 21.6162ZM150.634 23.5986C150.634 23.4684 150.604 23.348 150.546 23.2373C150.491 23.1234 150.375 23.0208 150.199 22.9297C150.027 22.8353 149.766 22.7539 149.418 22.6855C149.125 22.6237 148.86 22.5505 148.622 22.4658C148.388 22.3812 148.188 22.2786 148.021 22.1582C147.859 22.0378 147.733 21.8962 147.646 21.7334C147.558 21.5706 147.514 21.3802 147.514 21.1621C147.514 20.9538 147.559 20.7568 147.65 20.5713C147.745 20.3857 147.877 20.2214 148.046 20.0781C148.218 19.9349 148.425 19.8226 148.666 19.7412C148.907 19.6598 149.175 19.6191 149.472 19.6191C149.895 19.6191 150.256 19.694 150.556 19.8438C150.855 19.9935 151.085 20.1937 151.244 20.4443C151.404 20.6917 151.483 20.9668 151.483 21.2695H150.58C150.58 21.123 150.536 20.9814 150.448 20.8447C150.364 20.7048 150.238 20.5892 150.072 20.498C149.91 20.4069 149.709 20.3613 149.472 20.3613C149.221 20.3613 149.018 20.4004 148.861 20.4785C148.708 20.5534 148.596 20.6494 148.524 20.7666C148.456 20.8838 148.422 21.0075 148.422 21.1377C148.422 21.2354 148.438 21.3232 148.471 21.4014C148.507 21.4762 148.568 21.5462 148.656 21.6113C148.744 21.6732 148.868 21.7318 149.027 21.7871C149.187 21.8424 149.39 21.8978 149.638 21.9531C150.071 22.0508 150.427 22.168 150.707 22.3047C150.987 22.4414 151.195 22.609 151.332 22.8076C151.469 23.0062 151.537 23.2471 151.537 23.5303C151.537 23.7614 151.488 23.973 151.391 24.165C151.296 24.3571 151.158 24.5231 150.976 24.6631C150.797 24.7998 150.582 24.9072 150.331 24.9854C150.084 25.0602 149.805 25.0977 149.496 25.0977C149.031 25.0977 148.637 25.0146 148.314 24.8486C147.992 24.6826 147.748 24.4678 147.582 24.2041C147.416 23.9404 147.333 23.6621 147.333 23.3691H148.241C148.254 23.6165 148.326 23.8135 148.456 23.96C148.586 24.1032 148.746 24.2057 148.935 24.2676C149.123 24.3262 149.311 24.3555 149.496 24.3555C149.743 24.3555 149.95 24.3229 150.116 24.2578C150.285 24.1927 150.414 24.1032 150.502 23.9893C150.59 23.8753 150.634 23.7451 150.634 23.5986ZM154.916 25.0977C154.548 25.0977 154.215 25.0358 153.915 24.9121C153.619 24.7852 153.363 24.6077 153.148 24.3799C152.937 24.152 152.774 23.8818 152.66 23.5693C152.546 23.2568 152.489 22.915 152.489 22.5439V22.3389C152.489 21.9092 152.553 21.5267 152.68 21.1914C152.807 20.8529 152.979 20.5664 153.197 20.332C153.415 20.0977 153.663 19.9202 153.939 19.7998C154.216 19.6794 154.503 19.6191 154.799 19.6191C155.176 19.6191 155.502 19.6842 155.775 19.8145C156.052 19.9447 156.278 20.127 156.454 20.3613C156.63 20.5924 156.76 20.8659 156.845 21.1816C156.929 21.4941 156.972 21.8359 156.972 22.207V22.6123H153.026V21.875H156.068V21.8066C156.055 21.5723 156.007 21.3444 155.922 21.123C155.84 20.9017 155.71 20.7194 155.531 20.5762C155.352 20.4329 155.108 20.3613 154.799 20.3613C154.594 20.3613 154.405 20.4053 154.232 20.4932C154.06 20.5778 153.912 20.7048 153.788 20.874C153.664 21.0433 153.568 21.25 153.5 21.4941C153.432 21.7383 153.397 22.0199 153.397 22.3389V22.5439C153.397 22.7946 153.432 23.0306 153.5 23.252C153.572 23.4701 153.674 23.6621 153.808 23.8281C153.944 23.9941 154.109 24.1243 154.301 24.2188C154.496 24.3132 154.717 24.3604 154.965 24.3604C155.284 24.3604 155.554 24.2952 155.775 24.165C155.997 24.0348 156.19 23.8607 156.356 23.6426L156.903 24.0771C156.789 24.2497 156.645 24.4141 156.469 24.5703C156.293 24.7266 156.076 24.8535 155.819 24.9512C155.565 25.0488 155.264 25.0977 154.916 25.0977ZM160.141 24.3555C160.355 24.3555 160.554 24.3115 160.736 24.2236C160.919 24.1357 161.068 24.0153 161.186 23.8623C161.303 23.7061 161.369 23.5286 161.386 23.3301H162.245C162.229 23.6426 162.123 23.9339 161.928 24.2041C161.736 24.471 161.483 24.6875 161.171 24.8535C160.858 25.0163 160.515 25.0977 160.141 25.0977C159.743 25.0977 159.397 25.0277 159.101 24.8877C158.808 24.7477 158.563 24.5557 158.368 24.3115C158.176 24.0674 158.031 23.7874 157.934 23.4717C157.839 23.1527 157.792 22.8158 157.792 22.4609V22.2559C157.792 21.901 157.839 21.5658 157.934 21.25C158.031 20.931 158.176 20.6494 158.368 20.4053C158.563 20.1611 158.808 19.9691 159.101 19.8291C159.397 19.6891 159.743 19.6191 160.141 19.6191C160.554 19.6191 160.915 19.7038 161.225 19.873C161.534 20.0391 161.776 20.2669 161.952 20.5566C162.131 20.8431 162.229 21.1686 162.245 21.5332H161.386C161.369 21.3151 161.308 21.1182 161.2 20.9424C161.096 20.7666 160.953 20.6266 160.771 20.5225C160.591 20.415 160.382 20.3613 160.141 20.3613C159.864 20.3613 159.631 20.4167 159.442 20.5273C159.257 20.6348 159.109 20.7812 158.998 20.9668C158.891 21.1491 158.812 21.3525 158.764 21.5771C158.718 21.7985 158.695 22.0247 158.695 22.2559V22.4609C158.695 22.6921 158.718 22.9199 158.764 23.1445C158.809 23.3691 158.886 23.5726 158.993 23.7549C159.104 23.9372 159.252 24.0837 159.438 24.1943C159.626 24.3018 159.861 24.3555 160.141 24.3555ZM163.021 22.417V22.3047C163.021 21.9238 163.077 21.5706 163.188 21.2451C163.298 20.9163 163.458 20.6315 163.666 20.3906C163.874 20.1465 164.127 19.9577 164.423 19.8242C164.719 19.6875 165.051 19.6191 165.419 19.6191C165.79 19.6191 166.124 19.6875 166.42 19.8242C166.719 19.9577 166.973 20.1465 167.182 20.3906C167.393 20.6315 167.554 20.9163 167.665 21.2451C167.776 21.5706 167.831 21.9238 167.831 22.3047V22.417C167.831 22.7979 167.776 23.151 167.665 23.4766C167.554 23.8021 167.393 24.0869 167.182 24.3311C166.973 24.5719 166.721 24.7607 166.425 24.8975C166.132 25.0309 165.8 25.0977 165.429 25.0977C165.058 25.0977 164.724 25.0309 164.428 24.8975C164.132 24.7607 163.878 24.5719 163.666 24.3311C163.458 24.0869 163.298 23.8021 163.188 23.4766C163.077 23.151 163.021 22.7979 163.021 22.417ZM163.925 22.3047V22.417C163.925 22.6807 163.956 22.9297 164.018 23.1641C164.079 23.3952 164.172 23.6003 164.296 23.7793C164.423 23.9583 164.581 24.0999 164.77 24.2041C164.958 24.305 165.178 24.3555 165.429 24.3555C165.676 24.3555 165.893 24.305 166.078 24.2041C166.267 24.0999 166.423 23.9583 166.547 23.7793C166.671 23.6003 166.763 23.3952 166.825 23.1641C166.89 22.9297 166.923 22.6807 166.923 22.417V22.3047C166.923 22.0443 166.89 21.7985 166.825 21.5674C166.763 21.333 166.669 21.1263 166.542 20.9473C166.418 20.765 166.262 20.6217 166.073 20.5176C165.888 20.4134 165.67 20.3613 165.419 20.3613C165.172 20.3613 164.953 20.4134 164.765 20.5176C164.579 20.6217 164.423 20.765 164.296 20.9473C164.172 21.1263 164.079 21.333 164.018 21.5674C163.956 21.7985 163.925 22.0443 163.925 22.3047ZM169.867 20.8447V25H168.964V19.7168H169.818L169.867 20.8447ZM169.652 22.1582L169.276 22.1436C169.28 21.7822 169.333 21.4486 169.438 21.1426C169.542 20.8333 169.688 20.5648 169.877 20.3369C170.066 20.109 170.29 19.9333 170.551 19.8096C170.814 19.6826 171.106 19.6191 171.425 19.6191C171.685 19.6191 171.92 19.6549 172.128 19.7266C172.336 19.7949 172.514 19.9056 172.66 20.0586C172.81 20.2116 172.924 20.4102 173.002 20.6543C173.08 20.8952 173.119 21.1898 173.119 21.5381V25H172.211V21.5283C172.211 21.2516 172.17 21.0303 172.089 20.8643C172.007 20.695 171.889 20.5729 171.732 20.498C171.576 20.4199 171.384 20.3809 171.156 20.3809C170.932 20.3809 170.727 20.4281 170.541 20.5225C170.359 20.6169 170.201 20.7471 170.067 20.9131C169.937 21.0791 169.835 21.2695 169.76 21.4844C169.688 21.696 169.652 21.9206 169.652 22.1582ZM177.821 23.9746V17.5H178.729V25H177.899L177.821 23.9746ZM174.267 22.417V22.3145C174.267 21.9108 174.315 21.5446 174.413 21.2158C174.514 20.8838 174.656 20.599 174.838 20.3613C175.023 20.1237 175.243 19.9414 175.497 19.8145C175.754 19.6842 176.041 19.6191 176.356 19.6191C176.688 19.6191 176.978 19.6777 177.226 19.7949C177.476 19.9089 177.688 20.0765 177.86 20.2979C178.036 20.516 178.174 20.7796 178.275 21.0889C178.376 21.3981 178.446 21.748 178.485 22.1387V22.5879C178.45 22.9753 178.38 23.3236 178.275 23.6328C178.174 23.9421 178.036 24.2057 177.86 24.4238C177.688 24.6419 177.476 24.8096 177.226 24.9268C176.975 25.0407 176.682 25.0977 176.347 25.0977C176.037 25.0977 175.754 25.0309 175.497 24.8975C175.243 24.764 175.023 24.5768 174.838 24.3359C174.656 24.0951 174.514 23.8118 174.413 23.4863C174.315 23.1576 174.267 22.8011 174.267 22.417ZM175.175 22.3145V22.417C175.175 22.6807 175.201 22.9281 175.253 23.1592C175.308 23.3903 175.393 23.5938 175.507 23.7695C175.621 23.9453 175.766 24.0837 175.941 24.1846C176.117 24.2822 176.327 24.3311 176.571 24.3311C176.871 24.3311 177.117 24.2676 177.309 24.1406C177.504 24.0137 177.66 23.846 177.777 23.6377C177.895 23.4294 177.986 23.2031 178.051 22.959V21.7822C178.012 21.6032 177.955 21.4307 177.88 21.2646C177.808 21.0954 177.714 20.9456 177.597 20.8154C177.483 20.682 177.341 20.5762 177.172 20.498C177.006 20.4199 176.809 20.3809 176.581 20.3809C176.334 20.3809 176.12 20.4329 175.941 20.5371C175.766 20.638 175.621 20.778 175.507 20.957C175.393 21.1328 175.308 21.3379 175.253 21.5723C175.201 21.8034 175.175 22.0508 175.175 22.3145ZM183.212 23.5986C183.212 23.4684 183.183 23.348 183.124 23.2373C183.069 23.1234 182.953 23.0208 182.777 22.9297C182.605 22.8353 182.344 22.7539 181.996 22.6855C181.703 22.6237 181.438 22.5505 181.2 22.4658C180.966 22.3812 180.766 22.2786 180.6 22.1582C180.437 22.0378 180.312 21.8962 180.224 21.7334C180.136 21.5706 180.092 21.3802 180.092 21.1621C180.092 20.9538 180.137 20.7568 180.229 20.5713C180.323 20.3857 180.455 20.2214 180.624 20.0781C180.797 19.9349 181.003 19.8226 181.244 19.7412C181.485 19.6598 181.754 19.6191 182.05 19.6191C182.473 19.6191 182.834 19.694 183.134 19.8438C183.433 19.9935 183.663 20.1937 183.822 20.4443C183.982 20.6917 184.062 20.9668 184.062 21.2695H183.158C183.158 21.123 183.114 20.9814 183.026 20.8447C182.942 20.7048 182.816 20.5892 182.65 20.498C182.488 20.4069 182.287 20.3613 182.05 20.3613C181.799 20.3613 181.596 20.4004 181.439 20.4785C181.286 20.5534 181.174 20.6494 181.103 20.7666C181.034 20.8838 181 21.0075 181 21.1377C181 21.2354 181.016 21.3232 181.049 21.4014C181.085 21.4762 181.146 21.5462 181.234 21.6113C181.322 21.6732 181.446 21.7318 181.605 21.7871C181.765 21.8424 181.968 21.8978 182.216 21.9531C182.649 22.0508 183.005 22.168 183.285 22.3047C183.565 22.4414 183.773 22.609 183.91 22.8076C184.047 23.0062 184.115 23.2471 184.115 23.5303C184.115 23.7614 184.066 23.973 183.969 24.165C183.874 24.3571 183.736 24.5231 183.554 24.6631C183.375 24.7998 183.16 24.9072 182.909 24.9854C182.662 25.0602 182.383 25.0977 182.074 25.0977C181.609 25.0977 181.215 25.0146 180.893 24.8486C180.57 24.6826 180.326 24.4678 180.16 24.2041C179.994 23.9404 179.911 23.6621 179.911 23.3691H180.819C180.832 23.6165 180.904 23.8135 181.034 23.96C181.164 24.1032 181.324 24.2057 181.513 24.2676C181.701 24.3262 181.889 24.3555 182.074 24.3555C182.322 24.3555 182.528 24.3229 182.694 24.2578C182.864 24.1927 182.992 24.1032 183.08 23.9893C183.168 23.8753 183.212 23.7451 183.212 23.5986ZM185.316 24.5215C185.316 24.3685 185.364 24.2399 185.458 24.1357C185.556 24.0283 185.696 23.9746 185.878 23.9746C186.06 23.9746 186.199 24.0283 186.293 24.1357C186.391 24.2399 186.439 24.3685 186.439 24.5215C186.439 24.6712 186.391 24.7982 186.293 24.9023C186.199 25.0065 186.06 25.0586 185.878 25.0586C185.696 25.0586 185.556 25.0065 185.458 24.9023C185.364 24.7982 185.316 24.6712 185.316 24.5215Z" fill="black"/>
<line x1="282.39" y1="17.3123" x2="274.39" y2="27.3123" stroke="black"/>
<line x1="274.354" y1="17.6464" x2="283.354" y2="26.6464" stroke="black"/>
</g>
<g filter="url(#filter1_d_9_2449)">
<rect x="8" y="66" width="297" height="37" rx="4" fill="white"/>
<path d="M211.473 80.4688H213.225V86.1055C213.225 86.7617 213.084 87.3145 212.803 87.7637C212.525 88.2129 212.141 88.5508 211.648 88.7773C211.16 89.0039 210.598 89.1172 209.961 89.1172C209.324 89.1172 208.758 89.0039 208.262 88.7773C207.77 88.5508 207.383 88.2129 207.102 87.7637C206.824 87.3145 206.686 86.7617 206.686 86.1055V80.4688H208.443V86.1055C208.443 86.4883 208.504 86.8008 208.625 87.043C208.746 87.2852 208.92 87.4629 209.146 87.5762C209.377 87.6895 209.648 87.7461 209.961 87.7461C210.281 87.7461 210.553 87.6895 210.775 87.5762C211.002 87.4629 211.174 87.2852 211.291 87.043C211.412 86.8008 211.473 86.4883 211.473 86.1055V80.4688ZM221.615 80.4688V89H219.857L216.43 83.2812V89H214.672V80.4688H216.43L219.863 86.1934V80.4688H221.615ZM225.764 89H223.906L223.918 87.6289H225.764C226.225 87.6289 226.613 87.5254 226.93 87.3184C227.246 87.1074 227.484 86.8008 227.645 86.3984C227.809 85.9961 227.891 85.5098 227.891 84.9395V84.5234C227.891 84.0859 227.844 83.7012 227.75 83.3691C227.66 83.0371 227.525 82.7578 227.346 82.5312C227.166 82.3047 226.945 82.1348 226.684 82.0215C226.422 81.9043 226.121 81.8457 225.781 81.8457H223.871V80.4688H225.781C226.352 80.4688 226.873 80.5664 227.346 80.7617C227.822 80.9531 228.234 81.2285 228.582 81.5879C228.93 81.9473 229.197 82.377 229.385 82.877C229.576 83.373 229.672 83.9258 229.672 84.5352V84.9395C229.672 85.5449 229.576 86.0977 229.385 86.5977C229.197 87.0977 228.93 87.5273 228.582 87.8867C228.238 88.2422 227.826 88.5176 227.346 88.7129C226.869 88.9043 226.342 89 225.764 89ZM224.902 80.4688V89H223.145V80.4688H224.902ZM237.957 84.5352V84.9395C237.957 85.5879 237.869 86.1699 237.693 86.6855C237.518 87.2012 237.27 87.6406 236.949 88.0039C236.629 88.3633 236.246 88.6387 235.801 88.8301C235.359 89.0215 234.869 89.1172 234.33 89.1172C233.795 89.1172 233.305 89.0215 232.859 88.8301C232.418 88.6387 232.035 88.3633 231.711 88.0039C231.387 87.6406 231.135 87.2012 230.955 86.6855C230.779 86.1699 230.691 85.5879 230.691 84.9395V84.5352C230.691 83.8828 230.779 83.3008 230.955 82.7891C231.131 82.2734 231.379 81.834 231.699 81.4707C232.023 81.1074 232.406 80.8301 232.848 80.6387C233.293 80.4473 233.783 80.3516 234.318 80.3516C234.857 80.3516 235.348 80.4473 235.789 80.6387C236.234 80.8301 236.617 81.1074 236.938 81.4707C237.262 81.834 237.512 82.2734 237.688 82.7891C237.867 83.3008 237.957 83.8828 237.957 84.5352ZM236.182 84.9395V84.5234C236.182 84.0703 236.141 83.6719 236.059 83.3281C235.977 82.9844 235.855 82.6953 235.695 82.4609C235.535 82.2266 235.34 82.0508 235.109 81.9336C234.879 81.8125 234.615 81.752 234.318 81.752C234.021 81.752 233.758 81.8125 233.527 81.9336C233.301 82.0508 233.107 82.2266 232.947 82.4609C232.791 82.6953 232.672 82.9844 232.59 83.3281C232.508 83.6719 232.467 84.0703 232.467 84.5234V84.9395C232.467 85.3887 232.508 85.7871 232.59 86.1348C232.672 86.4785 232.793 86.7695 232.953 87.0078C233.113 87.2422 233.309 87.4199 233.539 87.541C233.77 87.6621 234.033 87.7227 234.33 87.7227C234.627 87.7227 234.891 87.6621 235.121 87.541C235.352 87.4199 235.545 87.2422 235.701 87.0078C235.857 86.7695 235.977 86.4785 236.059 86.1348C236.141 85.7871 236.182 85.3887 236.182 84.9395Z" fill="#0F96DF"/>
<path d="M22.3828 80.4688L24.5977 84.752L26.8184 80.4688H28.1016L25.1602 85.8125V89H24.0293V85.8125L21.0879 80.4688H22.3828ZM28.3594 85.9004V85.7656C28.3594 85.3086 28.4258 84.8848 28.5586 84.4941C28.6914 84.0996 28.8828 83.7578 29.1328 83.4688C29.3828 83.1758 29.6855 82.9492 30.041 82.7891C30.3965 82.625 30.7949 82.543 31.2363 82.543C31.6816 82.543 32.082 82.625 32.4375 82.7891C32.7969 82.9492 33.1016 83.1758 33.3516 83.4688C33.6055 83.7578 33.7988 84.0996 33.9316 84.4941C34.0645 84.8848 34.1309 85.3086 34.1309 85.7656V85.9004C34.1309 86.3574 34.0645 86.7812 33.9316 87.1719C33.7988 87.5625 33.6055 87.9043 33.3516 88.1973C33.1016 88.4863 32.7988 88.7129 32.4434 88.877C32.0918 89.0371 31.6934 89.1172 31.248 89.1172C30.8027 89.1172 30.4023 89.0371 30.0469 88.877C29.6914 88.7129 29.3867 88.4863 29.1328 88.1973C28.8828 87.9043 28.6914 87.5625 28.5586 87.1719C28.4258 86.7812 28.3594 86.3574 28.3594 85.9004ZM29.4434 85.7656V85.9004C29.4434 86.2168 29.4805 86.5156 29.5547 86.7969C29.6289 87.0742 29.7402 87.3203 29.8887 87.5352C30.041 87.75 30.2305 87.9199 30.457 88.0449C30.6836 88.166 30.9473 88.2266 31.248 88.2266C31.5449 88.2266 31.8047 88.166 32.0273 88.0449C32.2539 87.9199 32.4414 87.75 32.5898 87.5352C32.7383 87.3203 32.8496 87.0742 32.9238 86.7969C33.002 86.5156 33.041 86.2168 33.041 85.9004V85.7656C33.041 85.4531 33.002 85.1582 32.9238 84.8809C32.8496 84.5996 32.7363 84.3516 32.584 84.1367C32.4355 83.918 32.248 83.7461 32.0215 83.6211C31.7988 83.4961 31.5371 83.4336 31.2363 83.4336C30.9395 83.4336 30.6777 83.4961 30.4512 83.6211C30.2285 83.7461 30.041 83.918 29.8887 84.1367C29.7402 84.3516 29.6289 84.5996 29.5547 84.8809C29.4805 85.1582 29.4434 85.4531 29.4434 85.7656ZM39.3691 87.5352V82.6602H40.459V89H39.4219L39.3691 87.5352ZM39.5742 86.1992L40.0254 86.1875C40.0254 86.6094 39.9805 87 39.8906 87.3594C39.8047 87.7148 39.6641 88.0234 39.4688 88.2852C39.2734 88.5469 39.0176 88.752 38.7012 88.9004C38.3848 89.0449 38 89.1172 37.5469 89.1172C37.2383 89.1172 36.9551 89.0723 36.6973 88.9824C36.4434 88.8926 36.2246 88.7539 36.041 88.5664C35.8574 88.3789 35.7148 88.1348 35.6133 87.834C35.5156 87.5332 35.4668 87.1719 35.4668 86.75V82.6602H36.5508V86.7617C36.5508 87.0469 36.582 87.2832 36.6445 87.4707C36.7109 87.6543 36.7988 87.8008 36.9082 87.9102C37.0215 88.0156 37.1465 88.0898 37.2832 88.1328C37.4238 88.1758 37.5684 88.1973 37.7168 88.1973C38.1777 88.1973 38.543 88.1094 38.8125 87.9336C39.082 87.7539 39.2754 87.5137 39.3926 87.2129C39.5137 86.9082 39.5742 86.5703 39.5742 86.1992ZM43.1953 83.6562V89H42.1113V82.6602H43.166L43.1953 83.6562ZM45.1758 82.625L45.1699 83.6328C45.0801 83.6133 44.9941 83.6016 44.9121 83.5977C44.834 83.5898 44.7441 83.5859 44.6426 83.5859C44.3926 83.5859 44.1719 83.625 43.9805 83.7031C43.7891 83.7812 43.627 83.8906 43.4941 84.0312C43.3613 84.1719 43.2559 84.3398 43.1777 84.5352C43.1035 84.7266 43.0547 84.9375 43.0312 85.168L42.7266 85.3438C42.7266 84.9609 42.7637 84.6016 42.8379 84.2656C42.916 83.9297 43.0352 83.6328 43.1953 83.375C43.3555 83.1133 43.5586 82.9102 43.8047 82.7656C44.0547 82.6172 44.3516 82.543 44.6953 82.543C44.7734 82.543 44.8633 82.5527 44.9648 82.5723C45.0664 82.5879 45.1367 82.6055 45.1758 82.625ZM50.2383 83.8789V91.4375H49.1484V82.6602H50.1445L50.2383 83.8789ZM54.5098 85.7773V85.9004C54.5098 86.3613 54.4551 86.7891 54.3457 87.1836C54.2363 87.5742 54.0762 87.9141 53.8652 88.2031C53.6582 88.4922 53.4023 88.7168 53.0977 88.877C52.793 89.0371 52.4434 89.1172 52.0488 89.1172C51.6465 89.1172 51.291 89.0508 50.9824 88.918C50.6738 88.7852 50.4121 88.5918 50.1973 88.3379C49.9824 88.084 49.8105 87.7793 49.6816 87.4238C49.5566 87.0684 49.4707 86.668 49.4238 86.2227V85.5664C49.4707 85.0977 49.5586 84.6777 49.6875 84.3066C49.8164 83.9355 49.9863 83.6191 50.1973 83.3574C50.4121 83.0918 50.6719 82.8906 50.9766 82.7539C51.2812 82.6133 51.6328 82.543 52.0312 82.543C52.4297 82.543 52.7832 82.6211 53.0918 82.7773C53.4004 82.9297 53.6602 83.1484 53.8711 83.4336C54.082 83.7188 54.2402 84.0605 54.3457 84.459C54.4551 84.8535 54.5098 85.293 54.5098 85.7773ZM53.4199 85.9004V85.7773C53.4199 85.4609 53.3867 85.1641 53.3203 84.8867C53.2539 84.6055 53.1504 84.3594 53.0098 84.1484C52.873 83.9336 52.6973 83.7656 52.4824 83.6445C52.2676 83.5195 52.0117 83.457 51.7148 83.457C51.4414 83.457 51.2031 83.5039 51 83.5977C50.8008 83.6914 50.6309 83.8184 50.4902 83.9785C50.3496 84.1348 50.2344 84.3145 50.1445 84.5176C50.0586 84.7168 49.9941 84.9238 49.9512 85.1387V86.6562C50.0293 86.9297 50.1387 87.1875 50.2793 87.4297C50.4199 87.668 50.6074 87.8613 50.8418 88.0098C51.0762 88.1543 51.3711 88.2266 51.7266 88.2266C52.0195 88.2266 52.2715 88.166 52.4824 88.0449C52.6973 87.9199 52.873 87.75 53.0098 87.5352C53.1504 87.3203 53.2539 87.0742 53.3203 86.7969C53.3867 86.5156 53.4199 86.2168 53.4199 85.9004ZM56.9766 80V89H55.8926V80H56.9766ZM56.7188 85.5898L56.2676 85.5723C56.2715 85.1387 56.3359 84.7383 56.4609 84.3711C56.5859 84 56.7617 83.6777 56.9883 83.4043C57.2148 83.1309 57.4844 82.9199 57.7969 82.7715C58.1133 82.6191 58.4629 82.543 58.8457 82.543C59.1582 82.543 59.4395 82.5859 59.6895 82.6719C59.9395 82.7539 60.1523 82.8867 60.3281 83.0703C60.5078 83.2539 60.6445 83.4922 60.7383 83.7852C60.832 84.0742 60.8789 84.4277 60.8789 84.8457V89H59.7891V84.834C59.7891 84.502 59.7402 84.2363 59.6426 84.0371C59.5449 83.834 59.4023 83.6875 59.2148 83.5977C59.0273 83.5039 58.7969 83.457 58.5234 83.457C58.2539 83.457 58.0078 83.5137 57.7852 83.627C57.5664 83.7402 57.377 83.8965 57.2168 84.0957C57.0605 84.2949 56.9375 84.5234 56.8477 84.7812C56.7617 85.0352 56.7188 85.3047 56.7188 85.5898ZM62.2148 85.9004V85.7656C62.2148 85.3086 62.2812 84.8848 62.4141 84.4941C62.5469 84.0996 62.7383 83.7578 62.9883 83.4688C63.2383 83.1758 63.541 82.9492 63.8965 82.7891C64.252 82.625 64.6504 82.543 65.0918 82.543C65.5371 82.543 65.9375 82.625 66.293 82.7891C66.6523 82.9492 66.957 83.1758 67.207 83.4688C67.4609 83.7578 67.6543 84.0996 67.7871 84.4941C67.9199 84.8848 67.9863 85.3086 67.9863 85.7656V85.9004C67.9863 86.3574 67.9199 86.7812 67.7871 87.1719C67.6543 87.5625 67.4609 87.9043 67.207 88.1973C66.957 88.4863 66.6543 88.7129 66.2988 88.877C65.9473 89.0371 65.5488 89.1172 65.1035 89.1172C64.6582 89.1172 64.2578 89.0371 63.9023 88.877C63.5469 88.7129 63.2422 88.4863 62.9883 88.1973C62.7383 87.9043 62.5469 87.5625 62.4141 87.1719C62.2812 86.7812 62.2148 86.3574 62.2148 85.9004ZM63.2988 85.7656V85.9004C63.2988 86.2168 63.3359 86.5156 63.4102 86.7969C63.4844 87.0742 63.5957 87.3203 63.7441 87.5352C63.8965 87.75 64.0859 87.9199 64.3125 88.0449C64.5391 88.166 64.8027 88.2266 65.1035 88.2266C65.4004 88.2266 65.6602 88.166 65.8828 88.0449C66.1094 87.9199 66.2969 87.75 66.4453 87.5352C66.5938 87.3203 66.7051 87.0742 66.7793 86.7969C66.8574 86.5156 66.8965 86.2168 66.8965 85.9004V85.7656C66.8965 85.4531 66.8574 85.1582 66.7793 84.8809C66.7051 84.5996 66.5918 84.3516 66.4395 84.1367C66.291 83.918 66.1035 83.7461 65.877 83.6211C65.6543 83.4961 65.3926 83.4336 65.0918 83.4336C64.7949 83.4336 64.5332 83.4961 64.3066 83.6211C64.084 83.7461 63.8965 83.918 63.7441 84.1367C63.5957 84.3516 63.4844 84.5996 63.4102 84.8809C63.3359 85.1582 63.2988 85.4531 63.2988 85.7656ZM72 82.6602V83.4922H68.5723V82.6602H72ZM69.7324 81.1191H70.8164V87.4297C70.8164 87.6445 70.8496 87.8066 70.916 87.916C70.9824 88.0254 71.0684 88.0977 71.1738 88.1328C71.2793 88.168 71.3926 88.1855 71.5137 88.1855C71.6035 88.1855 71.6973 88.1777 71.7949 88.1621C71.8965 88.1426 71.9727 88.127 72.0234 88.1152L72.0293 89C71.9434 89.0273 71.8301 89.0527 71.6895 89.0762C71.5527 89.1035 71.3867 89.1172 71.1914 89.1172C70.9258 89.1172 70.6816 89.0645 70.459 88.959C70.2363 88.8535 70.0586 88.6777 69.9258 88.4316C69.7969 88.1816 69.7324 87.8457 69.7324 87.4238V81.1191ZM72.8672 85.9004V85.7656C72.8672 85.3086 72.9336 84.8848 73.0664 84.4941C73.1992 84.0996 73.3906 83.7578 73.6406 83.4688C73.8906 83.1758 74.1934 82.9492 74.5488 82.7891C74.9043 82.625 75.3027 82.543 75.7441 82.543C76.1895 82.543 76.5898 82.625 76.9453 82.7891C77.3047 82.9492 77.6094 83.1758 77.8594 83.4688C78.1133 83.7578 78.3066 84.0996 78.4395 84.4941C78.5723 84.8848 78.6387 85.3086 78.6387 85.7656V85.9004C78.6387 86.3574 78.5723 86.7812 78.4395 87.1719C78.3066 87.5625 78.1133 87.9043 77.8594 88.1973C77.6094 88.4863 77.3066 88.7129 76.9512 88.877C76.5996 89.0371 76.2012 89.1172 75.7559 89.1172C75.3105 89.1172 74.9102 89.0371 74.5547 88.877C74.1992 88.7129 73.8945 88.4863 73.6406 88.1973C73.3906 87.9043 73.1992 87.5625 73.0664 87.1719C72.9336 86.7812 72.8672 86.3574 72.8672 85.9004ZM73.9512 85.7656V85.9004C73.9512 86.2168 73.9883 86.5156 74.0625 86.7969C74.1367 87.0742 74.248 87.3203 74.3965 87.5352C74.5488 87.75 74.7383 87.9199 74.9648 88.0449C75.1914 88.166 75.4551 88.2266 75.7559 88.2266C76.0527 88.2266 76.3125 88.166 76.5352 88.0449C76.7617 87.9199 76.9492 87.75 77.0977 87.5352C77.2461 87.3203 77.3574 87.0742 77.4316 86.7969C77.5098 86.5156 77.5488 86.2168 77.5488 85.9004V85.7656C77.5488 85.4531 77.5098 85.1582 77.4316 84.8809C77.3574 84.5996 77.2441 84.3516 77.0918 84.1367C76.9434 83.918 76.7559 83.7461 76.5293 83.6211C76.3066 83.4961 76.0449 83.4336 75.7441 83.4336C75.4473 83.4336 75.1855 83.4961 74.959 83.6211C74.7363 83.7461 74.5488 83.918 74.3965 84.1367C74.248 84.3516 74.1367 84.5996 74.0625 84.8809C73.9883 85.1582 73.9512 85.4531 73.9512 85.7656ZM84.0586 80V89H82.9746V80H84.0586ZM83.8008 85.5898L83.3496 85.5723C83.3535 85.1387 83.418 84.7383 83.543 84.3711C83.668 84 83.8438 83.6777 84.0703 83.4043C84.2969 83.1309 84.5664 82.9199 84.8789 82.7715C85.1953 82.6191 85.5449 82.543 85.9277 82.543C86.2402 82.543 86.5215 82.5859 86.7715 82.6719C87.0215 82.7539 87.2344 82.8867 87.4102 83.0703C87.5898 83.2539 87.7266 83.4922 87.8203 83.7852C87.9141 84.0742 87.9609 84.4277 87.9609 84.8457V89H86.8711V84.834C86.8711 84.502 86.8223 84.2363 86.7246 84.0371C86.627 83.834 86.4844 83.6875 86.2969 83.5977C86.1094 83.5039 85.8789 83.457 85.6055 83.457C85.3359 83.457 85.0898 83.5137 84.8672 83.627C84.6484 83.7402 84.459 83.8965 84.2988 84.0957C84.1426 84.2949 84.0195 84.5234 83.9297 84.7812C83.8438 85.0352 83.8008 85.3047 83.8008 85.5898ZM93.3223 87.916V84.6523C93.3223 84.4023 93.2715 84.1855 93.1699 84.002C93.0723 83.8145 92.9238 83.6699 92.7246 83.5684C92.5254 83.4668 92.2793 83.416 91.9863 83.416C91.7129 83.416 91.4727 83.4629 91.2656 83.5566C91.0625 83.6504 90.9023 83.7734 90.7852 83.9258C90.6719 84.0781 90.6152 84.2422 90.6152 84.418H89.5312C89.5312 84.1914 89.5898 83.9668 89.707 83.7441C89.8242 83.5215 89.9922 83.3203 90.2109 83.1406C90.4336 82.957 90.6992 82.8125 91.0078 82.707C91.3203 82.5977 91.668 82.543 92.0508 82.543C92.5117 82.543 92.918 82.6211 93.2695 82.7773C93.625 82.9336 93.9023 83.1699 94.1016 83.4863C94.3047 83.7988 94.4062 84.1914 94.4062 84.6641V87.6172C94.4062 87.8281 94.4238 88.0527 94.459 88.291C94.498 88.5293 94.5547 88.7344 94.6289 88.9062V89H93.498C93.4434 88.875 93.4004 88.709 93.3691 88.502C93.3379 88.291 93.3223 88.0957 93.3223 87.916ZM93.5098 85.1562L93.5215 85.918H92.4258C92.1172 85.918 91.8418 85.9434 91.5996 85.9941C91.3574 86.041 91.1543 86.1133 90.9902 86.2109C90.8262 86.3086 90.7012 86.4316 90.6152 86.5801C90.5293 86.7246 90.4863 86.8945 90.4863 87.0898C90.4863 87.2891 90.5312 87.4707 90.6211 87.6348C90.7109 87.7988 90.8457 87.9297 91.0254 88.0273C91.209 88.1211 91.4336 88.168 91.6992 88.168C92.0312 88.168 92.3242 88.0977 92.5781 87.957C92.832 87.8164 93.0332 87.6445 93.1816 87.4414C93.334 87.2383 93.416 87.041 93.4277 86.8496L93.8906 87.3711C93.8633 87.5352 93.7891 87.7168 93.668 87.916C93.5469 88.1152 93.3848 88.3066 93.1816 88.4902C92.9824 88.6699 92.7441 88.8203 92.4668 88.9414C92.1934 89.0586 91.8848 89.1172 91.541 89.1172C91.1113 89.1172 90.7344 89.0332 90.4102 88.8652C90.0898 88.6973 89.8398 88.4727 89.6602 88.1914C89.4844 87.9062 89.3965 87.5879 89.3965 87.2363C89.3965 86.8965 89.4629 86.5977 89.5957 86.3398C89.7285 86.0781 89.9199 85.8613 90.1699 85.6895C90.4199 85.5137 90.7207 85.3809 91.0723 85.291C91.4238 85.2012 91.8164 85.1562 92.25 85.1562H93.5098ZM99.8027 87.3184C99.8027 87.1621 99.7676 87.0176 99.6973 86.8848C99.6309 86.748 99.4922 86.625 99.2812 86.5156C99.0742 86.4023 98.7617 86.3047 98.3438 86.2227C97.9922 86.1484 97.6738 86.0605 97.3887 85.959C97.1074 85.8574 96.8672 85.7344 96.668 85.5898C96.4727 85.4453 96.3223 85.2754 96.2168 85.0801C96.1113 84.8848 96.0586 84.6562 96.0586 84.3945C96.0586 84.1445 96.1133 83.9082 96.2227 83.6855C96.3359 83.4629 96.4941 83.2656 96.6973 83.0938C96.9043 82.9219 97.1523 82.7871 97.4414 82.6895C97.7305 82.5918 98.0527 82.543 98.4082 82.543C98.916 82.543 99.3496 82.6328 99.709 82.8125C100.068 82.9922 100.344 83.2324 100.535 83.5332C100.727 83.8301 100.822 84.1602 100.822 84.5234H99.7383C99.7383 84.3477 99.6855 84.1777 99.5801 84.0137C99.4785 83.8457 99.3281 83.707 99.1289 83.5977C98.9336 83.4883 98.6934 83.4336 98.4082 83.4336C98.1074 83.4336 97.8633 83.4805 97.6758 83.5742C97.4922 83.6641 97.3574 83.7793 97.2715 83.9199C97.1895 84.0605 97.1484 84.209 97.1484 84.3652C97.1484 84.4824 97.168 84.5879 97.207 84.6816C97.25 84.7715 97.3242 84.8555 97.4297 84.9336C97.5352 85.0078 97.6836 85.0781 97.875 85.1445C98.0664 85.2109 98.3105 85.2773 98.6074 85.3438C99.127 85.4609 99.5547 85.6016 99.8906 85.7656C100.227 85.9297 100.477 86.1309 100.641 86.3691C100.805 86.6074 100.887 86.8965 100.887 87.2363C100.887 87.5137 100.828 87.7676 100.711 87.998C100.598 88.2285 100.432 88.4277 100.213 88.5957C99.998 88.7598 99.7402 88.8887 99.4395 88.9824C99.1426 89.0723 98.8086 89.1172 98.4375 89.1172C97.8789 89.1172 97.4062 89.0176 97.0195 88.8184C96.6328 88.6191 96.3398 88.3613 96.1406 88.0449C95.9414 87.7285 95.8418 87.3945 95.8418 87.043H96.9316C96.9473 87.3398 97.0332 87.5762 97.1895 87.752C97.3457 87.9238 97.5371 88.0469 97.7637 88.1211C97.9902 88.1914 98.2148 88.2266 98.4375 88.2266C98.7344 88.2266 98.9824 88.1875 99.1816 88.1094C99.3848 88.0312 99.5391 87.9238 99.6445 87.7871C99.75 87.6504 99.8027 87.4941 99.8027 87.3184ZM105.281 80H106.371V87.7695L106.277 89H105.281V80ZM110.654 85.7773V85.9004C110.654 86.3613 110.6 86.7891 110.49 87.1836C110.381 87.5742 110.221 87.9141 110.01 88.2031C109.799 88.4922 109.541 88.7168 109.236 88.877C108.932 89.0371 108.582 89.1172 108.188 89.1172C107.785 89.1172 107.432 89.0488 107.127 88.9121C106.826 88.7715 106.572 88.5703 106.365 88.3086C106.158 88.0469 105.992 87.7305 105.867 87.3594C105.746 86.9883 105.662 86.5703 105.615 86.1055V85.5664C105.662 85.0977 105.746 84.6777 105.867 84.3066C105.992 83.9355 106.158 83.6191 106.365 83.3574C106.572 83.0918 106.826 82.8906 107.127 82.7539C107.428 82.6133 107.777 82.543 108.176 82.543C108.574 82.543 108.928 82.6211 109.236 82.7773C109.545 82.9297 109.803 83.1484 110.01 83.4336C110.221 83.7188 110.381 84.0605 110.49 84.459C110.6 84.8535 110.654 85.293 110.654 85.7773ZM109.564 85.9004V85.7773C109.564 85.4609 109.535 85.1641 109.477 84.8867C109.418 84.6055 109.324 84.3594 109.195 84.1484C109.066 83.9336 108.896 83.7656 108.686 83.6445C108.475 83.5195 108.215 83.457 107.906 83.457C107.633 83.457 107.395 83.5039 107.191 83.5977C106.992 83.6914 106.822 83.8184 106.682 83.9785C106.541 84.1348 106.426 84.3145 106.336 84.5176C106.25 84.7168 106.186 84.9238 106.143 85.1387V86.5508C106.205 86.8242 106.307 87.0879 106.447 87.3418C106.592 87.5918 106.783 87.7969 107.021 87.957C107.264 88.1172 107.562 88.1973 107.918 88.1973C108.211 88.1973 108.461 88.1387 108.668 88.0215C108.879 87.9004 109.049 87.7344 109.178 87.5234C109.311 87.3125 109.408 87.0684 109.471 86.791C109.533 86.5137 109.564 86.2168 109.564 85.9004ZM114.656 89.1172C114.215 89.1172 113.814 89.043 113.455 88.8945C113.1 88.7422 112.793 88.5293 112.535 88.2559C112.281 87.9824 112.086 87.6582 111.949 87.2832C111.812 86.9082 111.744 86.498 111.744 86.0527V85.8066C111.744 85.291 111.82 84.832 111.973 84.4297C112.125 84.0234 112.332 83.6797 112.594 83.3984C112.855 83.1172 113.152 82.9043 113.484 82.7598C113.816 82.6152 114.16 82.543 114.516 82.543C114.969 82.543 115.359 82.6211 115.688 82.7773C116.02 82.9336 116.291 83.1523 116.502 83.4336C116.713 83.7109 116.869 84.0391 116.971 84.418C117.072 84.793 117.123 85.2031 117.123 85.6484V86.1348H112.389V85.25H116.039V85.168C116.023 84.8867 115.965 84.6133 115.863 84.3477C115.766 84.082 115.609 83.8633 115.395 83.6914C115.18 83.5195 114.887 83.4336 114.516 83.4336C114.27 83.4336 114.043 83.4863 113.836 83.5918C113.629 83.6934 113.451 83.8457 113.303 84.0488C113.154 84.252 113.039 84.5 112.957 84.793C112.875 85.0859 112.834 85.4238 112.834 85.8066V86.0527C112.834 86.3535 112.875 86.6367 112.957 86.9023C113.043 87.1641 113.166 87.3945 113.326 87.5938C113.49 87.793 113.688 87.9492 113.918 88.0625C114.152 88.1758 114.418 88.2324 114.715 88.2324C115.098 88.2324 115.422 88.1543 115.688 87.998C115.953 87.8418 116.186 87.6328 116.385 87.3711L117.041 87.8926C116.904 88.0996 116.73 88.2969 116.52 88.4844C116.309 88.6719 116.049 88.8242 115.74 88.9414C115.436 89.0586 115.074 89.1172 114.656 89.1172ZM121.02 89.1172C120.578 89.1172 120.178 89.043 119.818 88.8945C119.463 88.7422 119.156 88.5293 118.898 88.2559C118.645 87.9824 118.449 87.6582 118.312 87.2832C118.176 86.9082 118.107 86.498 118.107 86.0527V85.8066C118.107 85.291 118.184 84.832 118.336 84.4297C118.488 84.0234 118.695 83.6797 118.957 83.3984C119.219 83.1172 119.516 82.9043 119.848 82.7598C120.18 82.6152 120.523 82.543 120.879 82.543C121.332 82.543 121.723 82.6211 122.051 82.7773C122.383 82.9336 122.654 83.1523 122.865 83.4336C123.076 83.7109 123.232 84.0391 123.334 84.418C123.436 84.793 123.486 85.2031 123.486 85.6484V86.1348H118.752V85.25H122.402V85.168C122.387 84.8867 122.328 84.6133 122.227 84.3477C122.129 84.082 121.973 83.8633 121.758 83.6914C121.543 83.5195 121.25 83.4336 120.879 83.4336C120.633 83.4336 120.406 83.4863 120.199 83.5918C119.992 83.6934 119.814 83.8457 119.666 84.0488C119.518 84.252 119.402 84.5 119.32 84.793C119.238 85.0859 119.197 85.4238 119.197 85.8066V86.0527C119.197 86.3535 119.238 86.6367 119.32 86.9023C119.406 87.1641 119.529 87.3945 119.689 87.5938C119.854 87.793 120.051 87.9492 120.281 88.0625C120.516 88.1758 120.781 88.2324 121.078 88.2324C121.461 88.2324 121.785 88.1543 122.051 87.998C122.316 87.8418 122.549 87.6328 122.748 87.3711L123.404 87.8926C123.268 88.0996 123.094 88.2969 122.883 88.4844C122.672 88.6719 122.412 88.8242 122.104 88.9414C121.799 89.0586 121.438 89.1172 121.02 89.1172ZM125.836 84.0137V89H124.752V82.6602H125.777L125.836 84.0137ZM125.578 85.5898L125.127 85.5723C125.131 85.1387 125.195 84.7383 125.32 84.3711C125.445 84 125.621 83.6777 125.848 83.4043C126.074 83.1309 126.344 82.9199 126.656 82.7715C126.973 82.6191 127.322 82.543 127.705 82.543C128.018 82.543 128.299 82.5859 128.549 82.6719C128.799 82.7539 129.012 82.8867 129.188 83.0703C129.367 83.2539 129.504 83.4922 129.598 83.7852C129.691 84.0742 129.738 84.4277 129.738 84.8457V89H128.648V84.834C128.648 84.502 128.6 84.2363 128.502 84.0371C128.404 83.834 128.262 83.6875 128.074 83.5977C127.887 83.5039 127.656 83.457 127.383 83.457C127.113 83.457 126.867 83.5137 126.645 83.627C126.426 83.7402 126.236 83.8965 126.076 84.0957C125.92 84.2949 125.797 84.5234 125.707 84.7812C125.621 85.0352 125.578 85.3047 125.578 85.5898ZM138.1 87.916V84.6523C138.1 84.4023 138.049 84.1855 137.947 84.002C137.85 83.8145 137.701 83.6699 137.502 83.5684C137.303 83.4668 137.057 83.416 136.764 83.416C136.49 83.416 136.25 83.4629 136.043 83.5566C135.84 83.6504 135.68 83.7734 135.562 83.9258C135.449 84.0781 135.393 84.2422 135.393 84.418H134.309C134.309 84.1914 134.367 83.9668 134.484 83.7441C134.602 83.5215 134.77 83.3203 134.988 83.1406C135.211 82.957 135.477 82.8125 135.785 82.707C136.098 82.5977 136.445 82.543 136.828 82.543C137.289 82.543 137.695 82.6211 138.047 82.7773C138.402 82.9336 138.68 83.1699 138.879 83.4863C139.082 83.7988 139.184 84.1914 139.184 84.6641V87.6172C139.184 87.8281 139.201 88.0527 139.236 88.291C139.275 88.5293 139.332 88.7344 139.406 88.9062V89H138.275C138.221 88.875 138.178 88.709 138.146 88.502C138.115 88.291 138.1 88.0957 138.1 87.916ZM138.287 85.1562L138.299 85.918H137.203C136.895 85.918 136.619 85.9434 136.377 85.9941C136.135 86.041 135.932 86.1133 135.768 86.2109C135.604 86.3086 135.479 86.4316 135.393 86.5801C135.307 86.7246 135.264 86.8945 135.264 87.0898C135.264 87.2891 135.309 87.4707 135.398 87.6348C135.488 87.7988 135.623 87.9297 135.803 88.0273C135.986 88.1211 136.211 88.168 136.477 88.168C136.809 88.168 137.102 88.0977 137.355 87.957C137.609 87.8164 137.811 87.6445 137.959 87.4414C138.111 87.2383 138.193 87.041 138.205 86.8496L138.668 87.3711C138.641 87.5352 138.566 87.7168 138.445 87.916C138.324 88.1152 138.162 88.3066 137.959 88.4902C137.76 88.6699 137.521 88.8203 137.244 88.9414C136.971 89.0586 136.662 89.1172 136.318 89.1172C135.889 89.1172 135.512 89.0332 135.188 88.8652C134.867 88.6973 134.617 88.4727 134.438 88.1914C134.262 87.9062 134.174 87.5879 134.174 87.2363C134.174 86.8965 134.24 86.5977 134.373 86.3398C134.506 86.0781 134.697 85.8613 134.947 85.6895C135.197 85.5137 135.498 85.3809 135.85 85.291C136.201 85.2012 136.594 85.1562 137.027 85.1562H138.287ZM141.973 83.6562V89H140.889V82.6602H141.943L141.973 83.6562ZM143.953 82.625L143.947 83.6328C143.857 83.6133 143.771 83.6016 143.689 83.5977C143.611 83.5898 143.521 83.5859 143.42 83.5859C143.17 83.5859 142.949 83.625 142.758 83.7031C142.566 83.7812 142.404 83.8906 142.271 84.0312C142.139 84.1719 142.033 84.3398 141.955 84.5352C141.881 84.7266 141.832 84.9375 141.809 85.168L141.504 85.3438C141.504 84.9609 141.541 84.6016 141.615 84.2656C141.693 83.9297 141.812 83.6328 141.973 83.375C142.133 83.1133 142.336 82.9102 142.582 82.7656C142.832 82.6172 143.129 82.543 143.473 82.543C143.551 82.543 143.641 82.5527 143.742 82.5723C143.844 82.5879 143.914 82.6055 143.953 82.625ZM147.375 88.2266C147.633 88.2266 147.871 88.1738 148.09 88.0684C148.309 87.9629 148.488 87.8184 148.629 87.6348C148.77 87.4473 148.85 87.2344 148.869 86.9961H149.9C149.881 87.3711 149.754 87.7207 149.52 88.0449C149.289 88.3652 148.986 88.625 148.611 88.8242C148.236 89.0195 147.824 89.1172 147.375 89.1172C146.898 89.1172 146.482 89.0332 146.127 88.8652C145.775 88.6973 145.482 88.4668 145.248 88.1738C145.018 87.8809 144.844 87.5449 144.727 87.166C144.613 86.7832 144.557 86.3789 144.557 85.9531V85.707C144.557 85.2812 144.613 84.8789 144.727 84.5C144.844 84.1172 145.018 83.7793 145.248 83.4863C145.482 83.1934 145.775 82.9629 146.127 82.7949C146.482 82.627 146.898 82.543 147.375 82.543C147.871 82.543 148.305 82.6445 148.676 82.8477C149.047 83.0469 149.338 83.3203 149.549 83.668C149.764 84.0117 149.881 84.4023 149.9 84.8398H148.869C148.85 84.5781 148.775 84.3418 148.646 84.1309C148.521 83.9199 148.35 83.752 148.131 83.627C147.916 83.498 147.664 83.4336 147.375 83.4336C147.043 83.4336 146.764 83.5 146.537 83.6328C146.314 83.7617 146.137 83.9375 146.004 84.1602C145.875 84.3789 145.781 84.623 145.723 84.8926C145.668 85.1582 145.641 85.4297 145.641 85.707V85.9531C145.641 86.2305 145.668 86.5039 145.723 86.7734C145.777 87.043 145.869 87.2871 145.998 87.5059C146.131 87.7246 146.309 87.9004 146.531 88.0332C146.758 88.1621 147.039 88.2266 147.375 88.2266ZM152.203 80V89H151.119V80H152.203ZM151.945 85.5898L151.494 85.5723C151.498 85.1387 151.562 84.7383 151.688 84.3711C151.812 84 151.988 83.6777 152.215 83.4043C152.441 83.1309 152.711 82.9199 153.023 82.7715C153.34 82.6191 153.689 82.543 154.072 82.543C154.385 82.543 154.666 82.5859 154.916 82.6719C155.166 82.7539 155.379 82.8867 155.555 83.0703C155.734 83.2539 155.871 83.4922 155.965 83.7852C156.059 84.0742 156.105 84.4277 156.105 84.8457V89H155.016V84.834C155.016 84.502 154.967 84.2363 154.869 84.0371C154.771 83.834 154.629 83.6875 154.441 83.5977C154.254 83.5039 154.023 83.457 153.75 83.457C153.48 83.457 153.234 83.5137 153.012 83.627C152.793 83.7402 152.604 83.8965 152.443 84.0957C152.287 84.2949 152.164 84.5234 152.074 84.7812C151.988 85.0352 151.945 85.3047 151.945 85.5898ZM158.906 82.6602V89H157.816V82.6602H158.906ZM157.734 80.9785C157.734 80.8027 157.787 80.6543 157.893 80.5332C158.002 80.4121 158.162 80.3516 158.373 80.3516C158.58 80.3516 158.738 80.4121 158.848 80.5332C158.961 80.6543 159.018 80.8027 159.018 80.9785C159.018 81.1465 158.961 81.291 158.848 81.4121C158.738 81.5293 158.58 81.5879 158.373 81.5879C158.162 81.5879 158.002 81.5293 157.893 81.4121C157.787 81.291 157.734 81.1465 157.734 80.9785ZM162.574 88.0215L164.309 82.6602H165.416L163.137 89H162.41L162.574 88.0215ZM161.127 82.6602L162.914 88.0508L163.037 89H162.311L160.014 82.6602H161.127ZM169.008 89.1172C168.566 89.1172 168.166 89.043 167.807 88.8945C167.451 88.7422 167.145 88.5293 166.887 88.2559C166.633 87.9824 166.438 87.6582 166.301 87.2832C166.164 86.9082 166.096 86.498 166.096 86.0527V85.8066C166.096 85.291 166.172 84.832 166.324 84.4297C166.477 84.0234 166.684 83.6797 166.945 83.3984C167.207 83.1172 167.504 82.9043 167.836 82.7598C168.168 82.6152 168.512 82.543 168.867 82.543C169.32 82.543 169.711 82.6211 170.039 82.7773C170.371 82.9336 170.643 83.1523 170.854 83.4336C171.064 83.7109 171.221 84.0391 171.322 84.418C171.424 84.793 171.475 85.2031 171.475 85.6484V86.1348H166.74V85.25H170.391V85.168C170.375 84.8867 170.316 84.6133 170.215 84.3477C170.117 84.082 169.961 83.8633 169.746 83.6914C169.531 83.5195 169.238 83.4336 168.867 83.4336C168.621 83.4336 168.395 83.4863 168.188 83.5918C167.98 83.6934 167.803 83.8457 167.654 84.0488C167.506 84.252 167.391 84.5 167.309 84.793C167.227 85.0859 167.186 85.4238 167.186 85.8066V86.0527C167.186 86.3535 167.227 86.6367 167.309 86.9023C167.395 87.1641 167.518 87.3945 167.678 87.5938C167.842 87.793 168.039 87.9492 168.27 88.0625C168.504 88.1758 168.77 88.2324 169.066 88.2324C169.449 88.2324 169.773 88.1543 170.039 87.998C170.305 87.8418 170.537 87.6328 170.736 87.3711L171.393 87.8926C171.256 88.0996 171.082 88.2969 170.871 88.4844C170.66 88.6719 170.4 88.8242 170.092 88.9414C169.787 89.0586 169.426 89.1172 169.008 89.1172ZM176.736 87.7695V80H177.826V89H176.83L176.736 87.7695ZM172.471 85.9004V85.7773C172.471 85.293 172.529 84.8535 172.646 84.459C172.768 84.0605 172.938 83.7188 173.156 83.4336C173.379 83.1484 173.643 82.9297 173.947 82.7773C174.256 82.6211 174.6 82.543 174.979 82.543C175.377 82.543 175.725 82.6133 176.021 82.7539C176.322 82.8906 176.576 83.0918 176.783 83.3574C176.994 83.6191 177.16 83.9355 177.281 84.3066C177.402 84.6777 177.486 85.0977 177.533 85.5664V86.1055C177.49 86.5703 177.406 86.9883 177.281 87.3594C177.16 87.7305 176.994 88.0469 176.783 88.3086C176.576 88.5703 176.322 88.7715 176.021 88.9121C175.721 89.0488 175.369 89.1172 174.967 89.1172C174.596 89.1172 174.256 89.0371 173.947 88.877C173.643 88.7168 173.379 88.4922 173.156 88.2031C172.938 87.9141 172.768 87.5742 172.646 87.1836C172.529 86.7891 172.471 86.3613 172.471 85.9004ZM173.561 85.7773V85.9004C173.561 86.2168 173.592 86.5137 173.654 86.791C173.721 87.0684 173.822 87.3125 173.959 87.5234C174.096 87.7344 174.27 87.9004 174.48 88.0215C174.691 88.1387 174.943 88.1973 175.236 88.1973C175.596 88.1973 175.891 88.1211 176.121 87.9688C176.355 87.8164 176.543 87.6152 176.684 87.3652C176.824 87.1152 176.934 86.8438 177.012 86.5508V85.1387C176.965 84.9238 176.896 84.7168 176.807 84.5176C176.721 84.3145 176.607 84.1348 176.467 83.9785C176.33 83.8184 176.16 83.6914 175.957 83.5977C175.758 83.5039 175.521 83.457 175.248 83.457C174.951 83.457 174.695 83.5195 174.48 83.6445C174.27 83.7656 174.096 83.9336 173.959 84.1484C173.822 84.3594 173.721 84.6055 173.654 84.8867C173.592 85.1641 173.561 85.4609 173.561 85.7773ZM179.531 88.4258C179.531 88.2422 179.588 88.0879 179.701 87.9629C179.818 87.834 179.986 87.7695 180.205 87.7695C180.424 87.7695 180.59 87.834 180.703 87.9629C180.82 88.0879 180.879 88.2422 180.879 88.4258C180.879 88.6055 180.82 88.7578 180.703 88.8828C180.59 89.0078 180.424 89.0703 180.205 89.0703C179.986 89.0703 179.818 89.0078 179.701 88.8828C179.588 88.7578 179.531 88.6055 179.531 88.4258Z" fill="black"/>
<line x1="283.39" y1="80.3123" x2="275.39" y2="90.3123" stroke="black"/>
<line x1="275.354" y1="80.6464" x2="284.354" y2="89.6464" stroke="black"/>
</g>
<defs>
<filter id="filter0_d_9_2449" x="0" y="0" width="313" height="50" filterUnits="userSpaceOnUse" color-interpolation-filters="sRGB">
<feFlood flood-opacity="0" result="BackgroundImageFix"/>
<feColorMatrix in="SourceAlpha" type="matrix" values="0 0 0 0 0 0 0 0 0 0 0 0 0 0 0 0 0 0 127 0" result="hardAlpha"/>
<feOffset dy="4"/>
<feGaussianBlur stdDeviation="4"/>
<feComposite in2="hardAlpha" operator="out"/>
<feColorMatrix type="matrix" values="0 0 0 0 0 0 0 0 0 0 0 0 0 0 0 0 0 0 0.2 0"/>
<feBlend mode="normal" in2="BackgroundImageFix" result="effect1_dropShadow_9_2449"/>
<feBlend mode="normal" in="SourceGraphic" in2="effect1_dropShadow_9_2449" result="shape"/>
</filter>
<filter id="filter1_d_9_2449" x="0" y="62" width="313" height="53" filterUnits="userSpaceOnUse" color-interpolation-filters="sRGB">
<feFlood flood-opacity="0" result="BackgroundImageFix"/>
<feColorMatrix in="SourceAlpha" type="matrix" values="0 0 0 0 0 0 0 0 0 0 0 0 0 0 0 0 0 0 127 0" result="hardAlpha"/>
<feOffset dy="4"/>
<feGaussianBlur stdDeviation="4"/>
<feComposite in2="hardAlpha" operator="out"/>
<feColorMatrix type="matrix" values="0 0 0 0 0 0 0 0 0 0 0 0 0 0 0 0 0 0 0.2 0"/>
<feBlend mode="normal" in2="BackgroundImageFix" result="effect1_dropShadow_9_2449"/>
<feBlend mode="normal" in="SourceGraphic" in2="effect1_dropShadow_9_2449" result="shape"/>
</filter>
</defs>
</svg>
